<svg id="Isolation_Mode" xmlns="http://www.w3.org/2000/svg" viewBox="0 0 93.11 93.31"><title>logo2</title><path d="M61.2,35.6c.1,0,.2.1.4.1s.3.3.5.3a8.14,8.14,0,0,1,1.5.9c.7.6.5,2,1.4,2.6a1.19,1.19,0,0,1,.5,1.4V41a6.89,6.89,0,0,0-.8.3L63.5,41c.1-.1-.3-.1-.3-.1a1.49,1.49,0,0,1-.7-.3l-.1-.1a3,3,0,0,1,.7-.5c.5-.3-.4-1-.7-1.2-1.4-.9-1.6.4-2.4.9-.4.3-.4.8.1.9q.45.15.3.3h-.2a3.87,3.87,0,0,1-.9-.1c.1-.1-.2-.5-.8-.6a5.7,5.7,0,0,1-1.3-.1,5.45,5.45,0,0,1-1.9-.8c-.1-.1-.3-.1-.3,0-.2.4-.7.9-1.1.9-.7.1-1-.3-1-.4a4.8,4.8,0,0,1,0-2.4c.1-.6.9-1.1,1.6-1.3,1.1-.4,4.2-.4,6.5-.4,0-.1.1-.1.2-.1"/><path d="M65.5,40.5a.6.6,0,0,1-.1.4V41a1.85,1.85,0,0,1-.7.2h-.2l-1.2-.3c.1-.1-.3-.1-.3-.1a.6.6,0,0,1-.4-.1h0c.5-.1,2.1.4,2.4.2s-.1-.7.4-.5l.1.1" style="fill:#212020"/><path d="M60.3,39.4a.1.1,0,0,0,.1-.1h0l-.1.1m-3.8-2.2c-1.1-.2-1.6,1.6-1,2.3a3.77,3.77,0,0,0,1.6.5,4.8,4.8,0,0,0,1.2,0c.6.1.8.3.9.5a3.42,3.42,0,0,0,1.1.1c.1,0,.1-.1,0-.2s-.3-.1-.4-.1a.6.6,0,0,1-.1-.4.4.4,0,0,1,.2-.4.35.35,0,0,0,.2-.1v-.1c0-.3-.2-.2-.5-.2A1.48,1.48,0,0,1,59,39a1.39,1.39,0,0,1-1-.5h-.1c-.1,0-.2.1-.3.1-.3.2.1.9-.5.5s-.7-1.1-.6-1.9Z" style="fill:#4f4f4e"/><path d="M56.4,37.2c0,.7-.1,1.5.6,1.9s.2-.3.5-.5c.1-.1.4-.1.3-.2a.35.35,0,0,1-.1-.2.35.35,0,0,0-.1-.2,3.22,3.22,0,0,1-.1-.8,4,4,0,0,1-1.1,0M58.8,39a1.2,1.2,0,0,0,1.6-1c0-.2,0-.3.5-.3a1.07,1.07,0,0,1,.6.2c.2.1.4.4.3.4s-.7-.1-.8.1-.2.2-.4.4-.4.6-.5.6-.1.1-.1-.1-.2-.2-.5-.2A.59.59,0,0,1,58.8,39Z" style="fill:#373737"/><path d="M0,0H93V20.4a19.75,19.75,0,0,1-3.7.9,6.51,6.51,0,0,1-3.1-.1c-2.7-1.4-5.6-4.1-8.5-6.2a20.4,20.4,0,0,0-8.1-3.4,12.47,12.47,0,0,0-10.9,4.3,5.13,5.13,0,0,0-.9,2.4c-.4,2.3-1.2,4.3-3.5,5.5-2.6.7-3.4,1.6-4,2.5a9.28,9.28,0,0,0-1,3.6c-.2,2-.5,3.7-.8,5.7-.4,2.5-.7,4.2-.1,6.6,2,8.6,6.3,22.8,16.5,31.4a27.47,27.47,0,0,0,4,2.6,19.55,19.55,0,0,0-5.6,8c-.5,1.4-1.3,2.6-1.4,3.9,0,.3-.1,1,.2,1.3s1,.6,1,1c0,.9-.8,1.7-.8,2.6H0Z"/><path d="M42.2,34.5C37,42.5,30.8,40,22.8,40c-.6,0-10.3-.3-6.3,1.3,5.5,2.2,9.1,6.2,15.3,7C42.3,49.8,42.7,43,45.3,35.2c2.2-6.6-3.5-.9-3.1-.7" style="fill:#212020"/><path d="M45.3,13.7a9.2,9.2,0,0,0,2.8,1.4c.1,0-.2.4-.3.4-1.3.8.7.5.7,1.4,0,2.5,6.7-2.1,3.3.7-1.7,1.5-2.6,3.1-4.7,4.3-2.3,1.3-7.1,8-10.2,6.9-.2-.1-1.7-.9-1.2-1.8.6-1.2,3.2-2.4,2.5-3s-3.4.8-5.1.9-15.8-4.5-16-4.7c-1-1.1,4.6-2,9.1-3.3A17,17,0,0,0,31,14.8c1.9-1.3,7.7-.2,9.2-.7a11.19,11.19,0,0,1,5.1-.4" style="fill:#212020"/><path d="M76.8,14.2a20.79,20.79,0,0,0-4.1-2.6,8.91,8.91,0,0,0-3.5-.8c-3.4-.7-9.9,1.2-11.9,3.2-1.6,1.6-2.3,3.5-4.4,4.7-1.5.8-4.9,6.4-.5,4.2,1.2-.6,3-.5,3.5-1.1,1.7-1.9,2.2-4.4,4.1-6.4a9.07,9.07,0,0,0-2.2,3.5c0-.1.1-.3.1-.4a5.13,5.13,0,0,1,.9-2.4c2.5-3.3,6.9-4.7,10.9-4.3a18.11,18.11,0,0,1,6.9,2.6c0-.2.1-.1.2-.2" style="fill:#212020"/><path d="M68.6,40.3a.37.37,0,0,0,.1.3h0a2.48,2.48,0,0,0,.1.9v.2c-.1-.1-.3,0-.3.2a1.42,1.42,0,0,1-.2.6l-.4.4a2.79,2.79,0,0,1-1,.1c-.4,0-.3-.7-.3-1,0-1.1-.6-1.1-1.2-.9V41a1.19,1.19,0,0,0-.5-1.4c-.8-.6-.7-2-1.4-2.6a3.59,3.59,0,0,0-1.5-.9c-.2,0-.4-.4-.7-.4h-.6a24.35,24.35,0,0,0-6.5.4c-.7.2-1.5.8-1.6,1.3a3.88,3.88,0,0,0,0,2.4c0,.1.3.5,1,.4a3.13,3.13,0,0,0,1.1-.9c.1-.1.2.1.3.2a6.19,6.19,0,0,0,1.9.7c.4.1.9,0,1.3.1.7.1.9.5.8.6h-.5a9.48,9.48,0,0,0-2.3.5c-.5.2-.6.6-.9.6a3.31,3.31,0,0,1-2.5-.7c-.1-.3-.5-.8-.7-1.3a6.26,6.26,0,0,1-.4-1.4,5.57,5.57,0,0,0-.8-1.5,3.69,3.69,0,0,0-1.7-.5.84.84,0,0,0-.7.2v.1a2.18,2.18,0,0,1-.4-.5c.1,0,.2.1.4.1a2.2,2.2,0,0,0,1.8-1.3c.4-.8.6-1,.6-1.4,0-.8-.2-1.7,1.5-1.8.3,0,.9.2,1.4.2,1.4,0,2,.5,3.4,1.3.9.5,2.6.9,3.4,1.3.4.2.6.5,1,.6.1,0,.6.1,1,.1.7-.1,1.4-.3,1.3-.6a.1.1,0,0,0-.1-.1c.1,0,.2.1.3.1H64c-.1.1-.2.6-.4.7s-.6.2-.6.3.3.4.6.6c.6.4,1.4,1,2.5,1.7.9.6,2.3,1.3,2.5,2.1m-3-3.6c.1,0,.1.1.2.1C65.7,36.8,65.7,36.7,65.6,36.7Zm-.1-.1c0,.1.1.1,0,0C65.6,36.7,65.5,36.7,65.5,36.6Zm-1.1-1ZM51.3,30.3c.4-.2.8-.4,1.3-.6.4.1,1-.1,1.5,0A10.54,10.54,0,0,1,56.7,31a37.74,37.74,0,0,1,4.5,2.2,8.47,8.47,0,0,0,1.7,1,9.61,9.61,0,0,0-2.3-.5c-.4,0-.2-.6-.8-1-1-.5-2.3-1-2.9-1.4a7.88,7.88,0,0,0-3-1.1C52.9,30.1,52.4,30.4,51.3,30.3Z" style="fill:#2d2d2c"/><path d="M93,54.4c-.9,3.6-3.7,8.4-5.6,11.6-.4.7-.7,1.2-.6,1.7a18.33,18.33,0,0,0,1.8,2.4c1.2,1.7,3.1,3.6,4.5,4.1V54.4Zm-32.5-.2a24.57,24.57,0,0,1-2.8-2.8c-.7-.9-1-1.9-1.6-2.8-.4-.7-.7-.5-.9-1.3a5,5,0,0,1,.4-2.6c.2-.6,1.1-.9,2-1.4.7-.4.7-.8,1.6-1.1,1.6-.4,4.2-.5,5.3,0,1.1.3.3.5.3,1,0,1.5.6,2.7,0,4.2s-1.1,3.8-2,5.2c-.5.7-.7.6-.7,1.6C62.1,55.6,60.7,54.3,60.5,54.2Zm9,39a17.14,17.14,0,0,1,.5-7.1c.7-2.7,2.1-4.5,4.3-4.5,1,0,2.1.7,3.8,1.9.5.3.4.8.6,1.1.4.6.6.9,1,.9.7.1,1.8-1.2,1.8-3.7,0-1-.3-5.9-1.8-5.9-2.3,0-1.8,1.6-5.4,1.5-.7,0-.6-.7-1.2-1s-2.4-.8-3-1.4c-1.9-1.9-1.5-4.5,2.6-5.6.5-.1,3.2-.4,3.2-1.4a1.38,1.38,0,0,1,.4-.3c.4,0,1.7-1.1,1.8-1.2.7-.7,1.7-2.5,2.5-3.3h0v-.1c0-.1.1-.2.4-.3.5-.1,1.4-.2,1.3-.3s-.2-.2-.3-.2c-.5-.1-1.3.2-2.3.1-2.5-.2-5.9-.5-7.1-.1a1.64,1.64,0,0,1-1,.1c-.3-.1-.7-.1-1.1-.2s-.9-.1-1.2-.2h-.1v-.5c0-1.5,1.3-1.6,2.4-2.1a1.86,1.86,0,0,0,.9-1.5v-.2c-.1,0-.1,0-.2.1a1.85,1.85,0,0,1,.7-.2c.5,0,.7-.6,0-.7a4.23,4.23,0,0,1-2-.3c-.6-.3-.8-1.7-.8-2.4,0-.3-.3-9.3-.5-13,0-.3.3-2.8-.6-3.9a8.19,8.19,0,0,0-2.7-2.2c-.2-.1-.5-.2-.7-.3-.6-.4-4.8-2.7-4.9-2.8s-1.1-.6-1.3-.9a7.43,7.43,0,0,1-1.4-2.3,4.57,4.57,0,0,1,.2-2c.2-1,.6-2,.8-3,.3-1.7-.4-2.2.9-4.8a12,12,0,0,1,2.3-3.2,6.85,6.85,0,0,1,2.1-1c1-.4,1.8-.8,2.4-1.1a11,11,0,0,1,8.4.4,24.3,24.3,0,0,1,3.5,2c.3.2.4.4.7.6a12.49,12.49,0,0,1,1.2.8c2.2,1.8,4.5,3.8,6.6,4.4,1.8.5,4.7.5,5.9,1.8v69H69.5Z" style="fill:#fff"/><path d="M79.1,39.9h0m-1.1.5.1-.1a5.07,5.07,0,0,1,1.3-.2c-.2.4.6.7.5,1.2a10.53,10.53,0,0,0,1.2.1,1,1,0,0,1,.4.1,23.49,23.49,0,0,0,3.5.4,7.37,7.37,0,0,0,1.4-.4,7,7,0,0,0,1-.8,5.5,5.5,0,0,0,.7-.9h0c-.2-.1-.6-.2-.5-.4-.1,0-.3.1-.4.1s-.5.1-.6-.1a.35.35,0,0,0,.1-.2c-.2.1-.3.2-.5.3a6.25,6.25,0,0,1-3.9,1,12.26,12.26,0,0,1-2.1-.4c-.1,0-.2-.1-.3-.1h0c-.2,0-.3-.1-.5-.1h-.2a3.22,3.22,0,0,0-.8.1c-.3.1-.6.2-.6.1s-.1-.3,0-.3l.2-.2a7.26,7.26,0,0,1,.9-.5,1.38,1.38,0,0,0,.4-.3,2.54,2.54,0,0,0-.7.2h0c-.2.1-.4.3-.6.4s-.5.3-.3.6C77.7,40.2,77.8,40.3,78,40.4Z" style="fill:#909191"/><path d="M79.3,40.1h.1a10.63,10.63,0,0,1,1.4.3,5,5,0,0,0,1.7.2c.3,0,.6.1.6-.2h-.7a12.26,12.26,0,0,1-2.1-.4c-.1,0-.2-.1-.3-.1h0c-.2,0-.3-.1-.5-.1h-.3c-.2.2,0,.3.1.3" style="fill:#e2e2e2"/><path d="M3.1,60.2A20,20,0,0,0,15.2,58c2.5-1.4,7.6-1.5,9.7-3.1,1.9-1.5-4.8,2.9-5.5,3.5-1.4,1.2-7.1,4.7-9,4.7-2.9,0-4.9-2.8-7.3-2.9" style="fill:#373737"/><path d="M22.2,62.7a8.61,8.61,0,0,0-3,2.7A13.15,13.15,0,0,0,18,68.9a5,5,0,0,0-.2,1.2c.1.6,1.1-2.4,1.3-2.6.8-1.7,1-2.4,2.7-3.3.7-.5,1.8-.8.4-1.5" style="fill:#373737"/><path d="M13.3,22.3c2.6,3.2,6.1,5,9.8,6.5,3.5,1.5,5.4,1.2,1.1,3-2.2.9-5.1.7-7.5.7s-3.5-.8-5.4-1.9c-1.3-.7,2.4.6,3.1.1.9-.6.5-1.3-.4-2-1.2-.8.7-.5,1.4.1a8.83,8.83,0,0,0,5.7,1.8c.1,0-1.1-.6-1.6-1-1.7-1.1,0-.5.3-1,.1-.2-4.3-2.4-4.8-3-1.2-1.3-1.9-1.9-1.7-3.3" style="fill:#373737"/><path d="M44.1,9.8c-2.2-1.7-2.9-4.1-6.2-4.1-2.4,0-6.5-.1-8.5,1.3-2.2,1.6-9.1-.9-9.1.1,0,2.1,4.3,7,5.4,8.7.4.6,3.8-1.7,5-1.8,4.3-.4,8-1.6,12.9-1.4,1.2.1,4.3,1.6,2.1-.4-.5-.4-2.3-1.6-1.6-2.4" style="fill:#373737"/><path d="M2.3,1.2c4.2.6,5.8,1.4,9.2,3.3a33.75,33.75,0,0,0,4.8,2.7c1.5.3,1.1,1.1,1.9,2.4.7,1,2.6,2.1.4,1.5-2.4-.6-5.1,0-7.6.3-3.9.4-5.4-1.2-6.5-4.6-.2-1.1-2.2-.9-2.2-2.5,0-.6.4-2.7,0-3.1" style="fill:#373737"/><path d="M71.6,58.3h0c0,.1-.1.2-.1.3h-.1c-.1,0-.2.1-.4.1a1.27,1.27,0,0,0-.6.1c-.1.1-.2.3-.3.4a1.61,1.61,0,0,1-.7.4,13.39,13.39,0,0,0-1.2.6,4.62,4.62,0,0,1-1,.7c-.2.1-.4.3-.6.3a1.15,1.15,0,0,1-.9-.7c-.2-.3.3-.7.3-.8a2.79,2.79,0,0,0-.3-.7c-.2-.5-.7-.9-.8-1.5a7.85,7.85,0,0,1-.1-3.4,14.62,14.62,0,0,1,.5-2c.2-.7.6-1.3.8-2,.4-1,.7-2.1,1.1-3s.7.7.9,2c.1.6.4,1.1.4,1.3a10.75,10.75,0,0,0,.4,2.3v2.7a3.29,3.29,0,0,1,1,1.5h-.1a1.54,1.54,0,0,1,.6.4,1.38,1.38,0,0,1,.5.9v.1c.4.1.6.1.7,0" style="fill:#aeaeaf"/><path d="M43.5,13.8a34.06,34.06,0,0,0-11.8,1.8c-1.3.5-2.3,1.2-2.3.9a4.55,4.55,0,0,1,1.9-1.9,11.31,11.31,0,0,0,1.9-1.1c.2-.1-.1.5-.2-.5-.1-.7,1.1-1.1,1.3-1.5.6-.8-2,0-2.4,0-3,0,3.2-2.4,4-2.5,1.4-.1,2.1,0,3.4,0s-.7,1.8,1.8,2c.3,0,.9,1.2,2,1.7s.5,1.2.4,1.1" style="fill:#6c6d6c"/><path d="M40,16c1.8.2,3.5.7,5.2.3,1.2-.3,0,1,1.9,2.7.9.8-.5,1.7-2.2,2-1,.2-.9-.2-2.1-.2-1.9,0-4.9.4-5.4.4-2.8,0-5.5-1.9-7.8-3-.4-.2-.3-.1,0-.7s1.4-.4,1.6-.5,1.8.7,3.2,1.3c.8.3,1.3.5,2.1-.1.5-.4.7-.9.5-1.2s-.7-.4-.7-.6c-.1-.6.7-.8,3.7-.4" style="fill:#6c6d6c"/><path d="M39.2,22.7l2.1-.6.7.2c.5.2-.2.2-.9.4a8.66,8.66,0,0,0-1.2.5c-1.4.3-2.7.8-4.2,1-.4,0,1.1-.7,0-.7-1.3,0-.2-.7,1.1-.5a9.29,9.29,0,0,0,2.4-.3" style="fill:#6c6d6c"/><path d="M47.6,21.3a21.32,21.32,0,0,0-2.2,2.1c-.9.8-1.9,1.4-2.7,2.2-1.6,1.4-1.1.6-.1-.4a4.36,4.36,0,0,0,.9-1.1c.1-.2-.1-.3-.2-.4A.92.92,0,0,0,42,24a17.38,17.38,0,0,0-1.3,1.5,14.72,14.72,0,0,1-1,2.2c-.2.3-.5.5-.7.8-.5.7-.1.5.4.4s.8,0,.3.5a3.29,3.29,0,0,1-.6.6,13.07,13.07,0,0,0-1.2,1.1,4.34,4.34,0,0,0-1,1.6c-.1.2.2.3.5.1s.6-.8.9-.9c.8-.2.3.4.5.5s.5-.1.6-.2a3.38,3.38,0,0,0,1.2-1.9,10.93,10.93,0,0,1,.8-1.5,21.49,21.49,0,0,1,3.3-3.5c.5-.4.7-1.1,1.2-1.5s2-1.5,2.2-2.2c0-.2.2-.8-.1-.8-.1.2-.5.4-.4.5" style="fill:#6c6d6c"/><path d="M21.9,38c3.8,0,7.3.4,10.4-.6.8-.2.9-.7,1.6-1a19.23,19.23,0,0,0,2.5-1.2c1.6-1.3,3.8-1.9,5.4-3.4l4.5-4.4a3.74,3.74,0,0,1-.6,2.4c-2.2,3.4-8.4,7.6-10.9,8.3a25.88,25.88,0,0,1-5,.4,40.29,40.29,0,0,1-6,.1c-.9-.1-1.6-.2-1.9-.6" style="fill:#6c6d6c"/><path d="M35.5,41.6c1.2-.7,1.4-1.6,2.9-2.5a12.37,12.37,0,0,0,4.4-4.4c.9-1.3,2.1-2.8,2.7-2.7.3,0,.2.5.2,1.1a7.08,7.08,0,0,1,.1,1.4c-.1.5-.8,1.2-1.1,1.8-1.7,3.9-1.4,5.7-5,8.4a18.28,18.28,0,0,1-2.6,1.1s-.3-.5-.2-.7.2-.6.3-.8c.1-.5.2-.5-.2-.7-1.3-.6-1.9-.3-2.9-.4a4.24,4.24,0,0,1-2.2-.8c-1-.8-1.7-1.2-.9-1.1s1.5.6,2.3.7a2.49,2.49,0,0,0,2.2-.4" style="fill:#6c6d6c"/><path d="M75.9,2.6c0,4.5,4.5,9.5,7.7,12.2.6.5,3.1,2.2,4,1.7.4-.2-.8-.9-1-1.1-.5-.5-.3-3.1.6-3.1.5,0,1.3.4,1.8.2a26,26,0,0,0-1.9-2.2c-1.4-1.6-4-3.2-5-5A12.15,12.15,0,0,1,80.7,2c-.3-1.2-.1,1-.1,1.4,0,1.9-1.8,1.7-3.3.9-.5-.3-.7-1.8-1.4-1.7" style="fill:#6c6d6c"/><path d="M88.6,2.4a13.16,13.16,0,0,0,1.3,4.9c.2.5,2.6,5,3.1,3.9v-5c-1.1-.6-1.4-1.7-1.9-2.5s-1.6-4.9-1.6-1.5c0,.3.3,1.5-.1,1.4-.8,0-.4-1-.8-1.2" style="fill:#6c6d6c"/><path d="M42.6,13.8a33.59,33.59,0,0,0-7.1.8c-.2-.1-.3-.2-.2-.3s.6-.8.3-.9c-1.4-.5-2.1-.3-1-1.4,1.4-1.5.3-1.2-.9-.7-.6.1-1.5.3-1.7.3h-.3c.1-.2.4-.4,1.2-.9a9.45,9.45,0,0,1,5.8-1.1c.5.1.5-.5.6.4.2,1.2,1.4,1.2,2.1,1.9a5.16,5.16,0,0,1,1.2,1.9" style="fill:#c9caca"/><path d="M30.5,38.1a23.36,23.36,0,0,0,2.6-.4c.8-.2.3-.7,1-1.1a19.23,19.23,0,0,0,2.5-1.2c1.6-1.3,3.8-1.9,5.4-3.4l.3-.3c.7,0,.4.5.2.8-.6.7-2.5,1.9-3,2.4-.6.7-1.3,1-1.8,1.7a18.2,18.2,0,0,1-2.8,1.6,25.88,25.88,0,0,1-5,.4h-.7c0-.1.1-.1.2-.2s.8-.1,1.1-.3" style="fill:#c9caca"/><path d="M77.3,5.7c0-.6,1.1-.2,1.4,0,.9.6,1.1.6,2-.3s.5-.8,1.5.5c.1.2,2,2.1,1.5,2.1s-2.5-1.4-2.6-.6c-.1,1.1,1.2,2,2,2.6a17.1,17.1,0,0,1,2.3,1.3c.3.2-.1.5-.7.5a8.79,8.79,0,0,1-1.4-.2c-1.6-.4-2-.5-1.5,0s1.6,1.2,1.6,1.6c0,.2.5,1-.2.8-2-.4-6-6.5-5.9-8.3" style="fill:#c9caca"/><path d="M90.3,3.1a7.08,7.08,0,0,0,2.3,3.3,1.38,1.38,0,0,1,.4.3v4.1a.1.1,0,0,1-.1-.1c-.5-.7-1.7-1.3-2-2.1C90.5,7.5,89.6,6,89.7,5c0-.2.1-1.9.6-1.9" style="fill:#c9caca"/><path d="M34.3,42.5c.6,0,1.3-.1,1.8-.1.8,0,3.6-.5,3.4.4-.1.6-1.8,1-.1,1,1.9,0,2.5-1.6,3.4-2.9.3-.5,1-2.3.3-2.8-.5-.4-1.2-1.3-1.8-1a18.37,18.37,0,0,0-2.7,2.3,16.65,16.65,0,0,0-1.3,1.2,3.62,3.62,0,0,1-1.8,1c-.3.1-1.3.6-1.2.9" style="fill:#c9caca"/><path d="M44.8,25.3c.6-.8,1-1.7-.5-1A15.37,15.37,0,0,0,42.4,26c-.5.5-2,1.1-2.2,1.5s-.1,1.1-.2,1.6c-.1.3-1.8,2.2-1.4,2.2s.3.5.5.5c1.1,0,1.9-3.2,2.8-3.9.6-.6,2.8-1.6,2.9-2.6" style="fill:#c9caca"/><path d="M39.6,16.2c0,.5-1.4.4-.9.8,1.2.9-2.1.4-.2,1.4.3.2,1.6.8.6.9a5.76,5.76,0,0,0-1,.2,5.23,5.23,0,0,1-2.1-.1c-2.1-.5-4.8-1.5-4.3-1.2a20.42,20.42,0,0,0,4.1,1.9,9,9,0,0,0,2.9.5c1.5.4,4,.1,5.3.2,1.6.1,1.5-.3,2.8-1.1,0,0,.2-.2.1-.2-2.1-.2-.8-3.1-2.9-2.8a10.32,10.32,0,0,1-3-.4c-.3-.1-1.4-.3-1.4-.1" style="fill:#c9caca"/><path d="M71,69.2c-.2-.6-3.3.4-3.6.4-1.8.2-1.6,2.9-.9,4.6a4,4,0,0,0,1.8,1.7,3.07,3.07,0,0,1-1.2-2.1,4.68,4.68,0,0,1,.5-2.5,4,4,0,0,1,3-2.1H71" style="fill:#dedede"/><path d="M60.5,54.2a24.57,24.57,0,0,1-2.8-2.8c-.7-.9-1-1.9-1.6-2.8-.4-.7-.7-.5-.9-1.3a5,5,0,0,1,.4-2.6c.2-.6,1.1-.9,2-1.4.7-.4.7-.8,1.6-1.1,1.6-.4,4.2-.5,5.3,0,1.1.3.3.5.3,1,0,1.5.6,2.7,0,4.2s-1.1,3.8-2,5.2c-.5.7-.7.6-.7,1.6,0,1.4-1.4.1-1.6,0M66,42.7c.3-1.4-3.7-2-4.8-2-1.4,0-2.2,0-2.7.4-.2.2-.2.5-.5.7s-.7.4-1.1.7c-1.4.9-2.5.4-4.3.6s.4,6.1,1.3,7c1.6,1.7,2.1,4.3,3.9,5.5,1,.7,3.9,6.9,4.7,6.9a11.15,11.15,0,0,0,1.3-.3A1.49,1.49,0,0,0,65,61c.3-1.4-.7-3.8-.5-5.4a23.57,23.57,0,0,1,.6-4.7C65.9,47.8,66.5,44.6,66,42.7Z" style="fill:#ececec"/><path d="M64.8,43.8c-.3-.2-.6-.7-1.3-.8a22.59,22.59,0,0,0-5.2,0,2.14,2.14,0,0,1,1-.6c1.6-.4,4.2-.5,5.3,0,1.1.3.3.5.3,1a.6.6,0,0,0-.1.4" style="fill:#f7f7f7"/><path d="M62,54.7a45.63,45.63,0,0,0,2.1-5,8.45,8.45,0,0,0,.5-1.7,30,30,0,0,1-1.8,4.8c-.5.7-.7.6-.7,1.6a.37.37,0,0,1-.1.3M58.3,43c-1.2.1-2.3.3-2.6.8s-2.5,1.8-1.6,2.9c.6.7.4,2.5,1.4,3,1.2.6,1.7,3.9,3.3,4.2.9.2,1.8,1.3,2.9,1.3q.15,0,.3-.3c-.4.3-1.3-.6-1.4-.7a24.57,24.57,0,0,1-2.8-2.8c-.7-.9-1-1.9-1.6-2.8-.4-.7-.7-.5-.9-1.3a5,5,0,0,1,.4-2.6c.2-.6,1.1-.9,2-1.4A.71.71,0,0,0,58.3,43Zm6.6.9a.1.1,0,0,1-.1-.1c0,.3.1.7.1,1Z" style="fill:#f7f7f7"/><path d="M62.1,63.8a23.32,23.32,0,0,1,2.5-.6,28.31,28.31,0,0,1,3.6-.7,3.46,3.46,0,0,1,1.8.2,11.11,11.11,0,0,0,1.6.7c.7,0,1-.5,1.8-.7a8.78,8.78,0,0,1,2.8-.1l3.3.2c.6,0,1.2.1,1.2.3s-.1.2-.2.3a1.27,1.27,0,0,1-.7.4c-.6.2-1.5,0-2.3.2a12.47,12.47,0,0,1-1.8.4c-.4.1-1.9.4-2.7.6-.5.1-.7.4-1.2.4a7.08,7.08,0,0,1-1.4-.1,5.74,5.74,0,0,0-1.2-.1c-.3.1-.6.1-.6.2-.9.9.2,2.2,1.4,2.8a5.29,5.29,0,0,0,2.7.6c.1,0,.3,0,.1.1a4.64,4.64,0,0,1-1.4.2,8.6,8.6,0,0,1-3.5-.4,13.66,13.66,0,0,1-2.7-1.3,11.48,11.48,0,0,1-1.8-1.6,6.42,6.42,0,0,1-1.3-2" style="fill:#353534"/><path d="M72.7,65a2.39,2.39,0,0,1-.9.3,7.08,7.08,0,0,1-1.4-.1,5.74,5.74,0,0,0-1.2-.1c-.3.1-.6.1-.6.2-.9.9.2,2.2,1.4,2.8a5.29,5.29,0,0,0,2.7.6c.1,0,.3,0,.1.1a4.64,4.64,0,0,1-1.4.2,15.48,15.48,0,0,1-2.1-.1c-.5-.5-.4-1.1-.8-1.8a9.22,9.22,0,0,0-.5-.8c-.8-1.1.6-1.4,1.3-1.4l3.4.1h0" style="fill:#4f4f4e"/><path d="M70,62.8a5.23,5.23,0,0,0,1.6.6c.7,0,1.1-.6,1.8-.8a8.76,8.76,0,0,1,2.8,0l1.7.1a12.09,12.09,0,0,1-1.8.5,24.28,24.28,0,0,1-4,.5,3.67,3.67,0,0,1-2.1-.9" style="fill:#4f4f4e"/><path d="M71.4,66.8a.37.37,0,0,0,.3-.1,4.33,4.33,0,0,1,.5-.1h.2a.75.75,0,0,0,.5-.1.1.1,0,0,1,.1.1c0,.8-.1.9.8,1.2.7.3,1.8.2,1.6.3a.35.35,0,0,1-.2.1c-.7.2-1.4.4-1.8.5a.6.6,0,0,0-.4.1h-.2c.2-.1-.1-.1-.1-.1a4.18,4.18,0,0,1-2.7-.6c-1.2-.6-2.4-1.9-1.4-2.8a.85.85,0,0,1,.6-.2,5.74,5.74,0,0,1,1.2.1h.4c-.8.1-2,1-.8,1.6a1.72,1.72,0,0,0,.8.1,1.27,1.27,0,0,0,.6-.1" style="fill:#aeaeaf"/><path d="M71.9,68.5c.1,0,.2-.1.3-.2s.4-.1.4-.2c.1-.3-.1-.5-.4-.6s-1,.3-1,.6.4.4.7.4m1.1-2h0a6.15,6.15,0,0,1,1.3-.1h.5a5.07,5.07,0,0,0,1.3-.2c.9-.2,1.9-.5,1.7-.3a4.37,4.37,0,0,0-.6,1c-.3.3-1.1.7-1.2,1,0,0,0,.2-.1.2-.2.2-.5.3-.4.2s-.9-.1-1.6-.3c-.9-.4-.8-.5-.8-1.2C73.1,66.6,73.1,66.5,73,66.5Z" style="fill:#d8d8d8"/><path d="M69.6,58.2a2.39,2.39,0,0,1-.9-.3,4.78,4.78,0,0,0-1.1-.6c-.6-.2-1.4-.2-1.2-.5a5.38,5.38,0,0,1,1.9-.1,1.79,1.79,0,0,1,1.1.5c.4.5,0,.7.2,1h0"/><path d="M66.3,56.9c.5-1.2,3.7-.2,4.4.4a1.38,1.38,0,0,1,.5.9.27.27,0,0,1-.3.3c-.6,0-1.1.1-1.4-.5-.1-.2.3-.3-.1-.7a2.82,2.82,0,0,0-1.1-.5,5.58,5.58,0,0,0-2,.1Z" style="fill:#353534"/><path d="M70.1,56.9a2.66,2.66,0,0,0-2.6-2,2.61,2.61,0,0,0-1.7.7,1.37,1.37,0,0,0-.4,1.1c0,.1.4,0,.6-.1h.3c.6-.7,2.7-.2,3.8.3h0" style="fill:#898a89"/><path d="M69.2,62.3h0a5.27,5.27,0,0,0,1.2.3c.4.1.8.1,1.1.2a2.79,2.79,0,0,0,1-.1c1.2-.4,4.6-.2,7.1.1.9.1,1.7-.2,2.2-.1s.4.2.1.3a7.89,7.89,0,0,0-1.3.3c.1-.1.1-.1.1-.2s-.6-.2-1.2-.3l-1.6-.1-1.7-.1a13.09,13.09,0,0,0-2.8,0c-.8.2-1.1.9-1.8.8h0a7.54,7.54,0,0,1-1.3-.6,1.88,1.88,0,0,0-.8-.2c-.3-.2-.3-.3-.3-.3" style="fill:#ececec"/><path d="M62.2,64c.6.1,2.9,1,3.6,1.2.5.1.4.1.5.6.2.7.9.9,1.2,1.5a.59.59,0,0,1-.7.9c-1.5-.6-2.4-.9-4.6-4.2m8,1.1c-1.8-1.9-3.5-1.6-6-1a4.53,4.53,0,0,1-.8.1,5.9,5.9,0,0,0,1.4.2c.8.1,1.1.2,1.8.3a23.73,23.73,0,0,1,2.4.1C69.5,64.9,70.1,65.3,70.2,65.1Z" style="fill:#292929"/><path d="M69.6,58.2a.35.35,0,0,0,.2.1.35.35,0,0,1,.2.1c-.7.3-.9-.1-1.6-.3s-1.7,0-1.9-.2c-.5-.3-.8-.5-.9-1.1v-.1a1.49,1.49,0,0,0,.6-.1c.7-.1,0,.3.4.2-.2.3.6.3,1.2.5a3.19,3.19,0,0,1,1.1.6c.1.2.3.2.7.3" style="fill:#5e5e5d"/><path d="M69.1,54a1.53,1.53,0,0,0-.5-.7,1.89,1.89,0,0,0-1.5-.6c-.3,0-.7.5-.9.7-.3.5.1,1.2.6,1.6a.14.14,0,0,1,.2,0c.2,0,.3-.1.5-.1a2.54,2.54,0,0,1,1.6.5h0V54" style="fill:#d8d8d8"/><path d="M67.2,52.8c.6,0,.7.4.9.8.1.1.2.8-.1.9h-.8c-.5,0-.7,0-.8-.2-.2-.5.1-1.6.8-1.5" style="fill:#ececec"/><path d="M68.8,42.4c-.2,1-.1,2-1.2,1.6-.1,0,0,0-.4-.2-.1,0-.3.5-.6.4s-.4-1.3-.5-1.3-.1-.1-.2-.1c.5,1.9-.1,5.1-.9,8a23.57,23.57,0,0,0-.6,4.7c-.1,1.6.8,4.1.5,5.4a1.37,1.37,0,0,1-1.2,1.2,7.89,7.89,0,0,1-1.3.3c-.8,0-3.7-6.2-4.7-6.9-1.8-1.2-2.4-3.9-3.9-5.5-.9-.9-3.1-6.8-1.3-7s2.8.3,4.3-.6a7.17,7.17,0,0,0,1.1-.7c.2-.2.2-.6.5-.7-1.2.4-1.7,1.4-3.7,1.5a10.05,10.05,0,0,1-2.5-.4,1.29,1.29,0,0,0-1.2.4c-.4.4,0,2.6.8,4.7.6,1.6,1.6,3,1.6,3.3,0,.9,4,6.2,4.1,6.3s3.2,5.4,4,5.9a.85.85,0,0,0,.6.2,15.41,15.41,0,0,0,1.9-.2,20.08,20.08,0,0,1,2.4-.5c.3-.1.5-.1.6-.2.3-.1.3-.1.8,0h.3c.1-.2-.4-1.2,0-1.4,1.3-.8,3.6-1.7,3.5-1.8a1.44,1.44,0,0,0-.2-.3c-.1,0-.2.1-.4.1a1.27,1.27,0,0,0-.6.1c-.1.1-.2.3-.3.4a1.61,1.61,0,0,1-.7.4,13.39,13.39,0,0,0-1.2.6,4.62,4.62,0,0,1-1,.7c-.2.1-.4.3-.6.3a1.15,1.15,0,0,1-.9-.7c-.2-.3.3-.7.3-.8a2.79,2.79,0,0,0-.3-.7c-.2-.5-.7-.9-.8-1.5a7.85,7.85,0,0,1-.1-3.4,14.62,14.62,0,0,1,.5-2c.2-.7.6-1.3.8-2,.4-1,.7-2.1,1.1-3s.7.7.9,2c.1.6.4,1.1.4,1.3a10.75,10.75,0,0,0,.4,2.3,26.23,26.23,0,0,0-.1-2.7c.1-2.3.1-5.1,0-7.5" style="fill:#d8d8d8"/><path d="M75.8,68.2c.1,1-2.6,1.3-3.2,1.4-4.1,1.1-4.5,3.7-2.6,5.6.6.6,2.3,1,3,1.4s.5.9,1.2.8c4.2-.6,3.1-1.4,5.4-1.4,1.5,0,1.8,4.9,1.8,5.9,0,2.5-1.1,3.8-1.8,3.7a1.94,1.94,0,0,1-1-.9c-.2-.3-.1-.8-.6-1.1-1.7-1.2-2.8-1.9-3.8-1.9-2.2-.1-3.6,1.8-4.3,4.5a17.14,17.14,0,0,0-.5,7.1H63.5a31.09,31.09,0,0,1,1.3-8.1c1.2-3.5,3.3-6.6,5.9-7.7.4-.2-.3-.4-.7-.5s-.9-.4-1.3-.6a3.1,3.1,0,0,1-1.6-2.5,4.68,4.68,0,0,1,.5-2.5,4,4,0,0,1,3-2.1c.3-.1.7-.1,1.2-.2l1.5-.3a12.88,12.88,0,0,0,2.5-.6M93,54.4c-.9,3.6-3.7,8.4-5.6,11.6-.4.7-.7,1.2-.6,1.7a18.33,18.33,0,0,0,1.8,2.4c1.2,1.7,3.1,3.6,4.5,4.1V54.4ZM69.6,56.8Zm2.3,1.5h0Zm.3-.1h0ZM71,57a6,6,0,0,0,2,.3c.6,0,.4.6,0,.7a2.35,2.35,0,0,0-.8.2.35.35,0,0,0,.2-.1v.2c-.1.7-.3,1.3-.9,1.5-1.1.5-2.4.6-2.4,2.1,0,.6.1.6-.5.4a1.06,1.06,0,0,1-.5-.2.82.82,0,0,1-.5-.8c0-.4.7-1,1.4-1.2.5-.2,1.2-.6,1.6-.7a1.13,1.13,0,0,0,.9-1H71v-.1a1.38,1.38,0,0,0-.5-.9,5.92,5.92,0,0,0-.6-.4H70a4.37,4.37,0,0,0-1-1.5v-.7c0-.1,0-2.2-.1-4.8s-.2-5.4-.2-7.9a8.77,8.77,0,0,0-.3-3.1c-.5-1.1-2.6-1.9-3.5-2.6s-1-1.4-.9-1.6a10.37,10.37,0,0,0-1-.4,15.73,15.73,0,0,1-1.9-1.2A31.31,31.31,0,0,0,56.6,31,15.76,15.76,0,0,0,54,29.7c-.8-.2-1.5.3-1.9-.2s.1-1.7.1-2.3a7.32,7.32,0,0,1,.6-2.8,10.87,10.87,0,0,1,1.4-.5c2.3-1.3,3.1-3.3,3.5-5.5a5.13,5.13,0,0,1,.9-2.4c2.5-3.3,6.9-4.7,10.9-4.3a21,21,0,0,1,8.1,3.4c2.9,2.1,5.8,4.8,8.5,6.2a6.55,6.55,0,0,0,3.1.1,28.34,28.34,0,0,0,3.7-.9v3.8c-1.2-1.3-4.1-1.2-5.9-1.8-2.1-.6-4.4-2.7-6.6-4.4a12.49,12.49,0,0,0-1.2-.8c-.3-.2-.4-.5-.7-.6a31.22,31.22,0,0,0-3.5-2,11,11,0,0,0-8.4-.4c-.6.2-1.4.7-2.4,1.1a13.9,13.9,0,0,0-2.1,1,8.77,8.77,0,0,0-2.3,3.2c-1.4,2.6-.6,3.1-.9,4.8-.2.9-.5,2-.8,3a4.57,4.57,0,0,0-.2,2,6.45,6.45,0,0,0,1.4,2.3c.2.3,1.1.7,1.3.9s4.3,2.4,4.9,2.8a4.88,4.88,0,0,0,.7.3,9.34,9.34,0,0,1,2.7,2.2c.9,1.2.6,3.6.6,3.9.2,3.7.5,12.7.5,13C70.2,55.3,70.4,56.7,71,57Zm6.1-17.3c0,.1-.6-.4-.6-.4-.3-.1-.6-.7-.7-.8-.6-.7-.2-1.4.3-2.4.8-1.3,1.5-.9.7-2-1.4-2.1,8.3-4.8,9.3-5.3,1.4-.7,2.5-.3,3.8.1,2.5.8,1.2.8-.3.9-1.2.1-.6,1.8-2,2.1-2.6.6,3,1.1,3,2.8v.5c.6,1.5-.9,2.3-.9,3.7,0,1.2-4.1,3.8-5.4,3.8-.9,0-2.3.4-3.1.1a13.59,13.59,0,0,1-2.8-1.1c-.2-.2-.3-.1-.3-.2s1.1-.3,1.8-.3,1.1.1,1.7.1a23.49,23.49,0,0,0,3.5.4,7.37,7.37,0,0,0,1.4-.4,7,7,0,0,0,1-.8c1.1-.9,1-2.1,2-2.9a2.61,2.61,0,0,0,.6-1.8,1.52,1.52,0,0,0-1-1.3c-1-.5-3-.4-4.6-.2-3.1.3-6.3,1.6-7.4,3.6C76.4,39,77.2,39.1,77.1,39.7ZM70,66.8c-1.2-.6.2-1.6,1-1.6a3.33,3.33,0,0,0,1,0c.3-.1.5-.2.8-.3a14.16,14.16,0,0,1,2-.4,5.27,5.27,0,0,1,1.2-.3,12.86,12.86,0,0,0,1.9-.4c.6-.1,1.4,0,2-.1.2,0,.8-.4.6-.3-.8.9-1.8,2.6-2.5,3.3-.2.1-2.1,1.5-1.9,1,.1-.3.9-.6,1.2-1s.4-.8.6-1-1.2.2-2.1.4c-.3.1-1.8.1-3.2.2-.7.1-1.1.3-1.6.4A.92.92,0,0,1,70,66.8Z" style="fill:#f1f2f2"/><path d="M71.6,68.2l.1-.1c.1,0,.2,0,.2-.1s-.1-.2-.2-.3-.4.1-.4.3.2.2.3.2" style="fill:#ececec"/><path d="M93,54.4c-.9,3.6-3.7,8.4-5.6,11.6-.4.7-.7,1.2-.6,1.7a18.33,18.33,0,0,0,1.8,2.4c1.2,1.7,3.1,3.6,4.5,4.1V54.4Z" style="fill:#fbfbfb"/><path d="M80.8,77.6A47.9,47.9,0,0,0,72.1,79c-3.4,1-6.8,9.1-6.3,14.2h3.8a17.14,17.14,0,0,1,.5-7.1c.7-2.7,2.1-4.5,4.3-4.5,1,0,2.1.7,3.8,1.9.5.3.4.8.6,1.1.4.6.6.9,1,.9.7.1,1.8-1.2,1.8-3.7-.2-.5-.3-2.6-.8-4.2" style="fill:#f7f7f7"/><path d="M69.2,62.5s0-.2-.1-.2H69c-.1,0-.4-.1-.5-.1h0c-.2,0-.4-.1-.7-.1s-.6.1-.8.1L64,63c-.1,0-.6.2-1.1.3a1.45,1.45,0,0,1-.7.2l-.1.1a20.76,20.76,0,0,1,2.4-.6,28.31,28.31,0,0,1,3.6-.7,2.8,2.8,0,0,0,1.1.2" style="fill:#292929"/><path d="M68.7,62.3a3.93,3.93,0,0,0-.6-.2h-.3c-.2,0-.3-.1-.4,0-.3,0-.5.2-.9.2-.2,0-1.2.3-2.4.5a6.15,6.15,0,0,1-1.9.2c-.3,0-.5-.2-.6-.2-.8-.6-4-5.9-4-5.9s-4.2-5.5-4.1-6.3c0-.3-1-1.7-1.6-3.3-.8-2-1.2-4.3-.8-4.7a1.29,1.29,0,0,1,1.2-.4c.6.1,1.2.3,1.9.4h-.1a8,8,0,0,1-2.2-1.5,9.82,9.82,0,0,0-.8-1.8,2,2,0,0,0-1.4-.7c-.4-.1-.4,1.3-.2,2.3.1.4.2.7.2.7a13.87,13.87,0,0,0,.3,3.5,24.89,24.89,0,0,0,1,3.5c.3.8,2.8,4.7,3.3,5.7.4.8,1,1.7,1.4,2.5.9,1.6,2.1,2.8,3.2,4.6.7,1.1,2.5,4.1,3.9,5.2,0,0,.4-.2.3-.3a4.32,4.32,0,0,1-1.2-2.5c.3-.1.6-.3.9-.4a9.68,9.68,0,0,1,1.1-.3l3-.8a2,2,0,0,1,.8-.1,1.27,1.27,0,0,1,.6.1h.4" style="fill:#4f4f4e"/><path d="M63.9,34.7c-.1.1-.2.6-.4.7s-.6.2-.6.3.3.4.6.6c.6.4,1.4,1,2.5,1.7s2.7,1.7,2.7,2.5a2.48,2.48,0,0,0,.1.9,7.16,7.16,0,0,0-.3-2.6c-.5-1.1-2.6-1.9-3.5-2.6s-1-1.4-.9-1.6c0,.1-.1.1-.2.1m.7,6.6c.9-.3,2-.9,2,.6,0,.3,0,1,.3,1,.8.1,1.5-.1,1.6-1.1,0-.2.2-.4.3-.2v.7c-.2,1-.1,2-1.2,1.6a1.08,1.08,0,0,0-.8.2.14.14,0,0,1-.2,0c-.3-.2-.4-1.3-.5-1.3s-.1-.1-.2-.1h0C66.2,42.1,65.5,41.6,64.6,41.3Z" style="fill:#4f4f4e"/><path d="M69.1,69.1c-.2,0-.3-.1-.5-.2a1.42,1.42,0,0,1-.6-.2,6.12,6.12,0,0,1-1.2-.5.73.73,0,0,1-.2.6,1.49,1.49,0,0,1-.9.4c-.4,0-.8-.3-1-.1a1.63,1.63,0,0,0-.3,1.7c.2.8.7,1.6,1.3,3.2.1.1.4.7.8.9-.1-.1.6.4,1.3.7l1.2.6c-.2-.1-.4-.3-.6-.4a9,9,0,0,1-1.1-1,5.29,5.29,0,0,1-.8-1.4c-.3-1.3.1-3.3,1.2-3.9a19.77,19.77,0,0,1,2.2-.5,1.27,1.27,0,0,1-.6-.1c-.1.1-.2.1-.2.2" style="fill:#4f4f4e"/><path d="M66.2,74.7c-.4-1.4-1-3.3,0-4.6a4.69,4.69,0,0,0,1-1.6,8.16,8.16,0,0,1-1.9-1,11.48,11.48,0,0,1-1.8-1.6,9.13,9.13,0,0,1-1-1.3,1.23,1.23,0,0,1-.2-.5v-.3a.1.1,0,0,0-.1.1v.3a4.71,4.71,0,0,0,1.1,2.1c.1.1-.2.4-.3.3-1.4-1.1-3.2-4.1-3.9-5.2a48.78,48.78,0,0,1-3.2-4.6,21.75,21.75,0,0,1-1.4-2.5c-.5-1.1-3-5-3.3-5.7-.1-.3-.6-1.9-1-3.5s-.5-3.4-.3-3.5a1.38,1.38,0,0,1-.2-.7c-.1-.9-.2-2.4.2-2.3a1.83,1.83,0,0,1,1.4.7,9.82,9.82,0,0,1,.8,1.8,6.24,6.24,0,0,0,2,1.5c.1,0,.1,0,.2.1h.5c2-.2,2.6-1.2,3.7-1.5h0a2.81,2.81,0,0,1,1.5-.3c-.1,0-1.1-.1-1.4-.1a9.48,9.48,0,0,0-2.3.5c-.5.2-.6.6-.9.6a3.31,3.31,0,0,1-2.5-.7c-.1-.3-.5-.8-.7-1.3a6.26,6.26,0,0,1-.4-1.4A5.57,5.57,0,0,0,51,37a3.69,3.69,0,0,0-1.7-.5.84.84,0,0,0-.7.2,13.69,13.69,0,0,0,0,5.7c2,8.6,6.3,22.8,16.5,31.4.2.2.7.5,1.1.9" style="fill:#373737"/><path d="M49.5,46.7c.8,10.4,8.8,24.1,15.5,27,.1,0,.1.1.2.2s.1,0,.2.1c-3.5-4.6-6.8-8.8-9.3-13.3-2.3-4.1-4.3-9.6-6.6-14" style="fill:#252524"/><path d="M68.5,76.1h.1c.1.1.2.1.3.2a3.79,3.79,0,0,0,1.3.6c.4.2,1.1.3.7.5-2.6,1.1-4.7,4.2-5.9,7.7a27.28,27.28,0,0,0-1.3,8.1H62.4c0-1,.8-1.7.8-2.6,0-.4-.7-.6-1-1a2.09,2.09,0,0,1-.2-1.3c.1-1.4.9-2.5,1.4-3.9a19.55,19.55,0,0,1,5.6-8,1.33,1.33,0,0,0-.5-.3" style="fill:#373737"/><path d="M35.9,60.9A44.34,44.34,0,0,0,28.5,64,19.12,19.12,0,0,0,25,66.7c-.2.3-.4.7-.6,1-1,1.7-.2-.5.2-1.1a14.28,14.28,0,0,1,2.8-2.7c.7-.6.4-.9,1.8-1.3,2.5-.6,3.9-3.4,6.7-1.7" style="fill:#373737"/><path d="M36.4,48.1c-1.6,2-3.5,3.6-6,3.9a7.94,7.94,0,0,0-2.2.6,10.21,10.21,0,0,1,2.2-1.1,5.24,5.24,0,0,0,2.6-2,20.14,20.14,0,0,1,2.2-2.9c.8-.8.4-.1,1.1.2,1,.5.4.4.1,1.3" style="fill:#373737"/><path d="M77.7,39c0-.1.2-.4.2-.5s-.2-.3-.1-.5a2,2,0,0,1,.8-.8c.5-.5.7-.9,1.4-1.2a13.06,13.06,0,0,1,2.1-.8,11.14,11.14,0,0,1,3-.8,4,4,0,0,1,2.2.2,2.13,2.13,0,0,1,1,.9,2.13,2.13,0,0,1,0,.8c0,.1-.8-.8-1.6-.9h-1a5.31,5.31,0,0,0-1.4.1c-.5.1-.3.3-.3.3.2.2,1.2,0,1.4,0,.6,0,2.9.5,3.6,1.3.2.3.5.4.2.7s-.8.5-1,.4c-.5-.3-.5-.5-1.1-.7a6.28,6.28,0,0,0-1.9-.3c-.4,0-.5,0-.6.1s.2.5-.2,1.1A2.16,2.16,0,0,1,83,39c-1,0-1.4-.6-1.8-1.4a2.33,2.33,0,0,0-1.5.3A6.67,6.67,0,0,0,78.3,39a6,6,0,0,0-.8.8.48.48,0,0,1,0-.4,1.47,1.47,0,0,1,.2-.4" style="fill:#181717"/><path d="M84.1,35.7a5.63,5.63,0,0,0,1.3,0c.6,0,2.9.5,3.6,1.3.2.3.5.4.2.7s-.8.5-1,.4c-.5-.3-.5-.5-1.1-.7a6.28,6.28,0,0,0-1.9-.3h-.4c-.4-.2-.8-.4-1.1,0-.1.1,0,.4.1.5s.2,0,.4.2a2.19,2.19,0,0,1,.3.5h0A2.26,2.26,0,0,1,83,39c-.2,0-.3,0-.4-.1-.4-.2-.6-.6-.9-1,0-.1-.2-.1-.3,0s-.2-.1-.2-.1-.8.3-1.1,0,.6-1,.9-1.2a6.58,6.58,0,0,1,3.1-.9"/><path d="M83.8,37.1c.1-.1.1-.1.2-.1l.1.1-.1.1-.1.1c-.1,0-.1,0-.2-.1.1.1.1,0,.1-.1" style="fill:#4f4f4e"/><path d="M77.6,40.5h0c.1-.1.5-.1.5-.2a2.85,2.85,0,0,1,1.8-.1.85.85,0,0,1,.3.5c0,.1.1.2,0,.2-.3.2-1,0-1.4,0s-1.1-.1-1.2-.4" style="fill:#212020"/><path d="M79.9,40.2l1.7.3c.2,0-.1.1-.2.2a.6.6,0,0,0-.1.4c0,.1.1.2-.1.2s-.4-.1-.6-.1-.3,0-.4-.1h0c.1,0,.1-.1.2-.1s0-.1,0-.2c-.2-.2-.3-.4-.5-.6h0" style="fill:#30302f"/><path d="M81.6,40.6c.3,0,.7.1,1,.1H83c.1.2-.1.2-.2.2s-.8-.3-.7,0,.1.2-.1.4-.2.1-.4,0a.9.9,0,0,1-.5-.1c.2,0,.1-.1.1-.2a.6.6,0,0,1,.1-.4c.2.1.4,0,.3,0" style="fill:#4f4f4e"/><path d="M85.5,37.4a2.62,2.62,0,0,1-.9,1.8,2.27,2.27,0,0,1-3,.1,5.93,5.93,0,0,1-.8-.8.59.59,0,0,0-.6-.2,1.69,1.69,0,0,0-.7.6.78.78,0,0,1-.4.3c0,.1.1.2.1.4v.3a7.38,7.38,0,0,1,1.2.2c.8.2,1.7.3,2.1.4a6.45,6.45,0,0,0,3.9-1c.5-.4,1.3-.6,1-1.5-.1-.3-.5-.5-.9-.6s-.7-.3-1,0" style="fill:#fff"/><path d="M78,39.7l-.2.2c-.1.1,0,.3,0,.3s.3,0,.6-.1a2.81,2.81,0,0,1,.8-.1h0c-.1,0,0-.2,0-.3s-.1-.3-.1-.4.1-.1.2-.1.3-.3.2-.3-.3.2-.5.3a1.6,1.6,0,0,0-1,.5" style="fill:#ececec"/><path d="M79.3,39.1c.2,0,.5-.4.6-.5a1.08,1.08,0,0,1,.6-.1c.2,0,.3.2.5.2-.1-.1-.2-.2-.2-.3a.59.59,0,0,0-.6-.2,1.69,1.69,0,0,0-.7.6,1.24,1.24,0,0,1-.2.3h0" style="fill:#ececec"/><path d="M85.8,37.2a2.8,2.8,0,0,1,2.2.7c.2.2,0,.6-.2.7s-.2-.3-.3-.4-.2-.2-.3-.2v-.1c-.1-.3-.5-.5-.9-.6a2,2,0,0,0-.5-.1h0" style="fill:#ececec"/><path d="M77,39.6c0,.1.1.2.1.3a2.24,2.24,0,0,0,.8,1.5.37.37,0,0,0,.3.1h0c0-.2,1.1-.3,1.8-.3h0a.35.35,0,0,0,.1-.2c-.4.1-.7-.1-1-.1-.5,0-1.3-.2-1.4-.6h.2a.35.35,0,0,0,.2-.1c-.2,0-.3-.1-.3-.2-.2-.4.1-.5.3-.6s.4-.3.6-.4a.76.76,0,0,1-.4.1c-.1,0,0-.1-.1-.1l-.2.2c-.1,0-.3.3-.4.4v-.3c0-.1.1-.2.1-.3v-.2c0-.1.2-.4.2-.5s-.2-.2-.1-.4a2,2,0,0,1,.8-.8A7.47,7.47,0,0,1,79.9,36a16,16,0,0,1,2.3-1,12.77,12.77,0,0,1,2.9-.8,4,4,0,0,1,2.2.2,2.13,2.13,0,0,1,1,.9,2.13,2.13,0,0,1,0,.8h-.1v.3a5.58,5.58,0,0,1,.8.5c.2.3.5.4.2.7s-.8.5-1,.4h-.1c.1.2-.1.5-.2.7h0a2.07,2.07,0,0,1-.2.6c-.1.2.4.3.5.4a6.66,6.66,0,0,1,1.3-2.1,2.61,2.61,0,0,0,.6-1.8,1.52,1.52,0,0,0-1-1.3c-.1-.1-.2-.1-.4-.2-.4-.1-.9-.1-1.3-.2a15.64,15.64,0,0,0-3,.2c-3.1.3-6.3,1.6-7.4,3.6-.6,1.1.2,1.2,0,1.7h0" style="fill:#4f4f4e"/><path d="M82.1,39.6c-.1-.2-.3-.4-.3-.6s-.1-.4.2-.3a1.69,1.69,0,0,0,1,.3,1.58,1.58,0,0,0,1.3-.8.1.1,0,0,1,.1-.1c.2.1.3.6.2.9l-.1.1a2.39,2.39,0,0,1-2.3.5h-.1" style="fill:#4f4f4e"/><path d="M79.4,38.9s0-.1-.1,0a2.54,2.54,0,0,0-.7.2c-.2.1-.3.2-.5.2s0-.1-.1-.1a.35.35,0,0,1,.2-.1A11.38,11.38,0,0,1,79.6,38a5.64,5.64,0,0,1,1.2-.4.52.52,0,0,1,.4.2,2.18,2.18,0,0,0,.7.9v.1c-.2,0-.2.2-.2.3s.2.4.3.6h0a2.19,2.19,0,0,1-.5-.3,4.51,4.51,0,0,1-.7-.7h0v-.1c-.4-.7-1.2,0-1.4.3" style="fill:#30302f"/><path d="M77.7,33.5c.1,0,.2.3.3.3a7.89,7.89,0,0,0,1.3-.3,24.13,24.13,0,0,0,2.5-.8,19.42,19.42,0,0,0,2.4-1.1,12.93,12.93,0,0,1,2-.9c.7-.3,1.4-.7,2-.9,0,0,.3-.1.7-.2s.7.1.9,0,0-.3-.4-.4a4.33,4.33,0,0,0-2.8.2c-1.1.4-2.2.9-3.5,1.4-.9.3-2.3.8-3.3,1.1-.1,0-.6.3-.9.4-.5.2-.9.4-1,.8-.1.1-.3.3-.2.4" style="fill:#30302f"/><path d="M77.7,33.3c0,.6.9.3,1.7.1,0-.4-.7-.1-.7-.6,0-.3,0-.2.1-.4-.2,0-.3.1-.5.2s-.2.7-.6.7M85.4,31c.1,0,.1-.1.2-.1a6.77,6.77,0,0,1,4.2-1.3c2.1,0-1.1-.6-1.8-.6-1.1,0-2.9,1-4.3,1.6a4.23,4.23,0,0,1,1.6.2C85.2,30.9,85.3,30.9,85.4,31Z" style="fill:#6a6a69"/><path d="M82.7,40.5a7.45,7.45,0,0,0,3.1-.7v.1c.1.4.6.3.9.3s-.3.4-.5.5a1.08,1.08,0,0,1-1.1,0c-.7-.3-1,.3-1.7.2-.1,0-.4-.3-.7-.4" style="fill:#e2e2e2"/><path d="M86.8,39.2c-.1.1-.2.2-.1.2.1.2.4.1.6.1s.3-.1.4-.1h0c.1-.2.3-.5.2-.6s0,.1-.1,0a1.42,1.42,0,0,1-.2-.4c-.1-.1-.2-.2-.3-.2.2.5-.1.7-.5,1" style="fill:#e2e2e2"/><path d="M88.3,36.2h0a.37.37,0,0,1-.1.3,8.51,8.51,0,0,0-2.9-.8,6.55,6.55,0,0,1-1.4,0s-.6,0-.6-.1.6-.2.8-.3a5.31,5.31,0,0,1,1.4-.1h1a3.75,3.75,0,0,1,1.8,1" style="fill:#7e7e7e"/><path d="M84.4,38.1h0a1.21,1.21,0,0,0,.1-1,.35.35,0,0,1,.2-.1h1.2a2.92,2.92,0,0,1,.9.2h-.2c-.3,0-.6-.1-.8-.1s-.4.1-.4.2a3,3,0,0,1-.8,1.7,1,1,0,0,0-.2-.9" style="fill:#323231"/><path d="M54.9,32.6a2.16,2.16,0,0,0-2.8.4,1.18,1.18,0,0,0,.4,1.6,2,2,0,0,0,1.6.7l3.1-.1,2.6.1a5.33,5.33,0,0,1,3.6,1.5c.4.3,2.2,1.8,3.6,2.7.2.2.9.4,1.1,1.1a2,2,0,0,1-.4,1.7.44.44,0,0,1-.6,0c-.2-.1-.3-.8-.5-1.1A.73.73,0,0,0,66,41c.3.1.5.3.5,1,0,.3,0,1,.3,1,.8.1,1.5-.1,1.6-1.1,0-.2.2-.3.3-.2v-.2a2.48,2.48,0,0,1-.1-.9c0-.9-1.5-1.7-2.7-2.5s-1.8-1.3-2.5-1.7c-.2-.2-.6-.4-.6-.6s.4-.2.6-.3.3-.6.4-.7h0c-.2-.1-.5-.2-.7-.3a15.73,15.73,0,0,1-1.9-1.2,21.34,21.34,0,0,0-4-2c.5,1,1.2,2.2.5,2.4a11.8,11.8,0,0,1-1.9-.6c-.6-.3-.8-.5-.9-.5" style="fill:#373737"/><path d="M56.7,21.6a9,9,0,0,1-.8,1.9c-.8,1.1-2.3,1-2.8,1.5-.8.8-.8,1.8-.6,3.8a2.35,2.35,0,0,0,.5,1h-.1a3.09,3.09,0,0,1-.8.2c-.3.1-.7.5-1.1.2a5.28,5.28,0,0,1-1.1-2.4,9.75,9.75,0,0,1,.6-1.4c.5-.9,1.4-1.7,4-2.5a6.89,6.89,0,0,0,2.2-2.3m21.5-6.2a9.52,9.52,0,0,0-3.6-1.6c-4.8-.9-6.8-2-9.5-1.3a13.34,13.34,0,0,0-4.3,2.2,8.16,8.16,0,0,0-3,4.1c0-.1.1-.3.1-.4a5.13,5.13,0,0,1,.9-2.4c2.5-3.3,6.9-4.7,10.9-4.3a21,21,0,0,1,8.1,3.4A1.73,1.73,0,0,1,78.2,15.4Zm14.8,6a9.55,9.55,0,0,1-5,.2c-.2-.1-.4-.1-.6-.2.7,0,1.5-.1,2-.1a28.34,28.34,0,0,0,3.7-.9v1Z" style="fill:#808180"/><path d="M89.4,34.8c-.1-.3-.6-.5-1-.7-2.8-1-9.4.4-11.3,3a7.93,7.93,0,0,0-.4.9c-.1.6,0,1.1.1.9.2-.5.5-.9.7-1.3a6.06,6.06,0,0,1,2.8-2.2,16.64,16.64,0,0,1,5-1.2,24.37,24.37,0,0,1,2.7.1,5.78,5.78,0,0,1,1.4.5" style="fill:#a5a5a5"/><path d="M53.4,34.1a5,5,0,0,0,1.3.5,8.27,8.27,0,0,0,2.7.1c.2-.1-.5-.3-1-.5a14.63,14.63,0,0,0-2-1.1,1.08,1.08,0,0,0-1,0c-.1.2-.3.9,0,1" style="fill:#747474"/><path d="M55.7,38.3a.47.47,0,0,1,.5-.5c.1,0,.1.4.1.5a1,1,0,0,0,.4.9.1.1,0,0,1,.1.1c.1.1.6.3.6.4s-.1.1-.2.1-.3-.1-.4-.1c-.4-.3-1.1-1-1.1-1.4" style="fill:#747474"/><path d="M54,33.9c.2.1.3.2.5.2.6.1.7.1.6,0a1.08,1.08,0,0,0-.7-.6c-.1,0-.5-.2-.6-.1a.1.1,0,0,1-.1.1c.1.2.1.4.3.4" style="fill:#979797"/><path d="M41.4,37.7c-1.5,1.1-2.4,2.6-4.1,3.4-1.2.6-.4.5.3.2,1-.4,2.3-.3,3-1a7.91,7.91,0,0,1-.5,1c-.1.2-.5.3-.5.5,0,.8,1.1.6,1.5.2a3.45,3.45,0,0,0,1.4-2.7c0-.7-.2-1.5-1.1-1.6" style="fill:#ececec"/><path d="M50.1,26.6c0,.7.3,3.6,1,3.7,1.2.1,1.7-.2,2.7-.1a7.88,7.88,0,0,1,3,1.1c.6.4,1.9.9,2.9,1.4.6.3.4,1,.8,1,.6,0,3.1.6,3.2,1s-.6.6-1.3.6c-.4,0-.9-.1-1-.1-.4-.1-.6-.4-1-.6-.8-.4-2.5-.8-3.4-1.3-1.4-.8-2-1.3-3.3-1.3-.4,0-1.1-.3-1.4-.2-1.7.2-1.6,1-1.5,1.8,0,.5-.2.6-.6,1.4a2.25,2.25,0,0,1-1.8,1.3c-2.5.1-.4-9.6,1.7-9.7"/><path d="M61.2,35.6c.1,0,.2.1.4.1s.3.3.5.3a8.14,8.14,0,0,1,1.5.9c.6.5.6,1.6,1.1,2.3-.1,0,.5.5.8.8s.1,1.1,0,1-.3-.4-.4-.5c-.2-.3-.4-.5-.6-.8a7.61,7.61,0,0,1-.7-.9c-.3-.5-.8-.5-1.2-1-.2-.3.3-.2.5-.3s.1-.2,0-.3a6,6,0,0,0-4.2-1.6h2.3" style="fill:#212020"/><path d="M54.8,39.1c-.2-.3-.5-.6-.2-1.1s.6-.5,1-.7c.2-.1.3,0,.3,0a1.83,1.83,0,0,0-.4,2.2h.1c-.1-.1-.4-.2-.5-.3a.44.44,0,0,1-.3-.1" style="fill:#373737"/><path d="M60.2,40.7h0c.1-.1.1-.1-.1-.2s-.3-.1-.4-.1a.6.6,0,0,1-.1-.4.4.4,0,0,1,.2-.4.35.35,0,0,0,.2-.1h.1a3980657295328.59,3980657295328.59,0,0,0,.2-.2h0c.1-.1.2-.3.3-.4s.3-.4.4-.4c.1-.2.6,0,.7-.1.1.1.2.1.4.2s.8.7.8,1c0,.1,0,.2-.1.2a.35.35,0,0,1-.2.1c-.2.2-.6.4-.4.5a2.12,2.12,0,0,0,.7.3h0a11.2,11.2,0,0,0-2.2-.3c.1.3-.2.3-.5.3" style="fill:#fff"/><path d="M60.2,40.7h0c.1-.1.1-.1-.1-.2s-.3-.1-.4-.1l-.1-.1a11.48,11.48,0,0,0,1.9.1h.7s-.1.1,0,.1a2.12,2.12,0,0,0,.7.3h0a11.2,11.2,0,0,0-2.2-.3c.1.2-.2.2-.5.2" style="fill:#f7f7f7"/><path d="M58.2,38.8h0q.3-.15.3,0V39c0,.1-.2.1-.3,0l-.1-.1a.1.1,0,0,0,.1-.1" style="fill:#747474"/><path d="M63,39.5l.3.3c.1.1.2.1.3.2.3.2.2.3,0,.3H62.4c.1-.1.2-.2.3-.2a.31.31,0,0,1,.2-.1c.1-.1.1-.1.1-.2v-.3" style="fill:#353534"/><path d="M54,39.6a.86.86,0,0,0,.6.7,1.42,1.42,0,0,0,.6.2c.1.2-.9,0-1.1-.1s-.6-.1-.8-.3c0-.1-.4-.2-.3-.3a2.07,2.07,0,0,1,.6-.2c.1.1.4.1.4,0"/><path d="M58.7,72.2c.5,1.1,3.5,2.9,4.5,3.5.8.5.8,1,.3,1.6-.8,1-3,3.4-3.4,4.8-.1.5,0-1.7-.3-4-.4-2.5-.8-4.5-1.1-5.9" style="fill:#212020"/><path d="M34.9,37.3c-.3.2-3,.7-1.2.7a7.66,7.66,0,0,0,3.2-1.4,5.84,5.84,0,0,0,1.4-1.3c.1-.1.4-.4.4-.6s-3.1,2.2-3.8,2.6" style="fill:#ececec"/><path d="M44.2,25.2a8.06,8.06,0,0,1-1.4,1.2c-1.2.5-1.6.7-2.1,1.9-.1.3-.2.5-.3.8-.4,1,.7-.8.8-1,.6-1.4,3-1.2,3-2.9" style="fill:#ececec"/><path d="M41.2,17a7.41,7.41,0,0,1,2.1.1c.6.2,1.1-.2.6.3a3.08,3.08,0,0,1-1,.1c-.2,0,2,.4.9.4-.9,0-.4.7.1,1a3,3,0,0,0,.8.4c.3.1.6.1,1,.2.2,0-.5.4-.7.4-1.5,0-3,.1-4.5.1H39a6.39,6.39,0,0,1-2-.2,14.23,14.23,0,0,1,1.5-.1,5.55,5.55,0,0,0,2.2-.6c.1-.1-.8-.7-.9-.9s1.8.4,1.4-.4a1.56,1.56,0,0,0-.8-.6c-.4-.2.7-.1.8-.2" style="fill:#ececec"/><path d="M35.1,10.4a10.14,10.14,0,0,1,2.5-.2c.2,0,1,.1.9.3s-.3.1-.3.2.8.2,1,.3a3.33,3.33,0,0,1,.6.3c.1.1-1.2.1-1.3.1a6.44,6.44,0,0,1,1.9.8c.3.2,1.1.7.3.6a4.41,4.41,0,0,0-3,.2,6.87,6.87,0,0,1-1.3.6c-.1-.5,2.1-.9,1.7-1.1a8.09,8.09,0,0,0-2.2,0c-1.9-.1,1.1-.9,1.1-1.2s-1.6-1.1-1.9-.9" style="fill:#ececec"/><path d="M45.7,47c.9,3.7-5.8,8.8-8.4,10.5-3,2.1-6.7,1-9.8,2.2-.7.3-2.1,2.4-1.3,0,.5-1.5,3.9-3.3,5.5-3.7,2.9-.6,6.6-4,8.5-5.9.4-.3,5.3-7.7,5.5-3.1" style="fill:#373737"/><path d="M43.3,48.4c.1.5-.1.7-.3,1.2-.1.3,1.4-1.3,2-1.6.4-.2-.1.9-.2,1.1a29.28,29.28,0,0,1-3.2,3.8,27,27,0,0,1-4.5,3.4c-2.2,1.5-5,.8-7.3,1.7-.6.2-1.6,1.8-1,0,.4-1.1,3.4-1.6,4.6-1.8,2.2-.4,4.9-3,6.4-4.4a22.92,22.92,0,0,0,1.8-2.4c.8-1.6,1.6-3,1.7-1" style="fill:#808180"/><path d="M42.8,49.8c-.1.3,1.6-1,1.4-.6-1.4,2.1-6.1,5.9-7.5,6.8-1.6,1.1-3.5,1-5.3,1.2.6-.7,2.6-1,3.5-1.2,1.7-.3,3.9-2.4,5-3.5a17.34,17.34,0,0,0,1.5-1.9c.7-1.1,1.3-2.2,1.4-.8" style="fill:#b4b5b5"/><path d="M56.9,16.4a5.82,5.82,0,0,1-1.7,3.8c-.7.7-.7,1.2-1.8,1.2-1.3,0-.5-.3-.1-.6.8-.8,2.1-.8,2.4-2a11.73,11.73,0,0,1,.5-1.1c.1-.1.1-.3.2-.5a1.46,1.46,0,0,1,.5-.8" style="fill:#4f4f4e"/><path d="M57.2,17.8a5.92,5.92,0,0,1-1.3,3.3,2.79,2.79,0,0,1-2.2,1.1c-.2,0-.4-.1-.4-.2s.3,0,.6-.2a3.81,3.81,0,0,0,1-.3,2.63,2.63,0,0,0,1-1.4,11.73,11.73,0,0,1,.5-1.1c.1-.1.1-.3.2-.5.3-.1.2-.4.6-.7" style="fill:#4f4f4e"/><path d="M84.6,37.1c.1-.1.1-.1.2-.1l.4.1-.1.3-.4.1c-.1,0,0-.3,0-.3s-.1,0-.1-.1" style="fill:#4f4f4e"/><path d="M83.9,37.2l.1-.1h.1v.1h-.2" style="fill:#aeaeaf"/><path d="M84.1,35.5a.9.9,0,0,1,.5-.1h.3c.1,0,0,.1.1.1s-.1.1-.1.1h-.5c-.2,0-.3.1-.3-.1" style="fill:#d8d8d8"/><path d="M86.2,35.4a1.09,1.09,0,0,1,.5.1c.1,0,.3.1.4.1s.3.2.4.3-.3,0-.4,0a.75.75,0,0,0-.5-.1l-.4-.1v-.3" style="fill:#d8d8d8"/><path d="M56.3.4C52.2.9,50,1.9,48.1,4.1s-5.7-1.3-8.7-1.7c-.5-.1-3.1-.1-3.1-.6C36.4.7,46.1.7,47.9.7c2.7.1,5.4-.3,8.4-.3" style="fill:#30302f"/><path d="M72.5,57.8a2.39,2.39,0,0,0,.9-.3,4.78,4.78,0,0,1,1.1-.6c.6-.2,1.4-.2,1.2-.5a5.38,5.38,0,0,0-1.9-.1,1.79,1.79,0,0,0-1.1.5c-.3.6,0,.7-.2,1h0" style="fill:#f1f2f2"/><path d="M69.4,66.3c-.3.9,1.9,1.3,2.9,1.3a13.86,13.86,0,0,0,3-.3c.7-.2,1.7-1.2,2.4-1.5s.1-.3-.6-.3c-1.5,0-3.3.8-4.9.8-.3.1-2.7-.2-2.8,0" style="fill:#ececec"/><path d="M73.5,65c-.7.7-2.3.2-3.3.6-.6.2-.7.5-.5.6.6,0,2.3.1,2.6.1,1.6,0,3.4-.8,4.9-.8h.5c1.2-1.1-3.5-.7-4.2-.5" style="fill:#fff"/><path d="M45.3,59.2c-5.4,0-8.1,9.8-12.6,11-2,.5-5.1-.2-6.7,1.4-3.6,3.5-9.5,2.9-14.4,4.6-2.1.7-7,.5-1.1.8a8.25,8.25,0,0,1,4,1.7c1.8-.2,5.3.2,7.1-.6,2.1-.9,4.2-.4,6.3-1.1,4-1.5,8-4.3,12.4-6.3,2.3-1,5.8-7.2,6.9-4.5.2.5-.8,2.6-.8,3.8,0,1-4.1,6.1-9.7,9-4.7,2.4-14.6,5.3-15.4,7.7.4-.1,4.1-.5,4.6-.7,1.8-.9,1.5,1.8,2.7,2.5C31,89.9,48.1,75.7,48.1,72.1c.1-7.1-2-4-2.8-12.9" style="fill:#212020"/><path d="M16.7,76.2c1.9-1.6,6.9-.7,8.6-2.1,1.5-1.2,3.5-1.3,5.1-1.9s2.8-2.2,4.2-2.8a34.26,34.26,0,0,1,4.8-1.9,5.82,5.82,0,0,0,2.7-2.1,20.14,20.14,0,0,1-5,5.2c-1.5.9-3.7.4-5.2,1.3-1,.6-2.6,1-3.4,1.8-1.8,1.5-2,2.1-4.2,2.9s-6.5-.2-7.6-.4" style="fill:#373737"/><path d="M47.9,71.2c.1.9.4,2.4-.1,3.2a8.62,8.62,0,0,1-1.4,1.8c-.5.3-1,1-1.7,1.4A15.86,15.86,0,0,1,42,79.4c-.4.2-.6.4-.2-.4a12.64,12.64,0,0,1,3.1-3.8,34.69,34.69,0,0,0,3-4" style="fill:#373737"/><path d="M37.7,80.7c.7,1,.9,3.4-.7,3.5-.9.1-3.6,1.9-4.5,1.9-.6,0-3.2-.9-3.8-1s4-2.7,4.3-2.8c.6-.2,1.4-.4,2.1-.6.4-.1.9,0,1.3-.1.8-.1.5-.7,1.3-.9" style="fill:#373737"/><path d="M37.2,83.1a.91.91,0,0,1-.8,1.2c-.6.1-1.1.6-1.7.6a1.69,1.69,0,0,1-.5-.2c.2-.1.5-.2.7-.3a10.46,10.46,0,0,0,2.3-1.3m-.4-.9.3.6h0a4.88,4.88,0,0,0-.7.3,9.86,9.86,0,0,1-2.4.5c-1.1.2-2.2.5-3,.7.5-.8,3-1.3,4.1-1.6.3-.1.6,0,.9-.1C36.5,82.6,36.3,82.3,36.8,82.2Z" style="fill:#565655"/><path d="M42.9,78.3a20,20,0,0,1,1.4-1.6c.7-.9,2.1-1.3,2.8-2.2.2-.3.8-2.4.7-1.1a6.92,6.92,0,0,1-2.1,3.3,18.65,18.65,0,0,1-2.8,1.6" style="fill:#565655"/><path d="M44,83.4c.6-.3,2.9-2.2,2.5-.8-.8,2.4-2,3.2-3.6,4.8a9.59,9.59,0,0,1-4.4,2.7,4.13,4.13,0,0,1-1.5.1c0-.8,2-2.2,2.5-2.8A16.38,16.38,0,0,1,42,85.3c.4-.3.8-2.6,2-1.9" style="fill:#212020"/><path d="M38.3,68.8c-.6.2-.8.6-1.2.9s-.6.2-1.1.4a2.92,2.92,0,0,1-.9.2,2.92,2.92,0,0,0-.9.2c-.3.1.1-.2.3-.2,1.5-.3,2.1-1.5,3.8-1.5" style="fill:#565655"/><path d="M26.6,74c-1.3.8-3.3,2.2-5.5,2H19.9c-.2,0,.5-.1.6-.1a11,11,0,0,0,1.8-.2A35.24,35.24,0,0,0,26.1,74Z" style="fill:#565655"/><path d="M44.7,57.6c-2.6,0-6.1,4.5-7,6.6-.3.8-.8,1.6-1.1,2.3-.4,1-.5,1,.7.5a7.32,7.32,0,0,0,2.6-1.7c1.2-1.5,2.7-4.6,4.5-5.8a9,9,0,0,1,.9-.5c.7-.5,1.3-.1.5-.9-.3-.1-1.1-.5-1.1-.5" style="fill:#373737"/><path d="M42.7,59.1c-.9,0-2.5,2.6-2.9,3.3a9.33,9.33,0,0,1-.7,1.5c-.4.6-.9,1.1-.9,1.3-.1.9.7,0,1.3-.9A7.91,7.91,0,0,0,40,63a8.72,8.72,0,0,1,2.1-2.5c.7-.4,2.5-1.4.6-1.4" style="fill:#808180"/><path d="M42.2,59.1c-.6,0-1.7,1.7-1.9,2.2a2.39,2.39,0,0,0-.3.9c0,.1-.1.1-.1.2-.2.9.4-.4.5-.7a5.56,5.56,0,0,1,1.4-1.6c.5-.3,1.7-1,.4-1" style="fill:#b4b5b5"/><line x1="93" x2="93" y2="93.2" style="fill:none;stroke:#fbfafa;stroke-miterlimit:22.925600051879883;stroke-width:0.2160000056028366px"/><line x1="93.1" y1="93.2" y2="93.2" style="fill:none;stroke:#fbfafa;stroke-miterlimit:22.925600051879883;stroke-width:0.2160000056028366px"/><path d="M62,3.2c-3,0-6.4.5-8.4,2.8-.9,1-1.2-.3-2,1.2-.5.9-3.1,5.2-.8,3.1.8-.7,1.1-2.3,1.6-2.7,1.4-1,3.3-2.9,5-3.4,1-.2,5.3-.8,4.6-1" style="fill:#212020"/><path d="M63.9,4.8c-2.3.4-3.9.1-5.5,1.7a4.19,4.19,0,0,0-.9,1.4c0,.1-.9,1-.5.8.7-.4.8-1.2,1.5-1.5,1-.4,1.7-1.7,3.1-1.2a2.69,2.69,0,0,0,1.5-.5c.4-.1,1.6-.7.8-.7" style="fill:#212020"/><path d="M26.1,48.9c-3,1.9-10.2-2.5-12.9-3.6-1.6-.7-2.9-1.7-4.5-2.6-.3-.2-3-.3-2.1-.6,3.3-1.3,8.2,1.2,10.7,2.7,1.4.8,3.8,1.5,4.9,2.3.5.5,3.9,1.1,3.9,1.8" style="fill:#212020"/><path d="M29.9,42.6c.1-.1.8,1.3,1.5,1.6s2.4.3,2.4.8c0,1.8-3.6,1.8-5,1.5-3-.5-5.6-3.4-8.3-4.5-.2-.1,2.1.6,2.7.6,1.1.1,2.3.1,3.4.1a11.61,11.61,0,0,0,3.3-.1" style="fill:#373737"/></svg>