<?xml version="1.0" encoding="utf-8"?>
<!-- Generator: Adobe Illustrator 23.0.1, SVG Export Plug-In . SVG Version: 6.00 Build 0)  -->
<svg version="1.1" id="Isolation_Mode" xmlns="http://www.w3.org/2000/svg" xmlns:xlink="http://www.w3.org/1999/xlink" x="0px"
	 y="0px" viewBox="0 0 499.4 93.2" style="enable-background:new 0 0 499.4 93.2;" xml:space="preserve">
<style type="text/css">
	.st0{fill-rule:evenodd;clip-rule:evenodd;}
	.st1{fill-rule:evenodd;clip-rule:evenodd;fill:#212020;}
	.st2{fill-rule:evenodd;clip-rule:evenodd;fill:#4F4F4E;}
	.st3{fill-rule:evenodd;clip-rule:evenodd;fill:#373737;}
	.st4{fill-rule:evenodd;clip-rule:evenodd;fill:#2D2D2C;}
	.st5{fill-rule:evenodd;clip-rule:evenodd;fill:#FFFFFF;}
	.st6{fill-rule:evenodd;clip-rule:evenodd;fill:#909191;}
	.st7{fill-rule:evenodd;clip-rule:evenodd;fill:#E2E2E2;}
	.st8{fill-rule:evenodd;clip-rule:evenodd;fill:#AEAEAF;}
	.st9{fill-rule:evenodd;clip-rule:evenodd;fill:#6C6D6C;}
	.st10{fill-rule:evenodd;clip-rule:evenodd;fill:#C9CACA;}
	.st11{fill-rule:evenodd;clip-rule:evenodd;fill:#DEDEDE;}
	.st12{fill-rule:evenodd;clip-rule:evenodd;fill:#ECECEC;}
	.st13{fill-rule:evenodd;clip-rule:evenodd;fill:#F7F7F7;}
	.st14{fill-rule:evenodd;clip-rule:evenodd;fill:#353534;}
	.st15{fill-rule:evenodd;clip-rule:evenodd;fill:#D8D8D8;}
	.st16{fill-rule:evenodd;clip-rule:evenodd;fill:#898A89;}
	.st17{fill-rule:evenodd;clip-rule:evenodd;fill:#292929;}
	.st18{fill-rule:evenodd;clip-rule:evenodd;fill:#5E5E5D;}
	.st19{fill-rule:evenodd;clip-rule:evenodd;fill:#F1F2F2;}
	.st20{fill-rule:evenodd;clip-rule:evenodd;fill:#FBFBFB;}
	.st21{fill-rule:evenodd;clip-rule:evenodd;fill:#252524;}
	.st22{fill-rule:evenodd;clip-rule:evenodd;fill:#181717;}
	.st23{fill-rule:evenodd;clip-rule:evenodd;fill:#30302F;}
	.st24{fill-rule:evenodd;clip-rule:evenodd;fill:#6A6A69;}
	.st25{fill-rule:evenodd;clip-rule:evenodd;fill:#7E7E7E;}
	.st26{fill-rule:evenodd;clip-rule:evenodd;fill:#323231;}
	.st27{fill-rule:evenodd;clip-rule:evenodd;fill:#808180;}
	.st28{fill-rule:evenodd;clip-rule:evenodd;fill:#A5A5A5;}
	.st29{fill-rule:evenodd;clip-rule:evenodd;fill:#747474;}
	.st30{fill-rule:evenodd;clip-rule:evenodd;fill:#979797;}
	.st31{fill-rule:evenodd;clip-rule:evenodd;fill:#B4B5B5;}
	.st32{fill-rule:evenodd;clip-rule:evenodd;fill:#565655;}
	.st33{fill:none;stroke:#FBFAFA;stroke-width:0.216;stroke-miterlimit:22.9256;}
	.st34{font-family:'OpenSans-Bold';}
	.st35{font-size:66.2136px;}
	.st36{letter-spacing:10.6;}
</style>
<g>
	<g>
		<path class="st0" d="M63.7,36.4c0.1,0,0.2,0.1,0.4,0.1c0.2,0.1,0.3,0.3,0.5,0.3c0.1,0,0.6,0.3,1.6,0.9c0.7,0.6,0.5,2,1.5,2.6
			c0.2,0.1,0.8,0.7,0.5,1.4v0.1c-0.3,0.1-0.6,0.2-0.8,0.3c-0.4-0.1-0.8-0.2-1.2-0.3c0.1-0.1-0.3-0.1-0.3-0.1c-0.2,0-0.6-0.2-0.7-0.3
			L65,41.3c0.1-0.1,0.6-0.5,0.7-0.5c0.5-0.3-0.4-1-0.7-1.2c-1.5-0.9-1.7,0.4-2.5,0.9c-0.4,0.3-0.4,0.8,0.1,0.9
			c0.3,0.1,0.4,0.2,0.3,0.3c-0.1,0-0.1,0-0.2,0c-0.1,0-0.5,0-0.9-0.1c0.1-0.1-0.2-0.5-0.8-0.6c-0.4,0-0.9,0-1.4-0.1
			c-0.8-0.2-1.4-0.4-2-0.8c-0.1-0.1-0.3-0.1-0.3,0c-0.2,0.4-0.7,0.9-1.1,0.9c-0.7,0.1-1-0.3-1-0.4c-0.2-0.5-0.2-1.5,0-2.4
			c0.1-0.6,0.9-1.1,1.7-1.3c1.1-0.4,4.4-0.4,6.8-0.4C63.5,36.4,63.6,36.4,63.7,36.4"/>
		<path class="st1" d="M68.2,41.3c0,0.1,0,0.3-0.1,0.4v0.1c-0.2,0.1-0.5,0.2-0.7,0.2c-0.1,0-0.1,0-0.2,0c-0.4-0.1-0.8-0.2-1.2-0.3
			c0.1-0.1-0.3-0.1-0.3-0.1c-0.1,0-0.3,0-0.4-0.1l0,0c0.5-0.1,2.2,0.4,2.5,0.2C67.9,41.6,67.6,41,68.2,41.3
			C68.1,41.2,68.2,41.3,68.2,41.3"/>
		<path class="st2" d="M62.8,40.2C62.9,40.2,62.9,40.1,62.8,40.2L62.8,40.2L62.8,40.2 M58.8,38c-1.1-0.2-1.7,1.6-1,2.3
			c0.5,0.3,0.9,0.4,1.7,0.5c0.4,0.1,0.9,0,1.2,0c0.6,0.1,0.8,0.3,0.9,0.5c0.3,0.1,0.6,0.1,1.1,0.1c0.1,0,0.1-0.1,0-0.2
			c-0.1,0-0.3-0.1-0.4-0.1c-0.1-0.1-0.1-0.3-0.1-0.4c0-0.1,0-0.3,0.2-0.4c0.1,0,0.2-0.1,0.2-0.1v-0.1c0-0.3-0.2-0.2-0.5-0.2
			c-0.3,0-0.5,0-0.7-0.1c-0.4,0-0.7-0.2-1-0.5l0,0c0,0,0,0-0.1,0s-0.2,0.1-0.3,0.1c-0.3,0.2,0.1,0.9-0.5,0.5
			C58.7,39.5,58.7,38.8,58.8,38C58.7,38,58.8,38,58.8,38z"/>
		<path class="st3" d="M58.7,38c0,0.7-0.1,1.5,0.6,1.9c0.6,0.4,0.2-0.3,0.5-0.5c0.1-0.1,0.4-0.1,0.3-0.2c0,0-0.1-0.1-0.1-0.2
			c0-0.1-0.1-0.2-0.1-0.2c-0.1-0.3-0.1-0.8-0.1-0.8C59.7,38.1,58.8,38,58.7,38 M61.2,39.8c0.8,0.3,1.6-0.3,1.7-1
			c0-0.2,0-0.3,0.5-0.3c0.2,0,0.5,0.1,0.6,0.2c0.2,0.1,0.4,0.4,0.3,0.4c-0.1,0.1-0.7-0.1-0.8,0.1c0,0.1-0.2,0.2-0.4,0.4
			c-0.2,0.3-0.4,0.6-0.5,0.6c0,0-0.1,0.1-0.1-0.1c0-0.3-0.2-0.2-0.5-0.2C61.6,40,61.4,40,61.2,39.8z"/>
		<path class="st0" d="M0,0.8h96.9v20.4c-0.6,0.2-2.2,0.7-3.9,0.9c-0.8,0.1-2.4,0.3-3.2-0.1c-2.8-1.4-5.8-4.1-8.9-6.2
			c-2.8-1.9-6.5-3.2-8.4-3.4c-4.2-0.4-8.7,1.1-11.3,4.3c-0.4,0.5-0.6,1-0.9,2.4c-0.4,2.3-1.2,4.3-3.6,5.5c-2.7,0.7-3.5,1.6-4.2,2.5
			c-0.4,0.7-0.7,1.5-1,3.6c-0.2,2-0.5,3.7-0.8,5.7c-0.4,2.5-0.7,4.2-0.1,6.6c2,8.6,6.5,22.8,17.1,31.4c1.1,0.9,2.8,1.9,4.2,2.6
			c-3.2,2.8-4.9,5.5-5.8,8c-0.5,1.4-1.4,2.6-1.5,3.9c0,0.3-0.1,1,0.2,1.3c0.3,0.4,1,0.6,1,1c0,0.9-0.8,1.7-0.8,2.6H0V0.8z"/>
		<path class="st1" d="M43.9,35.3c-5.4,8-11.9,5.5-20.2,5.5c-0.6,0-10.7-0.3-6.6,1.3c5.7,2.2,9.5,6.2,15.9,7
			c11,1.5,11.5-5.3,14.2-13.1C49.5,29.4,43.5,35.1,43.9,35.3"/>
		<path class="st1" d="M47.2,14.5c0.7,0.5,2,1.2,2.9,1.4c0.1,0-0.2,0.4-0.3,0.4c-1.4,0.8,0.7,0.5,0.7,1.4c0,2.5,7-2.1,3.4,0.7
			c-1.8,1.5-2.7,3.1-4.9,4.3c-2.4,1.3-7.4,8-10.6,6.9c-0.2-0.1-1.8-0.9-1.2-1.8c0.6-1.2,3.3-2.4,2.6-3c-0.8-0.7-3.5,0.8-5.3,0.9
			c-1.9,0-16.5-4.5-16.7-4.7c-1-1.1,4.8-2,9.5-3.3c2.2-0.6,4-1.4,5-2.1c2-1.3,8-0.2,9.6-0.7C43.6,14.4,45.5,14.2,47.2,14.5"/>
		<path class="st1" d="M80,15c-0.1-0.1-2.2-1.7-4.3-2.6c-1.8-0.8-3.5-0.8-3.6-0.8c-3.6-0.7-10.4,1.2-12.4,3.2
			c-1.7,1.6-2.4,3.5-4.6,4.7c-1.6,0.8-5.1,6.4-0.5,4.2c1.2-0.6,3.1-0.5,3.6-1.1c1.8-1.9,2.3-4.4,4.3-6.4c-1,0.9-1.8,2.2-2.3,3.5
			c0-0.1,0.1-0.3,0.1-0.4c0.3-1.4,0.5-1.9,0.9-2.4c2.6-3.3,7.2-4.7,11.3-4.3c1.7,0.1,4.6,1.1,7.2,2.6C79.8,15,79.9,15.1,80,15"/>
		<path class="st4" d="M71.4,41.1c0,0.1,0,0.2,0.1,0.3l0,0c0,0.2,0,0.8,0.1,0.9c0,0.1,0,0.1,0,0.2c-0.1-0.1-0.3,0-0.3,0.2
			s-0.1,0.4-0.2,0.6c-0.1,0.1-0.2,0.2-0.4,0.4c-0.2,0.1-0.6,0.1-1,0.1s-0.3-0.7-0.3-1c0-1.1-0.6-1.1-1.2-0.9v-0.1
			c0.3-0.7-0.3-1.3-0.5-1.4c-0.8-0.6-0.7-2-1.5-2.6c-0.8-0.7-1.5-0.9-1.6-0.9c-0.2,0-0.4-0.4-0.7-0.4c-0.2,0-0.4,0-0.6,0
			c-2.4-0.1-5.6,0-6.8,0.4c-0.7,0.2-1.6,0.8-1.7,1.3c-0.2,0.9-0.3,1.9,0,2.4c0,0.1,0.3,0.5,1,0.4c0.3-0.1,0.9-0.6,1.1-0.9
			c0.1-0.1,0.2,0.1,0.3,0.2c0.7,0.4,1.1,0.5,2,0.7c0.4,0.1,0.9,0,1.4,0.1c0.7,0.1,0.9,0.5,0.8,0.6c-0.2,0-0.4,0-0.5,0
			c-0.5,0-1.9,0.3-2.4,0.5c-0.5,0.2-0.6,0.6-0.9,0.6C56,42.9,55,42.2,55,42.1c-0.1-0.3-0.5-0.8-0.7-1.3c-0.3-0.7-0.4-1.4-0.4-1.4
			c-0.1-0.2-0.4-1.1-0.8-1.5c-0.5-0.4-1.2-0.4-1.8-0.5c-0.3,0-0.5,0-0.7,0.2v0.1c-0.1-0.1-0.3-0.3-0.4-0.5c0.1,0,0.2,0.1,0.4,0.1
			c0.8,0,1.5-0.6,1.9-1.3c0.4-0.8,0.6-1,0.6-1.4c0-0.8-0.2-1.7,1.6-1.8c0.3,0,0.9,0.2,1.5,0.2c1.5,0,2.1,0.5,3.5,1.3
			c0.9,0.5,2.7,0.9,3.5,1.3c0.4,0.2,0.6,0.5,1,0.6c0.1,0,0.6,0.1,1,0.1c0.7-0.1,1.5-0.3,1.4-0.6c0,0,0-0.1-0.1-0.1
			c0.1,0,0.2,0.1,0.3,0.1h-0.1c-0.1,0.1-0.2,0.6-0.4,0.7c-0.2,0.2-0.6,0.2-0.6,0.3c0,0.2,0.3,0.4,0.6,0.6c0.6,0.4,1.5,1,2.6,1.7
			C69.8,39.6,71.2,40.3,71.4,41.1 M68.3,37.5c0.1,0,0.1,0.1,0.2,0.1C68.4,37.6,68.4,37.5,68.3,37.5z M68.2,37.4
			C68.2,37.5,68.3,37.5,68.2,37.4C68.3,37.5,68.2,37.5,68.2,37.4z M67.1,36.4L67.1,36.4L67.1,36.4z M53.4,31.1
			c0.4-0.2,0.8-0.4,1.4-0.6c0.4,0.1,1-0.1,1.6,0c0.9,0.2,2,0.9,2.7,1.3c1.6,0.7,3.4,1.4,4.7,2.2c0.4,0.3,1,0.7,1.8,1
			c-0.8-0.3-2.1-0.5-2.4-0.5c-0.4,0-0.2-0.6-0.8-1c-1-0.5-2.4-1-3-1.4c-0.9-0.6-2.3-1-3.1-1.1C55.1,30.9,54.6,31.2,53.4,31.1z"/>
		<path class="st5" d="M96.8,55.2c-0.9,3.6-3.8,8.4-5.8,11.6c-0.4,0.7-0.7,1.2-0.6,1.7c0.2,0.6,1.1,1.4,1.9,2.4
			c1.2,1.7,3.2,3.6,4.7,4.1V55.2H96.8z M63,55c-0.8-0.7-2-1.7-2.9-2.8c-0.7-0.9-1-1.9-1.7-2.8c-0.4-0.7-0.7-0.5-0.9-1.3
			c-0.2-0.8,0.1-1.6,0.4-2.6c0.2-0.6,1.1-0.9,2.1-1.4c0.7-0.4,0.7-0.8,1.7-1.1c1.7-0.4,4.4-0.5,5.5,0c1.1,0.3,0.3,0.5,0.3,1
			c0,1.5,0.6,2.7,0,4.2c-0.7,1.6-1.1,3.8-2.1,5.2c-0.5,0.7-0.7,0.6-0.7,1.6C64.7,56.4,63.2,55.1,63,55z M72.4,94
			c-0.4-2.9,0-5.4,0.5-7.1c0.7-2.7,2.2-4.5,4.5-4.5c1,0,2.2,0.7,4,1.9c0.5,0.3,0.4,0.8,0.6,1.1c0.4,0.6,0.6,0.9,1,0.9
			c0.7,0.1,1.9-1.2,1.9-3.7c0-1-0.3-5.9-1.9-5.9c-2.4,0-1.9,1.6-5.6,1.5c-0.7,0-0.6-0.7-1.2-1c-0.8-0.4-2.6-0.8-3.2-1.4
			c-2-1.9-1.6-4.5,2.7-5.6c0.5-0.1,3.3-0.4,3.3-1.4c0.1-0.1,0.2-0.2,0.4-0.3c0.4,0,1.8-1.1,1.9-1.2c0.7-0.7,1.8-2.5,2.6-3.3l0,0
			v-0.1c0-0.1,0.1-0.2,0.4-0.3c0.5-0.1,1.5-0.2,1.4-0.3c-0.1-0.1-0.2-0.2-0.3-0.2C84.9,63,84,63.3,83,63.2c-2.6-0.2-6.1-0.5-7.4-0.1
			c-0.3,0.1-0.6,0.2-1,0.1c-0.3-0.1-0.7-0.1-1.1-0.2c-0.4-0.1-0.9-0.1-1.2-0.2h-0.1c0-0.1,0-0.2,0-0.5c0-1.5,1.4-1.6,2.5-2.1
			c0.6-0.3,0.8-0.9,0.9-1.5c0-0.1,0-0.1,0-0.2c-0.1,0-0.1,0-0.2,0.1c0.2-0.1,0.5-0.2,0.7-0.2c0.5,0,0.7-0.6,0-0.7
			c-0.7,0-1.6,0-2.1-0.3c-0.6-0.3-0.8-1.7-0.8-2.4c0-0.3-0.3-9.3-0.5-13c0-0.3,0.3-2.8-0.6-3.9c-0.7-0.9-1.8-1.7-2.8-2.2
			c-0.2-0.1-0.5-0.2-0.7-0.3c-0.6-0.4-5-2.7-5.1-2.8c-0.2-0.2-1.1-0.6-1.4-0.9c-0.6-0.8-1.4-1.7-1.5-2.3c-0.1-0.7,0-1.3,0.2-2
			c0.2-1,0.6-2,0.8-3c0.3-1.7-0.4-2.2,0.9-4.8c0.9-1.7,1.7-2.5,2.4-3.2c0.3-0.3,1.5-0.8,2.2-1c1-0.4,1.9-0.8,2.5-1.1
			c3.1-1.1,6-0.7,8.7,0.4c1.2,0.5,2.5,1.3,3.6,2c0.3,0.2,0.4,0.4,0.7,0.6c0.4,0.3,0.9,0.5,1.2,0.8c2.3,1.8,4.7,3.8,6.9,4.4
			c1.9,0.5,4.9,0.5,6.1,1.8v69H72.4V94z"/>
		<path class="st6" d="M82.4,40.7L82.4,40.7L82.4,40.7 M81.2,41.2L81.2,41.2c0.4-0.2,1-0.3,1.5-0.3c-0.2,0.4,0.6,0.7,0.5,1.2
			c0,0,0.7,0.1,1.2,0.1c0.2,0,0.4,0.1,0.4,0.1c1.4,0.1,2.5,0.5,3.6,0.4c0.4-0.1,1-0.2,1.5-0.4s0.6-0.5,1-0.8
			c0.3-0.3,0.5-0.6,0.7-0.9l0,0l0,0c-0.2-0.1-0.6-0.2-0.5-0.4c-0.1,0-0.3,0.1-0.4,0.1c-0.2,0-0.5,0.1-0.6-0.1c0,0,0.1-0.1,0.1-0.2
			c-0.2,0.1-0.3,0.2-0.5,0.3c-0.7,0.6-2.5,1.1-4.1,1c-0.4,0-1.4-0.2-2.2-0.4c-0.1,0-0.2-0.1-0.3-0.1l0,0l0,0l0,0l0,0l0,0l0,0l0,0
			l0,0l0,0l0,0l0,0l0,0l0,0l0,0l0,0l0,0l0,0l0,0l0,0l0,0l0,0l0,0c-0.2,0-0.3-0.1-0.5-0.1c-0.1,0-0.1,0-0.2,0c-0.1,0-0.4,0-0.8,0.1
			C81.3,40.9,81,41,81,40.9c0,0-0.1-0.3,0-0.3c0.1-0.1,0.2-0.2,0.2-0.2c0.2-0.2,0.6-0.3,0.9-0.5c0.2-0.1,0.3-0.2,0.4-0.3
			c-0.2,0-0.4,0.1-0.7,0.2l0,0c-0.2,0.1-0.4,0.3-0.6,0.4c-0.3,0.2-0.5,0.3-0.3,0.6C80.9,41,81,41.1,81.2,41.2z"/>
		<path class="st7" d="M82.6,40.9L82.6,40.9L82.6,40.9c0.6,0.1,1.4,0.2,1.6,0.3c0.6,0.2,1.1,0.2,1.8,0.2c0.3,0,0.6,0.1,0.6-0.2
			c-0.3,0-0.5,0-0.7,0c-0.4,0-1.4-0.2-2.2-0.4c-0.1,0-0.2-0.1-0.3-0.1l0,0l0,0l0,0l0,0l0,0l0,0l0,0l0,0l0,0l0,0l0,0l0,0l0,0l0,0l0,0
			l0,0l0,0l0,0l0,0l0,0l0,0l0,0c-0.2,0-0.3-0.1-0.5-0.1c-0.1,0-0.1,0-0.2,0h-0.1l0,0C82.3,40.8,82.5,40.9,82.6,40.9"/>
		<path class="st3" d="M3.2,61c4.2,0.7,9.2-0.4,12.6-2.2c2.6-1.4,7.9-1.5,10.1-3.1c2-1.5-5,2.9-5.7,3.5c-1.5,1.2-7.4,4.7-9.4,4.7
			C7.8,63.9,5.7,61.1,3.2,61"/>
		<path class="st3" d="M23.1,63.5c-0.8,0.2-2.7,2-3.1,2.7c-0.7,1.3-0.8,2-1.2,3.5c-0.1,0.3-0.2,0.9-0.2,1.2c0.1,0.6,1.1-2.4,1.4-2.6
			c0.8-1.7,1-2.4,2.8-3.3C23.4,64.5,24.6,64.2,23.1,63.5"/>
		<path class="st3" d="M13.8,23.1c2.7,3.2,6.4,5,10.2,6.5c3.6,1.5,5.6,1.2,1.1,3c-2.3,0.9-5.3,0.7-7.8,0.7c-2.6,0-3.6-0.8-5.6-1.9
			c-1.4-0.7,2.5,0.6,3.2,0.1c0.9-0.6,0.5-1.3-0.4-2c-1.2-0.8,0.7-0.5,1.5,0.1c1.1,1.1,4.3,2,5.9,1.8c0.1,0-1.1-0.6-1.7-1
			c-1.8-1.1,0-0.5,0.3-1c0.1-0.2-4.5-2.4-5-3C14.4,25.1,13.6,24.5,13.8,23.1"/>
		<path class="st3" d="M45.9,10.6c-2.3-1.7-3-4.1-6.5-4.1c-2.5,0-6.8-0.1-8.9,1.3C28.2,9.4,21,6.9,21,7.9c0,2.1,4.5,7,5.6,8.7
			c0.4,0.6,4-1.7,5.2-1.8c4.5-0.4,8.3-1.6,13.4-1.4c1.2,0.1,4.5,1.6,2.2-0.4C47.1,12.6,45.2,11.4,45.9,10.6"/>
		<path class="st3" d="M2.4,2c4.4,0.6,6,1.4,9.6,3.3C13.2,6,15.9,7.7,17,8c1.6,0.3,1.1,1.1,2,2.4c0.7,1,2.7,2.1,0.4,1.5
			c-2.5-0.6-5.3,0-7.9,0.3C7.4,12.6,5.9,11,4.7,7.6C4.5,6.5,2.4,6.7,2.4,5.1C2.4,4.5,2.8,2.4,2.4,2"/>
		<path class="st8" d="M74.6,59.1C74.6,59.2,74.6,59.2,74.6,59.1c0,0.1-0.1,0.2-0.1,0.3c0,0,0,0-0.1,0c-0.1,0-0.2,0.1-0.4,0.1
			c-0.2,0-0.4,0-0.6,0.1c-0.1,0.1-0.2,0.3-0.3,0.4c-0.2,0.2-0.4,0.3-0.7,0.4c-0.4,0.2-0.9,0.4-1.2,0.6c-0.4,0.3-0.7,0.6-1,0.7
			C70,61.8,69.8,62,69.6,62c-0.5,0-0.9-0.6-0.9-0.7C68.5,61,69,60.6,69,60.5c0,0,0-0.1-0.3-0.7c-0.2-0.5-0.7-0.9-0.8-1.5
			c-0.4-1.5-0.2-3-0.1-3.4c0.1-0.6,0.3-1.4,0.5-2c0.2-0.7,0.6-1.3,0.8-2c0.4-1,0.7-2.1,1.1-3c0.5-1,0.7,0.7,0.9,2
			c0.1,0.6,0.4,1.1,0.4,1.3c0.1,0.9,0.2,1.8,0.4,2.3c0,1.2,0,2,0,2c0,0.2,0,0.4,0,0.7c0.6,0.4,0.8,1.1,1,1.5c0,0,0,0-0.1,0l0,0
			c0.3,0.1,0.5,0.3,0.6,0.4c0.3,0.3,0.5,0.6,0.5,0.9v0.1C74.2,59.2,74.4,59.2,74.6,59.1"/>
		<path class="st9" d="M45.3,14.6c-4.2-0.2-9.6,0.8-12.3,1.8c-1.4,0.5-2.4,1.2-2.4,0.9c0-0.2,0.8-1.3,2-1.9c1.4-0.7,1.8-0.9,2-1.1
			c0.2-0.1-0.1,0.5-0.2-0.5c-0.1-0.7,1.1-1.1,1.4-1.5c0.6-0.8-2.1,0-2.5,0c-3.1,0,3.3-2.4,4.2-2.5c1.5-0.1,2.2,0,3.5,0
			c1.4,0-0.7,1.8,1.9,2c0.3,0,0.9,1.2,2.1,1.7C46,14.1,45.4,14.7,45.3,14.6"/>
		<path class="st9" d="M41.7,16.8c1.9,0.2,3.6,0.7,5.4,0.3c1.2-0.3,0,1,2,2.7c0.9,0.8-0.5,1.7-2.3,2c-1,0.2-0.9-0.2-2.2-0.2
			c-2,0-5.1,0.4-5.6,0.4c-2.9,0-5.7-1.9-8.1-3c-0.4-0.2-0.3-0.1,0-0.7c0.4-0.6,1.5-0.4,1.7-0.5c0.3-0.1,1.9,0.7,3.3,1.3
			c0.8,0.3,1.4,0.5,2.2-0.1c0.5-0.4,0.7-0.9,0.5-1.2c-0.2-0.4-0.7-0.4-0.7-0.6C37.7,16.6,38.5,16.4,41.7,16.8"/>
		<path class="st9" d="M40.8,23.5l2.2-0.6l0.7,0.2c0.5,0.2-0.2,0.2-0.9,0.4c-0.5,0.2-1.1,0.4-1.2,0.5c-1.5,0.3-2.8,0.8-4.4,1
			c-0.4,0,1.1-0.7,0-0.7c-1.4,0-0.2-0.7,1.1-0.5C39.4,23.9,40.6,23.5,40.8,23.5"/>
		<path class="st9" d="M49.6,22.1c-0.8,0.5-1.5,1.4-2.3,2.1c-0.9,0.8-2,1.4-2.8,2.2c-1.7,1.4-1.1,0.6-0.1-0.4
			c0.3-0.3,0.8-0.8,0.9-1.1c0.1-0.2-0.1-0.3-0.2-0.4c-0.3-0.2-0.8-0.3-1.4,0.3c-0.4,0.5-1,1-1.4,1.5c-0.4,0.8-0.5,1.5-1,2.2
			c-0.2,0.3-0.5,0.5-0.7,0.8c-0.5,0.7-0.1,0.5,0.4,0.4c0.4-0.1,0.8,0,0.3,0.5c-0.1,0.1-0.3,0.4-0.6,0.6c-0.4,0.4-0.9,0.7-1.2,1.1
			c-0.5,0.5-1,1.4-1,1.6c-0.1,0.2,0.2,0.3,0.5,0.1c0.3-0.1,0.6-0.8,0.9-0.9c0.8-0.2,0.3,0.4,0.5,0.5c0.2,0.1,0.5-0.1,0.6-0.2
			c0.8-0.6,1-1.3,1.2-1.9c0.2-0.5,0.5-1,0.8-1.5c0.8-1.3,2.2-2.3,3.4-3.5c0.5-0.4,0.7-1.1,1.2-1.5c0.6-0.4,2.1-1.5,2.3-2.2
			c0-0.2,0.2-0.8-0.1-0.8C49.9,21.8,49.5,22,49.6,22.1"/>
		<path class="st9" d="M22.8,38.8c4,0,7.6,0.4,10.8-0.6c0.8-0.2,0.9-0.7,1.7-1c0.7-0.4,2-0.7,2.6-1.2c1.7-1.3,4-1.9,5.6-3.4l4.7-4.4
			c0,0.7,0,1.6-0.6,2.4c-2.3,3.4-8.7,7.6-11.3,8.3c-1,0.3-2.7,0.3-5.2,0.4c-1.9,0.1-4.5,0.3-6.2,0.1C23.8,39.3,23.1,39.2,22.8,38.8"
			/>
		<path class="st9" d="M37,42.4c1.2-0.7,1.5-1.6,3-2.5c2.2-1.3,3.1-2.3,4.6-4.4c0.9-1.3,2.2-2.8,2.8-2.7c0.3,0,0.2,0.5,0.2,1.1
			c0,0.5,0.2,1,0.1,1.4c-0.1,0.5-0.8,1.2-1.1,1.8c-1.8,3.9-1.5,5.7-5.2,8.4c-0.7,0.5-2.1,0.8-2.7,1.1c0,0-0.3-0.5-0.2-0.7
			c0.1-0.2,0.2-0.6,0.3-0.8c0.1-0.5,0.2-0.5-0.2-0.7c-1.4-0.6-2-0.3-3-0.4c-0.6-0.1-1.6-0.2-2.3-0.8c-1-0.8-1.8-1.2-0.9-1.1
			c0.7,0.1,1.6,0.6,2.4,0.7C35.4,43.1,36.3,42.8,37,42.4"/>
		<path class="st9" d="M79,3.4c0,4.5,4.7,9.5,8,12.2c0.6,0.5,3.2,2.2,4.2,1.7c0.4-0.2-0.8-0.9-1-1.1c-0.5-0.5-0.3-3.1,0.6-3.1
			c0.5,0,1.4,0.4,1.9,0.2c0.1,0-1.7-1.9-2-2.2c-1.5-1.6-4.2-3.2-5.2-5c-0.6-1.1-1.1-2-1.5-3.3c-0.3-1.2-0.1,1-0.1,1.4
			c0,1.9-1.9,1.7-3.4,0.9C80,4.8,79.8,3.3,79,3.4"/>
		<path class="st9" d="M92.3,3.2c0,1.9,0.7,3.3,1.4,4.9c0.2,0.5,2.7,5,3.2,3.9V7c-1.1-0.6-1.5-1.7-2-2.5c-0.5-0.7-1.7-4.9-1.7-1.5
			c0,0.3,0.3,1.5-0.1,1.4C92.3,4.4,92.7,3.4,92.3,3.2"/>
		<path class="st10" d="M44.4,14.6c-2.4,0-5.1,0.3-7.4,0.8c-0.2-0.1-0.3-0.2-0.2-0.3c0.1-0.2,0.6-0.8,0.3-0.9
			c-1.5-0.5-2.2-0.3-1-1.4c1.5-1.5,0.3-1.2-0.9-0.7c-0.6,0.1-1.6,0.3-1.8,0.3c-0.1,0-0.2,0-0.3,0c0.1-0.2,0.4-0.4,1.2-0.9
			c1.6-0.9,4.6-1.5,6-1.1c0.5,0.1,0.5-0.5,0.6,0.4c0.2,1.2,1.5,1.2,2.2,1.9C43.5,13.1,44.1,13.9,44.4,14.6"/>
		<path class="st10" d="M31.8,38.9c0.7-0.1,2-0.2,2.7-0.4c0.8-0.2,0.3-0.7,1-1.1c0.7-0.4,2-0.7,2.6-1.2c1.7-1.3,4-1.9,5.6-3.4
			l0.3-0.3c0.7,0,0.4,0.5,0.2,0.8c-0.6,0.7-2.6,1.9-3.1,2.4c-0.6,0.7-1.4,1-1.9,1.7C38,38.1,37,38.8,36.3,39c-1,0.3-2.7,0.3-5.2,0.4
			c-0.2,0-0.4,0-0.7,0c0-0.1,0.1-0.1,0.2-0.2C30.8,39,31.4,39.1,31.8,38.9"/>
		<path class="st10" d="M80.5,6.5c0-0.6,1.1-0.2,1.5,0c0.9,0.6,1.1,0.6,2.1-0.3c1-1,0.5-0.8,1.6,0.5c0,0.2,2,2.1,1.5,2.1
			c-0.4,0-2.6-1.4-2.7-0.6c-0.1,1.1,1.2,2,2.1,2.6c0.7,0.4,1.8,0.8,2.4,1.3c0.3,0.2-0.1,0.5-0.7,0.5s-1.4-0.2-1.5-0.2
			c-1.7-0.4-2.1-0.5-1.6,0c0.4,0.4,1.7,1.2,1.7,1.6c0,0.2,0.5,1-0.2,0.8C84.5,14.4,80.4,8.3,80.5,6.5"/>
		<path class="st10" d="M94,3.9c0.2,1.1,1.6,2.7,2.4,3.3c0.2,0.1,0.3,0.2,0.4,0.3v4.1c0,0-0.1,0-0.1-0.1c-0.5-0.7-1.7-1.3-2-2.1
			c-0.5-1.1-1.4-2.6-1.3-3.6C93.4,5.6,93.5,3.9,94,3.9"/>
		<path class="st10" d="M35.7,43.3c0.6,0,1.4-0.1,1.9-0.1c0.8,0,3.7-0.5,3.5,0.4c-0.1,0.6-1.9,1-0.1,1c2,0,2.6-1.6,3.5-2.9
			c0.3-0.5,1-2.3,0.3-2.8c-0.5-0.4-1.2-1.3-1.9-1c-0.9,0.5-1.9,1.5-2.8,2.3c-0.5,0.4-1,0.9-1.4,1.2c-0.6,0.6-1.1,0.8-1.9,1
			C36.7,42.5,35.6,43,35.7,43.3"/>
		<path class="st10" d="M46.6,26.1c0.6-0.8,1-1.7-0.5-1c-0.4,0.2-1.7,1.4-2,1.7c-0.5,0.5-2.1,1.1-2.3,1.5c-0.2,0.3-0.1,1.1-0.2,1.6
			c-0.1,0.3-1.9,2.2-1.5,2.2c0.4,0,0.3,0.5,0.5,0.5c1.1,0,2-3.2,2.9-3.9C44.3,28.1,46.5,27.1,46.6,26.1"/>
		<path class="st10" d="M41.2,17c0,0.5-1.5,0.4-0.9,0.8c1.2,0.9-2.2,0.4-0.2,1.4c0.3,0.2,1.7,0.8,0.6,0.9c-0.2,0-0.6,0.1-1,0.2
			c-0.2,0.1-1.2,0.1-2.2-0.1c-2.2-0.5-5-1.5-4.5-1.2c0.1,0.1,2.3,1.3,4.3,1.9c1.5,0.5,2.8,0.5,3,0.5c1.6,0.4,4.2,0.1,5.5,0.2
			c1.7,0.1,1.6-0.3,2.9-1.1c0,0,0.2-0.2,0.1-0.2c-2.2-0.2-0.8-3.1-3-2.8c-0.8,0.1-2.3-0.2-3.1-0.4C42.4,17,41.2,16.8,41.2,17"/>
		<path class="st11" d="M73.9,70c-0.2-0.6-3.4,0.4-3.7,0.4c-1.9,0.2-1.7,2.9-0.9,4.6c0.5,1.1,1.5,1.4,1.9,1.7
			c-0.8-0.6-1.1-1.4-1.2-2.1c-0.1-0.8,0.1-1.6,0.5-2.5c0.6-1.1,1.6-1.8,3.1-2.1C73.8,70,73.9,70,73.9,70"/>
		<path class="st12" d="M63,55c-0.8-0.7-2-1.7-2.9-2.8c-0.7-0.9-1-1.9-1.7-2.8c-0.4-0.7-0.7-0.5-0.9-1.3c-0.2-0.8,0.1-1.6,0.4-2.6
			c0.2-0.6,1.1-0.9,2.1-1.4c0.7-0.4,0.7-0.8,1.7-1.1c1.7-0.4,4.4-0.5,5.5,0c1.1,0.3,0.3,0.5,0.3,1c0,1.5,0.6,2.7,0,4.2
			c-0.7,1.6-1.1,3.8-2.1,5.2c-0.5,0.7-0.7,0.6-0.7,1.6C64.7,56.4,63.2,55.1,63,55 M68.7,43.5c0.3-1.4-3.9-2-5-2
			c-1.5,0-2.3,0-2.8,0.4c-0.2,0.2-0.2,0.5-0.5,0.7c-0.3,0.2-0.7,0.4-1.1,0.7c-1.5,0.9-2.6,0.4-4.5,0.6c-1.9,0.2,0.4,6.1,1.4,7
			c1.7,1.7,2.2,4.3,4.1,5.5c1,0.7,4.1,6.9,4.9,6.9c0.3,0,0.8-0.2,1.4-0.3c0.5-0.1,1.1-0.5,1.2-1.2c0.3-1.4-0.7-3.8-0.5-5.4
			c0.1-2,0.3-3.6,0.6-4.7C68.6,48.6,69.2,45.4,68.7,43.5z"/>
		<path class="st13" d="M67.5,44.6c-0.3-0.2-0.6-0.7-1.4-0.8c-1.5-0.3-3.7-0.1-5.4,0c0.2-0.2,0.4-0.4,1-0.6c1.7-0.4,4.4-0.5,5.5,0
			c1.1,0.3,0.3,0.5,0.3,1C67.5,44.3,67.5,44.5,67.5,44.6"/>
		<path class="st13" d="M64.6,55.5c0.7-1.1,1.9-4.3,2.2-5c0.2-0.5,0.4-1.1,0.5-1.7c-0.6,1.6-1,3.5-1.9,4.8c-0.5,0.7-0.7,0.6-0.7,1.6
			C64.7,55.3,64.7,55.4,64.6,55.5 M60.7,43.8c-1.2,0.1-2.4,0.3-2.7,0.8c-0.4,0.5-2.6,1.8-1.7,2.9c0.6,0.7,0.4,2.5,1.5,3
			c1.2,0.6,1.8,3.9,3.4,4.2c0.9,0.2,1.9,1.3,3,1.3c0.1,0,0.2-0.1,0.3-0.3C64.1,56,63.1,55.1,63,55c-0.8-0.7-2-1.7-2.9-2.8
			c-0.7-0.9-1-1.9-1.7-2.8c-0.4-0.7-0.7-0.5-0.9-1.3c-0.2-0.8,0.1-1.6,0.4-2.6c0.2-0.6,1.1-0.9,2.1-1.4C60.4,44.1,60.5,44,60.7,43.8
			z M67.6,44.7C67.6,44.7,67.5,44.7,67.6,44.7c-0.1,0.2,0,0.6,0,0.9C67.6,45.3,67.6,44.9,67.6,44.7z"/>
		<path class="st14" d="M64.7,64.6c0.6-0.2,1.6-0.4,2.6-0.6c1.2-0.3,2.7-0.6,3.7-0.7c0.8-0.1,1.2,0,1.9,0.2c0.5,0.2,1.1,0.6,1.7,0.7
			c0.7,0,1-0.5,1.9-0.7c0.9-0.2,2.1-0.2,2.9-0.1l3.4,0.2c0.6,0,1.2,0.1,1.2,0.3c0,0.1-0.1,0.2-0.2,0.3c-0.2,0.2-0.5,0.4-0.7,0.4
			c-0.6,0.2-1.6,0-2.4,0.2c-0.8,0.2-1.6,0.4-1.9,0.4c-0.4,0.1-2,0.4-2.8,0.6c-0.5,0.1-0.7,0.4-1.2,0.4c-0.4,0-0.9,0-1.5-0.1
			C72.7,66,72.4,66,72.1,66c-0.3,0.1-0.6,0.1-0.6,0.2c-0.9,0.9,0.2,2.2,1.5,2.8c1.1,0.6,2.2,0.6,2.8,0.6c0.1,0,0.3,0,0.1,0.1
			c-0.2,0.1-0.9,0.2-1.5,0.2c-1,0.1-2.5,0-3.6-0.4c-1.2-0.4-2.3-1-2.8-1.3c-0.4-0.3-1.2-0.9-1.9-1.6C65.3,65.8,64.8,65,64.7,64.6"/>
		<path class="st2" d="M75.7,65.8c-0.3,0.1-0.5,0.3-0.9,0.3s-0.9,0-1.5-0.1c-0.6-0.1-0.9-0.1-1.2-0.1c-0.3,0.1-0.6,0.1-0.6,0.2
			c-0.9,0.9,0.2,2.2,1.5,2.8c1.1,0.6,2.2,0.6,2.8,0.6c0.1,0,0.3,0,0.1,0.1c-0.2,0.1-0.9,0.2-1.5,0.2c-0.6,0-1.5,0-2.2-0.1
			c-0.5-0.5-0.4-1.1-0.8-1.8c-0.2-0.4-0.2-0.3-0.5-0.8c-0.8-1.1,0.6-1.4,1.4-1.4L75.7,65.8L75.7,65.8"/>
		<path class="st2" d="M72.9,63.6c0.5,0.2,1.1,0.6,1.7,0.6c0.7,0,1.1-0.6,1.9-0.8c0.8-0.2,2-0.1,2.9,0l1.8,0.1
			C80.6,63.6,80,64,79.3,64c-1.6,0.2-2.4,0.5-4.2,0.5C74.1,64.5,73.5,64,72.9,63.6"/>
		<path class="st8" d="M74.3,67.6c0.1,0,0.2,0,0.3-0.1c0.1,0,0.3-0.1,0.5-0.1c0.1,0,0.1,0,0.2,0c0.2,0,0.4,0,0.5-0.1
			c0.1,0,0.1,0.1,0.1,0.1c0,0.8-0.1,0.9,0.8,1.2c0.7,0.3,1.9,0.2,1.7,0.3c0,0-0.1,0.1-0.2,0.1c-0.7,0.2-1.5,0.4-1.9,0.5
			c-0.1,0-0.3,0-0.4,0.1c-0.1,0-0.2,0-0.2,0c0.2-0.1-0.1-0.1-0.1-0.1c-0.7,0.1-1.8,0-2.8-0.6c-1.2-0.6-2.5-1.9-1.5-2.8
			c0.1-0.1,0.3-0.2,0.6-0.2s0.7,0,1.2,0.1c0.1,0,0.3,0,0.4,0c-0.8,0.1-2.1,1-0.8,1.6c0.1,0.1,0.5,0.1,0.8,0.1
			C73.9,67.7,74.1,67.7,74.3,67.6"/>
		<path class="st15" d="M74.9,69.3c0.1,0,0.2-0.1,0.3-0.2c0.1,0,0.4-0.1,0.4-0.2c0.1-0.3-0.1-0.5-0.4-0.6c-0.3-0.1-1,0.3-1,0.6
			C74,69.3,74.6,69.3,74.9,69.3 M76,67.3L76,67.3c0.5-0.1,0.9-0.1,1.4-0.1c0.2,0,0.4,0,0.5,0c0.5,0,0.9-0.1,1.4-0.2
			c0.9-0.2,2-0.5,1.8-0.3s-0.4,0.6-0.6,1c-0.3,0.3-1.1,0.7-1.2,1c0,0,0,0.2-0.1,0.2c-0.2,0.2-0.5,0.3-0.4,0.2
			c0.2-0.2-0.9-0.1-1.7-0.3c-0.9-0.4-0.8-0.5-0.8-1.2C76.1,67.4,76.1,67.3,76,67.3z"/>
		<path class="st0" d="M72.5,59c-0.2,0-0.8-0.2-0.9-0.3c-0.1-0.1-0.6-0.4-1.1-0.6c-0.6-0.2-1.5-0.2-1.2-0.5c0.3-0.1,1.2-0.2,2-0.1
			c0.6,0.1,1.1,0.4,1.1,0.5C72.7,58.5,72.3,58.7,72.5,59C72.4,58.9,72.5,59,72.5,59"/>
		<path class="st14" d="M69,57.7c0.5-1.2,3.9-0.2,4.6,0.4c0.3,0.3,0.5,0.6,0.5,0.9c0,0.2-0.1,0.3-0.3,0.3c-0.6,0-1.1,0.1-1.5-0.5
			c-0.1-0.2,0.3-0.3-0.1-0.7c-0.1-0.1-0.6-0.4-1.1-0.5C70.3,57.5,69.2,57.6,69,57.7L69,57.7z"/>
		<path class="st16" d="M73,57.7c-0.3-0.7-0.8-2-2.7-2c-0.5,0-1.5,0.3-1.8,0.7c-0.3,0.3-0.5,0.9-0.4,1.1c0,0.1,0.4,0,0.6-0.1
			c0.2,0,0.3,0,0.3,0l0,0C69.7,56.7,71.8,57.2,73,57.7L73,57.7"/>
		<path class="st12" d="M72.1,63.1C72.1,63.1,72.1,63.2,72.1,63.1c0.4,0.2,0.8,0.2,1.2,0.3s0.8,0.1,1.1,0.2c0.4,0.1,0.8-0.1,1-0.1
			c1.2-0.4,4.8-0.2,7.4,0.1c0.9,0.1,1.8-0.2,2.3-0.1c0.4,0.1,0.4,0.2,0.1,0.3c-0.3,0.1-0.9,0.1-1.4,0.3c0.1-0.1,0.1-0.1,0.1-0.2
			c-0.1-0.2-0.6-0.2-1.2-0.3L81,63.5l-1.8-0.1c-0.9,0-2.1-0.2-2.9,0c-0.8,0.2-1.1,0.9-1.9,0.8l0,0l0,0l0,0l0,0l0,0l0,0l0,0l0,0l0,0
			l0,0l0,0l0,0l0,0l0,0l0,0l0,0l0,0l0,0l0,0l0,0l0,0l0,0l0,0l0,0c-0.4-0.1-0.9-0.4-1.4-0.6c-0.2-0.1-0.5-0.2-0.8-0.2
			C72.1,63.2,72.1,63.1,72.1,63.1"/>
		<path class="st17" d="M64.8,64.8c0.6,0.1,3,1,3.7,1.2c0.5,0.1,0.4,0.1,0.5,0.6c0.2,0.7,0.9,0.9,1.2,1.5c0.3,0.5-0.1,1.1-0.7,0.9
			C68,68.4,67.1,68.1,64.8,64.8 M73.1,65.9c-1.9-1.9-3.6-1.6-6.2-1C66.5,65,66,65,66.1,65c0.1,0.1,1.2,0.2,1.5,0.2
			c0.8,0.1,1.1,0.2,1.9,0.3c0.6,0.1,1.4-0.1,2.5,0.1C72.4,65.7,73,66.1,73.1,65.9z"/>
		<path class="st18" d="M72.5,59c0,0,0.1,0.1,0.2,0.1s0.2,0.1,0.2,0.1c-0.7,0.3-0.9-0.1-1.7-0.3c-0.7-0.1-1.8,0-2-0.2
			c-0.5-0.3-0.8-0.5-0.9-1.1v-0.1c0.1,0,0.4,0,0.6-0.1c0.7-0.1,0,0.3,0.4,0.2c-0.2,0.3,0.6,0.3,1.2,0.5c0.6,0.2,1,0.5,1.1,0.6
			C71.8,58.9,72.1,58.9,72.5,59"/>
		<path class="st15" d="M72,54.8c-0.1-0.2-0.2-0.5-0.5-0.7c-0.4-0.4-0.8-0.6-1.6-0.6c-0.3,0-0.7,0.5-0.9,0.7
			c-0.3,0.5,0.1,1.2,0.6,1.6c0.1-0.1,0.2,0,0.2,0c0.2,0,0.3-0.1,0.5-0.1c0.7,0,1.2,0.2,1.7,0.5l0,0c0-0.3,0-0.5,0-0.7
			C72,55.5,72,55.2,72,54.8"/>
		<path class="st12" d="M70,53.6c0.6,0,0.7,0.4,0.9,0.8c0.1,0.1,0.2,0.8-0.1,0.9c-0.1,0-0.5,0-0.8,0c-0.5,0-0.7,0-0.8-0.2
			C68.9,54.6,69.2,53.5,70,53.6"/>
		<path class="st15" d="M71.6,43.2c-0.2,1-0.1,2-1.2,1.6c-0.1,0,0,0-0.4-0.2c-0.1,0-0.3,0.5-0.6,0.4c-0.3-0.2-0.4-1.3-0.5-1.3
			c-0.1,0-0.1-0.1-0.2-0.1c0.5,1.9-0.1,5.1-0.9,8c-0.3,1.1-0.5,2.7-0.6,4.7c-0.1,1.6,0.8,4.1,0.5,5.4c-0.1,0.8-0.7,1.1-1.2,1.2
			c-0.5,0.1-0.9,0.3-1.4,0.3c-0.8,0-3.9-6.2-4.9-6.9c-1.9-1.2-2.5-3.9-4.1-5.5c-0.9-0.9-3.2-6.8-1.4-7c1.8-0.2,2.9,0.3,4.5-0.6
			c0.5-0.3,0.9-0.5,1.1-0.7s0.2-0.6,0.5-0.7c-1.2,0.4-1.8,1.4-3.9,1.5c-0.9,0.1-1.8-0.3-2.6-0.4c-0.5-0.1-0.9,0.1-1.2,0.4
			c-0.4,0.4,0,2.6,0.8,4.7c0.6,1.6,1.7,3,1.7,3.3c0,0.9,4.2,6.2,4.3,6.3c0,0,3.3,5.4,4.2,5.9c0.1,0.1,0.3,0.2,0.6,0.2
			c0.5,0,1.2-0.1,2-0.2c1.2-0.3,2.3-0.5,2.5-0.5c0.3-0.1,0.5-0.1,0.6-0.2c0.3-0.1,0.3-0.1,0.8,0c0.1,0,0.3,0,0.3,0
			c0.1-0.2-0.4-1.2,0-1.4c1.4-0.8,3.7-1.7,3.6-1.8c0,0-0.1-0.2-0.2-0.3c-0.1,0-0.2,0.1-0.4,0.1s-0.4,0-0.6,0.1
			c-0.1,0.1-0.2,0.3-0.3,0.4c-0.2,0.2-0.4,0.3-0.7,0.4c-0.4,0.2-0.9,0.4-1.2,0.6c-0.4,0.3-0.7,0.6-1,0.7c-0.2,0.1-0.4,0.3-0.6,0.3
			c-0.5,0-0.9-0.6-0.9-0.7c-0.2-0.3,0.3-0.7,0.3-0.8c0,0,0-0.1-0.3-0.7c-0.2-0.5-0.7-0.9-0.8-1.5c-0.4-1.5-0.2-3-0.1-3.4
			c0.1-0.6,0.3-1.4,0.5-2c0.2-0.7,0.6-1.3,0.8-2c0.4-1,0.7-2.1,1.1-3c0.5-1,0.7,0.7,0.9,2c0.1,0.6,0.4,1.1,0.4,1.3
			c0.1,0.9,0.2,1.8,0.4,2.3c0-0.8,0-1.7-0.1-2.7C71.7,48.4,71.7,45.6,71.6,43.2"/>
		<path class="st19" d="M78.9,69c0.1,1-2.7,1.3-3.3,1.4c-4.3,1.1-4.7,3.7-2.7,5.6c0.6,0.6,2.4,1,3.1,1.4c0.6,0.3,0.5,0.9,1.2,0.8
			c4.4-0.6,3.2-1.4,5.6-1.4c1.6,0,1.9,4.9,1.9,5.9c0,2.5-1.1,3.8-1.9,3.7c-0.3-0.1-0.6-0.3-1-0.9c-0.2-0.3-0.1-0.8-0.6-1.1
			c-1.8-1.2-2.9-1.9-4-1.9c-2.3-0.1-3.7,1.8-4.5,4.5c-0.5,1.7-0.9,4.2-0.5,7.1h-6.1c0-1.3,0.3-5,1.4-8.1c1.2-3.5,3.4-6.6,6.1-7.7
			c0.4-0.2-0.3-0.4-0.7-0.5c-0.4-0.2-0.9-0.4-1.4-0.6c-1.1-0.7-1.6-1.5-1.7-2.5c-0.1-0.8,0.1-1.6,0.5-2.5c0.6-1.1,1.6-1.8,3.1-2.1
			c0.3-0.1,0.7-0.1,1.2-0.2s1-0.2,1.6-0.3C77.1,69.5,78.1,69.3,78.9,69 M96.8,55.2c-0.9,3.6-3.8,8.4-5.8,11.6
			c-0.4,0.7-0.7,1.2-0.6,1.7c0.2,0.6,1.1,1.4,1.9,2.4c1.2,1.7,3.2,3.6,4.7,4.1V55.2H96.8z M72.5,57.6L72.5,57.6L72.5,57.6L72.5,57.6
			z M74.9,59.1c-0.1,0-0.1,0-0.2,0C74.8,59.1,74.8,59.1,74.9,59.1z M75.2,59L75.2,59C75.1,59,75.1,59,75.2,59z M73.9,57.8
			c0.5,0.3,1.4,0.2,2.1,0.3c0.6,0,0.4,0.6,0,0.7c-0.3,0-0.5,0.1-0.8,0.2c0.1,0,0.2-0.1,0.2-0.1s0,0.1,0,0.2
			c-0.1,0.7-0.3,1.3-0.9,1.5c-1.1,0.5-2.5,0.6-2.5,2.1c0,0.6,0.1,0.6-0.5,0.4c-0.1,0-0.4-0.1-0.5-0.2c-0.4-0.2-0.5-0.5-0.5-0.8
			c0-0.4,0.7-1,1.5-1.2c0.5-0.2,1.2-0.6,1.7-0.7c0.7-0.2,0.8-0.6,0.9-1c0,0,0,0,0.1,0c-0.2,0-0.4,0-0.6,0v-0.1
			c0-0.3-0.2-0.6-0.5-0.9c-0.1-0.1-0.3-0.2-0.6-0.4l0,0c0,0,0,0,0.1,0c-0.2-0.4-0.5-1.1-1-1.5c0-0.3,0-0.5,0-0.7
			c0-0.1,0-2.2-0.1-4.8c-0.1-2.5-0.2-5.4-0.2-7.9c0-0.5,0.1-2.3-0.3-3.1c-0.5-1.1-2.7-1.9-3.6-2.6c-0.9-0.7-1-1.4-0.9-1.6
			c-0.3-0.1-0.6-0.3-1-0.4c-0.7-0.4-1.5-0.8-2-1.2c-1.4-0.9-3.1-1.5-4.7-2.2c-0.7-0.3-1.8-1.1-2.7-1.3c-0.8-0.2-1.6,0.3-2-0.2
			c-0.4-0.6,0.1-1.7,0.1-2.3c0-1.3,0.4-2.3,0.6-2.8c0.4-0.2,0.8-0.3,1.5-0.5c2.4-1.3,3.2-3.3,3.6-5.5c0.3-1.4,0.5-1.9,0.9-2.4
			c2.6-3.3,7.2-4.7,11.3-4.3c1.9,0.2,5.6,1.5,8.4,3.4c3,2.1,6,4.8,8.9,6.2c0.9,0.4,2.4,0.2,3.2,0.1c1.7-0.2,3.3-0.8,3.9-0.9v3.8
			c-1.2-1.3-4.3-1.2-6.1-1.8c-2.2-0.6-4.6-2.7-6.9-4.4c-0.3-0.3-0.8-0.5-1.2-0.8c-0.3-0.2-0.4-0.5-0.7-0.6c-1.2-0.7-2.4-1.5-3.6-2
			c-2.7-1.1-5.6-1.5-8.7-0.4c-0.6,0.2-1.5,0.7-2.5,1.1c-0.7,0.3-1.8,0.7-2.2,1c-0.8,0.7-1.6,1.5-2.4,3.2c-1.5,2.6-0.6,3.1-0.9,4.8
			c-0.2,0.9-0.5,2-0.8,3c-0.2,0.7-0.3,1.3-0.2,2c0.1,0.6,0.8,1.6,1.5,2.3c0.2,0.3,1.1,0.7,1.4,0.9c0.1,0.1,4.5,2.4,5.1,2.8
			c0.2,0.1,0.4,0.2,0.7,0.3c1,0.5,2,1.3,2.8,2.2c0.9,1.2,0.6,3.6,0.6,3.9c0.2,3.7,0.5,12.7,0.5,13C73.1,56.1,73.3,57.5,73.9,57.8z
			 M80.3,40.5c0,0.1-0.6-0.4-0.6-0.4c-0.3-0.1-0.6-0.7-0.7-0.8c-0.6-0.7-0.2-1.4,0.3-2.4c0.8-1.3,1.6-0.9,0.7-2
			c-1.5-2.1,8.6-4.8,9.7-5.3c1.5-0.7,2.6-0.3,4,0.1c2.6,0.8,1.2,0.8-0.3,0.9c-1.2,0.1-0.6,1.8-2.1,2.1c-2.7,0.6,3.1,1.1,3.1,2.8
			c0,0.2,0,0.3,0,0.5c0.6,1.5-0.9,2.3-0.9,3.7c0,1.2-4.3,3.8-5.6,3.8c-0.9,0-2.4,0.4-3.2,0.1c-0.9-0.3-2.1-0.6-2.9-1.1
			c-0.2-0.2-0.3-0.1-0.3-0.2c0-0.2,1.1-0.3,1.9-0.3s1.1,0.1,1.8,0.1c1.4,0.1,2.5,0.5,3.6,0.4c0.4-0.1,1-0.2,1.5-0.4
			c0.5-0.2,0.6-0.5,1-0.8c1.1-0.9,1-2.1,2.1-2.9C93.9,38,94,37,94,36.6c-0.1-0.7-0.4-1-1-1.3c-1-0.5-3.1-0.4-4.8-0.2
			c-3.2,0.3-6.6,1.6-7.7,3.6C79.6,39.8,80.4,39.9,80.3,40.5z M72.9,67.6c-1.2-0.6,0.2-1.6,1-1.6c0.3,0,0.6,0.1,1,0
			c0.3-0.1,0.5-0.2,0.8-0.3c0.6-0.2,1.5-0.3,2.1-0.4c0.4-0.1,0.8-0.3,1.2-0.3c0.7,0,1.2-0.3,2-0.4c0.6-0.1,1.5,0,2.1-0.1
			c0.2,0,0.8-0.4,0.6-0.3c-0.8,0.9-1.9,2.6-2.6,3.3c-0.2,0.1-2.2,1.5-2,1c0.1-0.3,0.9-0.6,1.2-1c0.3-0.3,0.4-0.8,0.6-1
			s-1.2,0.2-2.2,0.4c-0.3,0.1-1.9,0.1-3.3,0.2c-0.7,0.1-1.1,0.3-1.7,0.4C73.4,67.8,73,67.7,72.9,67.6z"/>
		<path class="st12" d="M74.6,69L74.6,69c0.2-0.1,0.3-0.1,0.3-0.2c0.1-0.1-0.1-0.2-0.2-0.3c-0.1,0-0.4,0.1-0.4,0.3
			C74.1,69,74.4,69,74.6,69"/>
		<path class="st20" d="M96.8,55.2c-0.9,3.6-3.8,8.4-5.8,11.6c-0.4,0.7-0.7,1.2-0.6,1.7c0.2,0.6,1.1,1.4,1.9,2.4
			c1.2,1.7,3.2,3.6,4.7,4.1V55.2H96.8z"/>
		<path class="st13" d="M84.1,78.4c-2.7,0.2-6.7,0.7-9.1,1.4c-3.5,1-7.1,9.1-6.6,14.2h4c-0.4-2.9,0-5.4,0.5-7.1
			c0.7-2.7,2.2-4.5,4.5-4.5c1,0,2.2,0.7,4,1.9c0.5,0.3,0.4,0.8,0.6,1.1c0.4,0.6,0.6,0.9,1,0.9c0.7,0.1,1.9-1.2,1.9-3.7
			C84.8,82.1,84.7,80,84.1,78.4"/>
		<path class="st17" d="M72.1,63.3c0,0,0-0.2-0.1-0.2l0,0c0,0,0,0-0.1,0c-0.1,0-0.4-0.1-0.5-0.1l0,0c-0.2,0-0.4-0.1-0.7-0.1
			S70.1,63,69.9,63l-3.3,0.8c-0.1,0-0.6,0.2-1.1,0.3c-0.2,0.1-0.4,0.2-0.7,0.2c-0.1,0.1-0.1,0.1-0.1,0.1c0.6-0.2,1.5-0.4,2.5-0.6
			c1.2-0.3,2.7-0.6,3.7-0.7C71.4,63.3,71.8,63.3,72.1,63.3"/>
		<path class="st2" d="M71.5,63.1c-0.3-0.1-0.5-0.2-0.6-0.2c-0.1,0-0.1,0-0.3,0s-0.3-0.1-0.4,0c-0.3,0-0.5,0.2-0.9,0.2
			c-0.2,0-1.2,0.3-2.5,0.5c-0.6,0.1-1.4,0.3-2,0.2c-0.3,0-0.5-0.2-0.6-0.2C63.4,63,60,57.7,60,57.7c-0.1-0.1-4.4-5.5-4.3-6.3
			c0-0.3-1-1.7-1.7-3.3c-0.8-2-1.2-4.3-0.8-4.7c0.3-0.3,0.7-0.5,1.2-0.4c0.6,0.1,1.2,0.3,2,0.4c0,0,0,0-0.1,0
			c-1-0.4-2.1-1.3-2.3-1.5c-0.3-0.6-0.4-1.3-0.8-1.8c-0.6-0.7-1.1-0.6-1.5-0.7c-0.4-0.1-0.4,1.3-0.2,2.3c0.1,0.4,0.2,0.7,0.2,0.7
			c-0.1,0.1,0,1.8,0.3,3.5c0.3,1.6,0.9,3.2,1,3.5c0.3,0.8,2.9,4.7,3.4,5.7c0.4,0.8,1,1.7,1.5,2.5c0.9,1.6,2.2,2.8,3.3,4.6
			c0.7,1.1,2.6,4.1,4.1,5.2c0,0,0.4-0.2,0.3-0.3c-1.1-1.2-1.2-2.4-1.2-2.5c0.3-0.1,0.6-0.3,0.9-0.4c0.4-0.1,0.9-0.3,1.1-0.3l3.1-0.8
			C69.7,63,70,63,70.3,63c0.2,0,0.4,0,0.6,0.1C71.3,63.1,71.5,63.1,71.5,63.1"/>
		<path class="st2" d="M66.5,35.5c-0.1,0.1-0.2,0.6-0.4,0.7c-0.2,0.2-0.6,0.2-0.6,0.3c0,0.2,0.3,0.4,0.6,0.6c0.6,0.4,1.5,1,2.6,1.7
			c1.2,0.8,2.8,1.7,2.8,2.5c0,0.2,0,0.8,0.1,0.9c0-0.8,0-2-0.3-2.6c-0.5-1.1-2.7-1.9-3.6-2.6c-0.9-0.7-1-1.4-0.9-1.6
			C66.7,35.5,66.6,35.5,66.5,35.5 M67.3,42.1c0.9-0.3,2.1-0.9,2.1,0.6c0,0.3,0,1,0.3,1c0.8,0.1,1.6-0.1,1.7-1.1
			c0-0.2,0.2-0.4,0.3-0.2c0,0.1,0,0.3,0,0.3c0,0.1,0,0.3,0,0.4c-0.2,1-0.1,2-1.2,1.6c-0.3-0.1-0.6,0.1-0.8,0.2c-0.1,0.1-0.2,0-0.2,0
			c-0.3-0.2-0.4-1.3-0.5-1.3c-0.1,0-0.1-0.1-0.2-0.1l0,0C68.9,42.9,68.2,42.4,67.3,42.1z"/>
		<path class="st2" d="M72,69.9c-0.2,0-0.3-0.1-0.5-0.2c-0.2,0-0.4-0.1-0.6-0.2c-0.4-0.1-0.8-0.3-1.2-0.5c0,0.2,0,0.4-0.2,0.6
			S68.9,70,68.6,70c-0.4,0-0.8-0.3-1-0.1c-0.6,0.8-0.4,1.2-0.3,1.7c0.2,0.8,0.7,1.6,1.4,3.2c0.1,0.1,0.4,0.7,0.8,0.9
			c-0.1-0.1,0.6,0.4,1.4,0.7c0.6,0.3,1.2,0.6,1.2,0.6c-0.2-0.1-0.4-0.3-0.6-0.4c-0.2-0.2-0.8-0.6-1.1-1c-0.4-0.5-0.7-1.1-0.8-1.4
			c-0.3-1.3,0.1-3.3,1.2-3.9c0.2-0.1,1.2-0.3,2.3-0.5c-0.2,0-0.4,0-0.6-0.1C72.1,69.8,72,69.8,72,69.9"/>
		<path class="st3" d="M68.9,75.5c-0.4-1.4-1-3.3,0-4.6c0.4-0.5,0.9-1.1,1-1.6c-0.8-0.3-1.6-0.7-2-1c-0.4-0.3-1.2-0.9-1.9-1.6
			c-0.4-0.5-0.8-0.9-1-1.3c0,0-0.2-0.3-0.2-0.5c0-0.1,0-0.1,0-0.2s0-0.1,0-0.1s-0.1,0-0.1,0.1s0,0.2,0,0.3c0.1,0.5,0.4,1.3,1.1,2.1
			c0.1,0.1-0.2,0.4-0.3,0.3c-1.5-1.1-3.3-4.1-4.1-5.2c-1.2-1.8-2.5-3-3.3-4.6c-0.5-0.8-1.1-1.8-1.5-2.5c-0.5-1.1-3.1-5-3.4-5.7
			c-0.1-0.3-0.6-1.9-1-3.5c-0.4-1.7-0.5-3.4-0.3-3.5c0,0-0.2-0.3-0.2-0.7c-0.1-0.9-0.2-2.4,0.2-2.3c0.3,0.1,0.9,0,1.5,0.7
			c0.4,0.5,0.5,1.2,0.8,1.8c0.1,0.2,1.1,1.1,2.1,1.5c0.1,0,0.1,0,0.2,0.1c0.2,0,0.3,0,0.5,0c2.1-0.2,2.7-1.2,3.9-1.5l0,0l0,0
			c0.3-0.2,0.8-0.3,1.6-0.3c-0.1,0-1.1-0.1-1.5-0.1c-0.5,0-1.9,0.3-2.4,0.5s-0.6,0.6-0.9,0.6c-1.6,0.1-2.6-0.6-2.6-0.7
			c-0.1-0.3-0.5-0.8-0.7-1.3C54.1,40,54,39.3,54,39.3c-0.1-0.2-0.4-1.1-0.8-1.5c-0.5-0.4-1.2-0.4-1.8-0.5c-0.3,0-0.5,0-0.7,0.2
			c-0.3,2-0.5,3.6,0,5.7c2.1,8.6,6.6,22.8,17.2,31.4C68,74.8,68.5,75.1,68.9,75.5"/>
		<path class="st21" d="M51.5,47.5c0.8,10.4,9.2,24.1,16.1,27c0.1,0,0.1,0.1,0.2,0.2c0.1,0,0.1,0,0.2,0.1c-3.6-4.6-7.1-8.8-9.7-13.3
			C56,57.4,53.9,51.9,51.5,47.5"/>
		<path class="st3" d="M71.3,76.9L71.3,76.9c0.2,0.1,0.3,0.1,0.4,0.2c0.4,0.3,0.9,0.5,1.4,0.6c0.4,0.2,1.1,0.3,0.7,0.5
			c-2.7,1.1-4.9,4.2-6.1,7.7c-1.1,3.1-1.4,6.8-1.4,8.1H65c0-1,0.8-1.7,0.8-2.6c0-0.4-0.7-0.6-1-1s-0.2-1-0.2-1.3
			c0.1-1.4,0.9-2.5,1.5-3.9c0.9-2.5,2.6-5.2,5.8-8C71.6,77,71.5,77,71.3,76.9"/>
		<path class="st3" d="M37.4,61.7c-2.3,0.8-5.7,1.9-7.7,3.1c-1,0.6-2.9,1.9-3.6,2.7c-0.2,0.3-0.4,0.7-0.6,1c-1,1.7-0.2-0.5,0.2-1.1
			c0.8-1.1,1.9-1.9,2.9-2.7c0.7-0.6,0.4-0.9,1.9-1.3C33,62.8,34.5,60,37.4,61.7"/>
		<path class="st3" d="M37.9,48.9c-1.7,2-3.6,3.6-6.2,3.9c-0.8,0.1-1.6,0.3-2.3,0.6c-0.3,0.1,1.6-0.9,2.3-1.1c1-0.3,2.2-1.2,2.7-2
			c0.6-0.9,1.5-2.1,2.3-2.9c0.8-0.8,0.4-0.1,1.1,0.2C38.8,48.1,38.2,48,37.9,48.9"/>
		<path class="st22" d="M80.9,39.8c0-0.1,0.2-0.4,0.2-0.5c0-0.2-0.2-0.3-0.1-0.5c0.1-0.3,0.5-0.6,0.8-0.8c0.5-0.5,0.7-0.9,1.5-1.2
			c0.5-0.3,1.6-0.6,2.2-0.8c1-0.4,2.1-0.7,3.1-0.8c0.8-0.1,1.7-0.1,2.3,0.2c0.3,0.1,0.8,0.5,1,0.9c0.1,0.3,0,0.6,0,0.8
			c0,0.1-0.8-0.8-1.7-0.9c-0.4,0-0.7,0-1,0c-0.6,0-1.1,0-1.5,0.1c-0.5,0.1-0.3,0.3-0.3,0.3c0.2,0.2,1.2,0,1.5,0c0.6,0,3,0.5,3.7,1.3
			c0.2,0.3,0.5,0.4,0.2,0.7c-0.2,0.2-0.8,0.5-1,0.4c-0.5-0.3-0.5-0.5-1.1-0.7c-0.6-0.2-1.4-0.3-2-0.3c-0.4,0-0.5,0-0.6,0.1
			c-0.1,0.2,0.2,0.5-0.2,1.1c-0.5,0.4-0.9,0.6-1.5,0.6c-1,0-1.5-0.6-1.9-1.4c-0.3-0.1-0.9,0-1.6,0.3c-0.7,0.4-1.2,0.9-1.5,1.1
			c-0.2,0.2-0.7,0.6-0.8,0.8c0,0-0.1-0.2,0-0.4C80.7,40.1,80.9,39.8,80.9,39.8"/>
		<path class="st0" d="M87.6,36.5c0.3,0.1,1.1,0,1.4,0c0.6,0,3,0.5,3.7,1.3c0.2,0.3,0.5,0.4,0.2,0.7c-0.2,0.2-0.8,0.5-1,0.4
			c-0.5-0.3-0.5-0.5-1.1-0.7c-0.6-0.2-1.4-0.3-2-0.3c-0.2,0-0.3,0-0.4,0c-0.4-0.2-0.8-0.4-1.1,0c-0.1,0.1,0,0.4,0.1,0.5
			c0.1,0.1,0.2,0,0.4,0.2c0.1,0.1,0.2,0.3,0.3,0.5l0,0c-0.6,0.5-1,0.7-1.6,0.7c-0.2,0-0.3,0-0.4-0.1c-0.4-0.2-0.6-0.6-0.9-1
			c0-0.1-0.2-0.1-0.3,0c-0.1,0.1-0.2-0.1-0.2-0.1c-0.1-0.1-0.8,0.3-1.1,0c-0.3-0.4,0.6-1,0.9-1.2C85.3,36.8,86.4,36.6,87.6,36.5"/>
		<path class="st2" d="M87.3,37.9c0.1-0.1,0.1-0.1,0.2-0.1l0.1,0.1L87.5,38l-0.1,0.1C87.3,38.1,87.3,38.1,87.3,37.9
			C87.3,38.1,87.3,38,87.3,37.9"/>
		<path class="st1" d="M80.8,41.3C80.8,41.3,80.7,41.2,80.8,41.3c0.1-0.1,0.5-0.1,0.5-0.2c0.5-0.2,1.7-0.3,1.9-0.1
			c0.1,0.1,0.3,0.3,0.3,0.5c0,0.1,0.1,0.2,0,0.2c-0.3,0.2-1,0-1.5,0C81.7,41.8,80.9,41.6,80.8,41.3"/>
		<path class="st23" d="M83.2,41c0.6,0.1,1.1,0.2,1.8,0.3c0.2,0-0.1,0.1-0.2,0.2c-0.1,0.1-0.1,0.3-0.1,0.4c0,0.1,0.1,0.2-0.1,0.2
			S84.2,42,84,42c-0.2,0-0.3,0-0.4-0.1l0,0c0.1,0,0.1-0.1,0.2-0.1c0.1-0.1,0-0.1,0-0.2C83.5,41.4,83.4,41.2,83.2,41L83.2,41"/>
		<path class="st2" d="M85,41.4c0.3,0,0.7,0.1,1,0.1c0.1,0,0.2,0,0.3,0s0.1,0,0.1,0c0.1,0.2-0.1,0.2-0.2,0.2c-0.2,0-0.8-0.3-0.7,0
			c0,0.2,0.1,0.2-0.1,0.4c-0.1,0.1-0.2,0.1-0.4,0c-0.2,0-0.3,0-0.5-0.1c0.2,0,0.1-0.1,0.1-0.2c0-0.1,0-0.3,0.1-0.4
			C84.9,41.5,85.1,41.4,85,41.4"/>
		<path class="st5" d="M89,38.2c-0.1,0.7-0.3,1.3-0.9,1.8c-0.8,0.7-2.1,0.9-3.1,0.1c-0.1-0.1-0.6-0.5-0.8-0.8
			c-0.2-0.3-0.6-0.2-0.6-0.2c-0.1,0-0.5,0.3-0.7,0.6c-0.1,0.2-0.4,0.3-0.4,0.3c0,0.1,0.1,0.2,0.1,0.4c0,0.1,0,0.2,0,0.3
			c0.3,0,0.7,0.1,1.2,0.2c0.8,0.2,1.8,0.3,2.2,0.4c1.5,0.1,3.3-0.4,4.1-1c0.5-0.4,1.4-0.6,1-1.5c-0.1-0.3-0.5-0.5-0.9-0.6
			C89.7,38,89.3,37.9,89,38.2"/>
		<path class="st12" d="M81.2,40.5c0,0-0.1,0.1-0.2,0.2c-0.1,0.1,0,0.3,0,0.3c0.1,0.1,0.3,0,0.6-0.1c0.3-0.1,0.7-0.1,0.8-0.1
			c0.1,0,0.1,0,0.2,0c-0.1,0-0.2,0-0.2,0c-0.1,0,0-0.2,0-0.3s-0.1-0.3-0.1-0.4c0-0.1,0.1-0.1,0.2-0.1c0.1-0.1,0.3-0.3,0.2-0.3
			c-0.1,0-0.3,0.2-0.5,0.3C81.8,40.1,81.4,40.2,81.2,40.5"/>
		<path class="st12" d="M82.6,39.9c0.2,0,0.5-0.4,0.6-0.5c0.2-0.1,0.3-0.1,0.6-0.1c0.2,0,0.3,0.2,0.5,0.2c-0.1-0.1-0.2-0.2-0.2-0.3
			c-0.2-0.3-0.6-0.2-0.6-0.2c-0.1,0-0.5,0.3-0.7,0.6C82.7,39.8,82.6,39.9,82.6,39.9L82.6,39.9"/>
		<path class="st12" d="M89.3,38c0.8,0,1.8,0.1,2.3,0.7c0.2,0.2,0,0.6-0.2,0.7c-0.1,0.2-0.2-0.3-0.3-0.4s-0.2-0.2-0.3-0.2
			c0,0,0,0,0-0.1c-0.1-0.3-0.5-0.5-0.9-0.6C89.8,38.1,89.7,38,89.3,38C89.4,38,89.4,38,89.3,38"/>
		<path class="st2" d="M80.2,40.4c0,0.1,0.1,0.2,0.1,0.3c0.1,0.5,0.3,1.2,0.8,1.5c0.1,0.1,0.2,0.1,0.3,0.1l0,0
			c0-0.2,1.1-0.3,1.9-0.3l0,0l0,0c0,0,0.1-0.1,0.1-0.2c-0.4,0.1-0.7-0.1-1-0.1c-0.5,0-1.4-0.2-1.5-0.6c0,0,0.1,0,0.2,0
			c0.1,0,0.2-0.1,0.2-0.1c-0.2,0-0.3-0.1-0.3-0.2c-0.2-0.4,0.1-0.5,0.3-0.6c0.2-0.1,0.4-0.3,0.6-0.4c-0.2,0.1-0.3,0.1-0.4,0.1
			c-0.1,0,0-0.1-0.1-0.1c-0.1,0.1-0.1,0.1-0.2,0.2c-0.1,0-0.3,0.3-0.4,0.4c0,0,0-0.1,0-0.3c0-0.1,0.1-0.2,0.1-0.3s0-0.2,0-0.2
			c0-0.1,0.2-0.4,0.2-0.5c0-0.2-0.2-0.2-0.1-0.4c0.1-0.3,0.5-0.6,0.8-0.8c0.4-0.4,0.7-0.7,1.4-1.1c0.7-0.4,1.6-0.7,2.4-1
			c1-0.4,2.2-0.7,3-0.8c0.8-0.1,1.7-0.1,2.3,0.2c0.3,0.1,0.8,0.5,1,0.9c0.1,0.3,0,0.6,0,0.8c0,0,0,0-0.1,0c0,0.1,0,0.2,0,0.3
			c0.3,0.2,0.6,0.3,0.8,0.5c0.2,0.3,0.5,0.4,0.2,0.7c-0.2,0.2-0.8,0.5-1,0.4c0,0,0,0-0.1,0l0,0c0.1,0.2-0.1,0.5-0.2,0.7l0,0
			c0,0.1-0.1,0.4-0.2,0.6c-0.1,0.2,0.4,0.3,0.5,0.4c0.4-0.7,0.6-1.5,1.4-2.1c0.5-0.4,0.6-1.4,0.6-1.8c-0.1-0.7-0.4-1-1-1.3
			c-0.1-0.1-0.2-0.1-0.4-0.2C92,35,91.5,35,91,34.9c-0.9,0-2.1,0-3.1,0.2c-3.2,0.3-6.6,1.6-7.7,3.6C79.6,39.8,80.4,39.9,80.2,40.4
			C80.3,40.5,80.3,40.5,80.2,40.4"/>
		<path class="st2" d="M85.5,40.4c-0.1-0.2-0.3-0.4-0.3-0.6c0-0.1-0.1-0.4,0.2-0.3c0.3,0.2,0.6,0.3,1,0.3s0.9-0.2,1.4-0.8
			c0,0,0-0.1,0.1-0.1c0.2,0.1,0.3,0.6,0.2,0.9L88,39.9C87.4,40.4,86.4,40.7,85.5,40.4C85.6,40.4,85.5,40.4,85.5,40.4"/>
		<path class="st23" d="M82.7,39.7C82.7,39.7,82.7,39.6,82.7,39.7c-0.3,0-0.5,0.1-0.8,0.2c-0.2,0.1-0.3,0.2-0.5,0.2
			c-0.1,0,0-0.1-0.1-0.1c0,0,0.1-0.1,0.2-0.1c0.2-0.2,0.8-0.7,1.5-1.1c0.4-0.2,0.8-0.3,1.2-0.4c0.2,0,0.3,0.1,0.4,0.2
			c0.2,0.4,0.4,0.7,0.7,0.9c0,0,0,0,0,0.1c-0.2,0-0.2,0.2-0.2,0.3c0,0.2,0.2,0.4,0.3,0.6l0,0c-0.2-0.1-0.4-0.2-0.5-0.3
			c-0.1-0.1-0.5-0.4-0.7-0.7l0,0l0,0l0,0l0,0l0,0l0,0l0,0l0,0l0,0c0,0,0,0,0-0.1C83.7,38.7,82.9,39.4,82.7,39.7"/>
		<path class="st23" d="M80.9,34.3c0.1,0,0.2,0.3,0.3,0.3c0.4,0,0.8-0.2,1.4-0.3c0.8-0.2,1.8-0.5,2.6-0.8c1-0.4,2-0.8,2.5-1.1
			c0.5-0.3,1.2-0.6,2.1-0.9c0.7-0.3,1.5-0.7,2.1-0.9c0,0,0.3-0.1,0.7-0.2c0.3,0,0.7,0.1,0.9,0c0.1-0.1,0-0.3-0.4-0.4
			c-1.1-0.3-2.1-0.1-2.9,0.2c-1.1,0.4-2.3,0.9-3.6,1.4c-0.9,0.3-2.4,0.8-3.4,1.1c-0.1,0-0.6,0.3-0.9,0.4c-0.5,0.2-0.9,0.4-1,0.8
			C81,34,80.8,34.2,80.9,34.3"/>
		<path class="st24" d="M80.9,34.1c0,0.6,0.9,0.3,1.8,0.1c0-0.4-0.7-0.1-0.7-0.6c0-0.3,0-0.2,0.1-0.4c-0.2,0-0.3,0.1-0.5,0.2
			C81.4,33.5,81.3,34.1,80.9,34.1 M88.9,31.8c0.1,0,0.1-0.1,0.2-0.1c1.5-0.9,2.5-1.3,4.4-1.3c2.2,0-1.1-0.6-1.9-0.6
			c-1.1,0-3,1-4.5,1.6c0.7,0,1.7,0.1,1.7,0.2C88.7,31.7,88.8,31.7,88.9,31.8z"/>
		<path class="st7" d="M86.1,41.3c1.1,0,2.4-0.3,3.2-0.7v0.1c0.1,0.4,0.6,0.3,0.9,0.3c0.4,0.1-0.3,0.4-0.5,0.5
			c-0.5,0.2-0.6,0.2-1.1,0c-0.7-0.3-1,0.3-1.8,0.2C86.7,41.7,86.4,41.4,86.1,41.3"/>
		<path class="st7" d="M90.4,40c-0.1,0.1-0.2,0.2-0.1,0.2c0.1,0.2,0.4,0.1,0.6,0.1s0.3-0.1,0.4-0.1l0,0c0.1-0.2,0.3-0.5,0.2-0.6
			s0,0.1-0.1,0c-0.1-0.1-0.2-0.4-0.2-0.4C91.1,39.1,91,39,90.9,39C91.1,39.5,90.8,39.7,90.4,40"/>
		<path class="st25" d="M91.9,37L91.9,37c0,0.1,0,0.2-0.1,0.3c-1-0.5-2.5-0.8-3-0.8c-0.2,0-1.2,0.1-1.5,0c0,0-0.6,0-0.6-0.1
			s0.6-0.2,0.8-0.3C87.8,36,88.3,36,89,36c0.3,0,0.7,0,1,0C91.1,36.2,91.8,36.9,91.9,37"/>
		<path class="st26" d="M87.9,38.9L87.9,38.9c0.3-0.6,0.1-0.9,0.1-1c0,0,0.1-0.1,0.2-0.1l0,0c0.1,0,0.2,0,0.4,0s0.4,0,0.5,0
			c0.1,0,0.2,0,0.3,0l0,0l0,0c0.3,0,0.6,0.1,0.9,0.2l0,0c0,0-0.1,0-0.2,0c-0.3,0-0.6-0.1-0.8-0.1s-0.4,0.1-0.4,0.2
			c-0.1,0.6-0.3,1.2-0.8,1.7C88.2,39.5,88.1,39.1,87.9,38.9"/>
		<path class="st3" d="M57.2,33.4c-1.2-0.6-2.5-0.3-3,0.4c-0.4,0.5-0.1,1.2,0.4,1.6c0.3,0.3,0.7,0.7,1.7,0.7l3.2-0.1l2.7,0.1
			c1.8,0.1,2.4,0.5,3.7,1.5c0.4,0.3,2.3,1.8,3.7,2.7c0.2,0.2,0.9,0.4,1.1,1.1c0.1,0.2,0.1,1.2-0.4,1.7c-0.1,0.1-0.3,0.2-0.6,0
			c-0.2-0.1-0.3-0.8-0.5-1.1c-0.1-0.2-0.3-0.2-0.5-0.2c0.3,0.1,0.5,0.3,0.5,1c0,0.3,0,1,0.3,1c0.8,0.1,1.6-0.1,1.7-1.1
			c0-0.2,0.2-0.3,0.3-0.2c0-0.1,0-0.1,0-0.2c-0.1-0.1-0.1-0.7-0.1-0.9c0-0.9-1.6-1.7-2.8-2.5c-1.1-0.7-1.9-1.3-2.6-1.7
			c-0.2-0.2-0.6-0.4-0.6-0.6c0-0.2,0.4-0.2,0.6-0.3c0.2-0.2,0.3-0.6,0.4-0.7l0,0c-0.2-0.1-0.5-0.2-0.7-0.3c-0.7-0.4-1.5-0.8-2-1.2
			c-1.1-0.8-2.7-1.4-4.2-2c0.5,1,1.2,2.2,0.5,2.4c-0.1,0-1.2-0.3-2-0.6C57.5,33.6,57.3,33.4,57.2,33.4"/>
		<path class="st27" d="M59,22.4c-0.3,0.8-0.5,1.5-0.8,1.9c-0.8,1.1-2.4,1-2.9,1.5c-0.8,0.8-0.8,1.8-0.6,3.8c0,0.3,0.3,0.7,0.5,1
			h-0.1c-0.2,0.1-0.7,0.2-0.8,0.2c-0.3,0.1-0.7,0.5-1.1,0.2c-0.6-0.6-0.9-1.6-1.1-2.4c0.2-0.6,0.4-1,0.6-1.4
			c0.5-0.9,1.5-1.7,4.2-2.5C57.7,24.1,58.5,23.3,59,22.4 M81.4,16.2c-1.2-0.8-2.5-1.4-3.7-1.6c-5-0.9-7.1-2-9.9-1.3
			c-1.4,0.3-2.4,0.9-4.5,2.2c-1.6,1-2.5,2.5-3.1,4.1c0-0.1,0.1-0.3,0.1-0.4c0.3-1.4,0.5-1.9,0.9-2.4c2.6-3.3,7.2-4.7,11.3-4.3
			c1.9,0.2,5.6,1.5,8.4,3.4C81,15.9,81.2,16,81.4,16.2z M96.8,22.2c-1.8,0.6-3.7,0.5-5.2,0.2c-0.2-0.1-0.4-0.1-0.6-0.2
			c0.7,0,1.6-0.1,2.1-0.1c1.7-0.2,3.3-0.8,3.9-0.9L96.8,22.2L96.8,22.2z"/>
		<path class="st28" d="M93.1,35.6c-0.1-0.3-0.6-0.5-1-0.7c-2.9-1-9.8,0.4-11.8,3c-0.1,0.2-0.3,0.6-0.4,0.9c-0.1,0.6,0,1.1,0.1,0.9
			c0.2-0.5,0.5-0.9,0.7-1.3c0.6-0.9,1.2-1.4,2.9-2.2c1.2-0.5,3.7-1.2,5.2-1.2c0.9,0,1.9,0,2.8,0.1C92.2,35.2,92.7,35.4,93.1,35.6"/>
		<path class="st29" d="M55.6,34.9c0.5,0.2,0.7,0.4,1.4,0.5c0.5,0.1,2.4,0.3,2.8,0.1c0.2-0.1-0.5-0.3-1-0.5
			c-0.2-0.1-1.2-0.8-2.1-1.1c-0.5-0.2-0.9-0.1-1,0C55.5,34.1,55.3,34.8,55.6,34.9"/>
		<path class="st29" d="M58,39.1c0-0.3,0.2-0.5,0.5-0.5c0.1,0,0.1,0.4,0.1,0.5c0,0.4,0.1,0.7,0.4,0.9c0,0,0.1,0,0.1,0.1
			c0.1,0.1,0.6,0.3,0.6,0.4c0,0.1-0.1,0.1-0.2,0.1c-0.1,0-0.3-0.1-0.4-0.1C58.7,40.2,58,39.5,58,39.1"/>
		<path class="st30" d="M56.2,34.7c0.2,0.1,0.3,0.2,0.5,0.2c0.6,0.1,0.7,0.1,0.6,0c-0.1-0.2-0.3-0.5-0.7-0.6c-0.1,0-0.5-0.2-0.6-0.1
			c0,0,0,0.1-0.1,0.1C56,34.5,56,34.7,56.2,34.7"/>
		<path class="st12" d="M43.1,38.5c-1.6,1.1-2.5,2.6-4.3,3.4c-1.2,0.6-0.4,0.5,0.3,0.2c1-0.4,2.4-0.3,3.1-1c0,0-0.2,0.5-0.5,1
			c-0.1,0.2-0.5,0.3-0.5,0.5c0,0.8,1.1,0.6,1.6,0.2c0.8-0.7,1.5-1.5,1.5-2.7C44.3,39.4,44,38.6,43.1,38.5"/>
		<path class="st0" d="M52.2,27.4c0,0.7,0.3,3.6,1,3.7c1.2,0.1,1.8-0.2,2.8-0.1c0.8,0.1,2.2,0.5,3.1,1.1c0.6,0.4,2,0.9,3,1.4
			c0.6,0.3,0.4,1,0.8,1c0.6,0,3.2,0.6,3.3,1c0.1,0.3-0.6,0.6-1.4,0.6c-0.4,0-0.9-0.1-1-0.1c-0.4-0.1-0.6-0.4-1-0.6
			c-0.8-0.4-2.6-0.8-3.5-1.3c-1.5-0.8-2.1-1.3-3.4-1.3c-0.4,0-1.1-0.3-1.5-0.2c-1.8,0.2-1.7,1-1.6,1.8c0,0.5-0.2,0.6-0.6,1.4
			c-0.4,0.7-0.9,1.2-1.9,1.3C47.8,37.2,50,27.5,52.2,27.4"/>
		<path class="st1" d="M63.7,36.4c0.1,0,0.2,0.1,0.4,0.1c0.2,0.1,0.3,0.3,0.5,0.3c0.1,0,0.6,0.3,1.6,0.9c0.6,0.5,0.6,1.6,1.1,2.3
			c-0.1,0,0.5,0.5,0.8,0.8c0.3,0.4,0.1,1.1,0,1c0,0-0.3-0.4-0.4-0.5c-0.2-0.3-0.4-0.5-0.6-0.8c-0.4-0.4-0.6-0.8-0.7-0.9
			c-0.3-0.5-0.8-0.5-1.2-1c-0.2-0.3,0.3-0.2,0.5-0.3c0.1,0,0.1-0.2,0-0.3c-1.1-1.2-2.8-1.5-4.4-1.6c0,0,0,0,0.1,0c0.7,0,1.5,0,2.1,0
			C63.5,36.4,63.6,36.4,63.7,36.4"/>
		<path class="st3" d="M57.1,39.9c-0.2-0.3-0.5-0.6-0.2-1.1c0.2-0.4,0.6-0.5,1-0.7c0.2-0.1,0.3,0,0.3,0c-0.6,0.4-0.8,1.6-0.4,2.2
			h0.1l0,0c-0.1-0.1-0.4-0.2-0.5-0.3C57.2,40,57.1,39.9,57.1,39.9"/>
		<path class="st5" d="M62.7,41.5L62.7,41.5L62.7,41.5L62.7,41.5L62.7,41.5L62.7,41.5L62.7,41.5c0.1-0.1,0.1-0.1-0.1-0.2
			c-0.1,0-0.3-0.1-0.4-0.1c-0.1-0.1-0.1-0.3-0.1-0.4c0-0.1,0-0.3,0.2-0.4c0.1,0,0.2-0.1,0.2-0.1l0,0c0,0,0,0,0.1,0
			c0,0,0.1,0,0.1-0.1c0.1,0,0.1-0.1,0.1-0.1l0,0c0.1-0.1,0.2-0.3,0.3-0.4c0.2-0.2,0.3-0.4,0.4-0.4c0.1-0.2,0.6,0,0.7-0.1
			c0.1,0.1,0.2,0.1,0.4,0.2c0.2,0.2,0.8,0.7,0.8,1c0,0.1,0,0.2-0.1,0.2c0,0-0.1,0.1-0.2,0.1c-0.2,0.2-0.6,0.4-0.4,0.5
			s0.5,0.3,0.7,0.3l0,0l0,0l0,0l0,0l0,0l0,0l0,0l0,0l0,0l0,0l0,0l0,0l0,0l0,0l0,0l0,0l0,0l0,0l0,0l0,0l0,0l0,0l0,0l0,0l0,0l0,0l0,0
			l0,0l0,0l0,0l0,0l0,0l0,0l0,0l0,0l0,0l0,0l0,0l0,0l0,0l0,0l0,0l0,0l0,0l0,0l0,0l0,0l0,0l0,0l0,0l0,0l0,0l0,0l0,0l0,0l0,0l0,0l0,0
			l0,0l0,0l0,0l0,0l0,0l0,0l0,0l0,0l0,0l0,0l0,0l0,0l0,0l0,0l0,0l0,0l0,0l0,0l0,0l0,0l0,0l0,0l0,0l0,0l0,0l0,0l0,0l0,0l0,0l0,0l0,0
			l0,0l0,0l0,0l0,0l0,0l0,0l0,0c-0.9-0.2-1.8-0.3-2.3-0.3C63.3,41.5,63,41.5,62.7,41.5"/>
		<path class="st13" d="M62.7,41.5L62.7,41.5L62.7,41.5L62.7,41.5L62.7,41.5L62.7,41.5L62.7,41.5c0.1-0.1,0.1-0.1-0.1-0.2
			c-0.1,0-0.3-0.1-0.4-0.1l-0.1-0.1c0.6,0.1,1.2,0.1,2,0.1c0.2,0,0.5,0,0.7,0c0,0-0.1,0.1,0,0.1c0.2,0.1,0.5,0.3,0.7,0.3l0,0l0,0
			l0,0l0,0l0,0l0,0l0,0l0,0l0,0l0,0l0,0l0,0l0,0l0,0l0,0l0,0l0,0l0,0l0,0l0,0l0,0l0,0l0,0l0,0l0,0l0,0l0,0l0,0l0,0l0,0l0,0l0,0l0,0
			l0,0l0,0l0,0l0,0l0,0l0,0l0,0l0,0l0,0l0,0l0,0l0,0l0,0l0,0l0,0l0,0l0,0l0,0l0,0l0,0l0,0l0,0l0,0l0,0l0,0l0,0l0,0l0,0l0,0l0,0l0,0
			l0,0l0,0l0,0l0,0l0,0l0,0l0,0l0,0l0,0l0,0l0,0l0,0l0,0l0,0l0,0l0,0l0,0l0,0l0,0l0,0l0,0l0,0l0,0l0,0l0,0l0,0l0,0l0,0l0,0l0,0l0,0
			l0,0c-0.9-0.2-1.8-0.3-2.3-0.3C63.3,41.5,63,41.5,62.7,41.5"/>
		<path class="st29" d="M60.6,39.6C60.6,39.5,60.6,39.5,60.6,39.6c0.2-0.1,0.3-0.1,0.3,0s0,0.1,0,0.2c0,0.1-0.2,0.1-0.3,0l-0.1-0.1
			C60.6,39.7,60.6,39.6,60.6,39.6"/>
		<path class="st14" d="M65.6,40.3c0.1,0.1,0.2,0.2,0.3,0.3c0.1,0.1,0.2,0.1,0.3,0.2c0.3,0.2,0.2,0.3,0,0.3s-1,0-1.2,0
			c0.1-0.1,0.2-0.2,0.3-0.2c0.1-0.1,0.2-0.1,0.2-0.1c0.1-0.1,0.1-0.1,0.1-0.2C65.6,40.4,65.6,40.4,65.6,40.3"/>
		<path class="st0" d="M56.2,40.4c0,0.3,0.3,0.6,0.6,0.7c0.1,0.1,0.5,0.2,0.6,0.2c0.1,0.2-0.9,0-1.1-0.1s-0.6-0.1-0.8-0.3
			c0-0.1-0.4-0.2-0.3-0.3s0.6-0.2,0.6-0.2C55.9,40.5,56.2,40.5,56.2,40.4"/>
		<path class="st1" d="M61.1,73c0.5,1.1,3.6,2.9,4.7,3.5c0.8,0.5,0.8,1,0.3,1.6c-0.8,1-3.1,3.4-3.5,4.8c-0.1,0.5,0-1.7-0.3-4
			C61.9,76.4,61.4,74.4,61.1,73"/>
		<path class="st12" d="M36.3,38.1c-0.3,0.2-3.1,0.7-1.2,0.7c0.8,0,2.7-0.9,3.3-1.4c0.6-0.4,1-0.8,1.5-1.3c0.1-0.1,0.4-0.4,0.4-0.6
			C40.3,35.4,37.1,37.7,36.3,38.1"/>
		<path class="st12" d="M46,26c-0.5,0.4-0.8,0.9-1.5,1.2c-1.2,0.5-1.7,0.7-2.2,1.9c-0.1,0.3-0.2,0.5-0.3,0.8c-0.4,1,0.7-0.8,0.8-1
			C43.5,27.5,46,27.7,46,26"/>
		<path class="st12" d="M42.9,17.8c0.6,0,1.6-0.1,2.2,0.1s1.1-0.2,0.6,0.3c-0.1,0.1-0.8,0.1-1,0.1c-0.2,0,2.1,0.4,0.9,0.4
			c-0.9,0-0.4,0.7,0.1,1c0.3,0.2,0.5,0.3,0.8,0.4c0.3,0.1,0.6,0.1,1,0.2c0.2,0-0.5,0.4-0.7,0.4c-1.6,0-3.1,0.1-4.7,0.1
			c-0.1,0-0.3,0-0.5,0c-0.1,0-0.5,0-1,0c-0.9,0-2.1-0.1-2.1-0.2s0.8,0,1.6-0.1c0.5,0,1.9-0.3,2.3-0.6c0.1-0.1-0.8-0.7-0.9-0.9
			c-0.2-0.2,1.9,0.4,1.5-0.4c-0.2-0.3-0.5-0.5-0.8-0.6C41.7,17.8,42.8,17.9,42.9,17.8"/>
		<path class="st12" d="M36.5,11.2c0.8-0.2,1.7-0.2,2.6-0.2c0.2,0,1,0.1,0.9,0.3c0,0.1-0.3,0.1-0.3,0.2c0,0.2,0.8,0.2,1,0.3
			c0.2,0.1,0.5,0.2,0.6,0.3c0.1,0.1-1.2,0.1-1.4,0.1c0,0,1.6,0.4,2,0.8c0.3,0.2,1.1,0.7,0.3,0.6c-1.2-0.2-2-0.3-3.1,0.2
			c-0.2,0.1-1.4,0.7-1.4,0.6c-0.1-0.5,2.2-0.9,1.8-1.1c-0.4-0.2-1.8,0-2.3,0c-2-0.1,1.1-0.9,1.1-1.2C38.4,11.8,36.9,11,36.5,11.2"/>
		<path class="st3" d="M47.6,47.8c0.9,3.7-6,8.8-8.7,10.5c-3.1,2.1-7,1-10.2,2.2c-0.7,0.3-2.2,2.4-1.4,0c0.5-1.5,4.1-3.3,5.7-3.7
			c3-0.6,6.9-4,8.9-5.9C42.3,50.6,47.4,43.2,47.6,47.8"/>
		<path class="st27" d="M45.1,49.2c0.1,0.5-0.1,0.7-0.3,1.2c-0.1,0.3,1.5-1.3,2.1-1.6c0.4-0.2-0.1,0.9-0.2,1.1
			c-0.5,0.8-2.1,2.6-3.3,3.8c-2,1.8-3.9,2.9-4.7,3.4c-2.3,1.5-5.2,0.8-7.6,1.7c-0.6,0.2-1.7,1.8-1,0c0.4-1.1,3.5-1.6,4.8-1.8
			c2.3-0.4,5.1-3,6.7-4.4c0.1-0.1,1.1-1.3,1.9-2.4C44.1,48.6,45,47.2,45.1,49.2"/>
		<path class="st31" d="M44.6,50.6c-0.1,0.3,1.7-1,1.5-0.6c-1.5,2.1-6.4,5.9-7.8,6.8c-1.7,1.1-3.6,1-5.5,1.2c0.6-0.7,2.7-1,3.6-1.2
			c1.8-0.3,4.1-2.4,5.2-3.5c0.1-0.1,0.9-1,1.6-1.9C43.8,50.3,44.5,49.2,44.6,50.6"/>
		<path class="st2" d="M59.2,17.2c0,1.3-0.8,3-1.8,3.8c-0.7,0.7-0.7,1.2-1.9,1.2c-1.4,0-0.5-0.3-0.1-0.6c0.8-0.8,2.2-0.8,2.5-2
			c0.1-0.2,0.4-1,0.5-1.1s0.1-0.3,0.2-0.5C58.8,17.8,58.8,17.5,59.2,17.2"/>
		<path class="st2" d="M59.6,18.6c0,1-0.6,2.5-1.4,3.3C57.5,22.6,57,23,55.9,23c-0.2,0-0.4-0.1-0.4-0.2s0.3,0,0.6-0.2
			c0.3-0.1,0.7-0.1,1-0.3c0.5-0.3,0.9-1,1-1.4c0.1-0.2,0.4-1,0.5-1.1s0.1-0.3,0.2-0.5C59.2,19.2,59.1,18.9,59.6,18.6"/>
		<path class="st2" d="M88.1,37.9c0.1-0.1,0.1-0.1,0.2-0.1l0.4,0.1l-0.1,0.3l-0.4,0.1C88.1,38.3,88.2,38,88.1,37.9
			C88.1,38,88.1,38,88.1,37.9"/>
		<path class="st8" d="M87.4,38L87.4,38l0.2-0.1V38C87.5,38,87.5,38,87.4,38L87.4,38L87.4,38"/>
		<path class="st15" d="M87.6,36.3c0.2-0.1,0.3-0.1,0.5-0.1c0.1,0,0.2,0,0.2,0h0.1c0.1,0,0,0.1,0.1,0.1c0.1,0-0.1,0.1-0.1,0.1
			c-0.1,0-0.3,0-0.5,0S87.6,36.5,87.6,36.3"/>
		<path class="st15" d="M89.8,36.2c0.1,0,0.3,0,0.5,0.1c0.1,0,0.3,0.1,0.4,0.1c0.1,0,0.3,0.2,0.4,0.3c0,0.1-0.3,0-0.4,0
			c-0.1-0.1-0.3-0.1-0.5-0.1l-0.4-0.1C89.8,36.3,89.8,36.3,89.8,36.2"/>
		<path class="st23" d="M58.6,1.2c-4.3,0.5-6.6,1.5-8.5,3.7S44.2,3.6,41,3.2c-0.5-0.1-3.2-0.1-3.2-0.6C37.9,1.5,48,1.5,49.9,1.5
			C52.7,1.6,55.5,1.2,58.6,1.2"/>
		<path class="st19" d="M75.5,58.6c0.2,0,0.8-0.2,0.9-0.3s0.6-0.4,1.1-0.6c0.6-0.2,1.5-0.2,1.2-0.5c-0.3-0.1-1.2-0.2-2-0.1
			c-0.6,0.1-1.1,0.4-1.1,0.5C75.4,58.2,75.7,58.3,75.5,58.6C75.6,58.6,75.6,58.6,75.5,58.6"/>
		<path class="st12" d="M72.3,67.1c-0.3,0.9,2,1.3,3,1.3c1,0,2.3-0.1,3.1-0.3c0.7-0.2,1.8-1.2,2.5-1.5c0.6-0.3,0.1-0.3-0.6-0.3
			c-1.6,0-3.4,0.8-5.1,0.8C74.9,67.2,72.4,66.9,72.3,67.1"/>
		<path class="st5" d="M76.5,65.8c-0.7,0.7-2.4,0.2-3.4,0.6c-0.6,0.2-0.7,0.5-0.5,0.6c0.6,0,2.4,0.1,2.7,0.1c1.7,0,3.5-0.8,5.1-0.8
			c0.2,0,0.3,0,0.5,0C82.2,65.2,77.3,65.6,76.5,65.8"/>
		<path class="st1" d="M47.2,60c-5.6,0-8.4,9.8-13.1,11c-2.1,0.5-5.3-0.2-7,1.4c-3.7,3.5-9.9,2.9-15,4.6c-2.2,0.7-7.3,0.5-1.1,0.8
			c1.5,0.1,2.8,0.8,4.2,1.7c1.9-0.2,5.5,0.2,7.4-0.6c2.2-0.9,4.4-0.4,6.6-1.1c4.2-1.5,8.3-4.3,12.9-6.3c2.4-1,6-7.2,7.2-4.5
			c0.2,0.5-0.8,2.6-0.8,3.8c0,1-4.3,6.1-10.1,9c-4.9,2.4-15.2,5.3-16,7.7c0.4-0.1,4.3-0.5,4.8-0.7c1.9-0.9,1.6,1.8,2.8,2.5
			c2.5,1.4,20.3-12.8,20.3-16.4C50.2,65.8,48,68.9,47.2,60"/>
		<path class="st3" d="M17.4,77c2-1.6,7.2-0.7,9-2.1c1.6-1.2,3.6-1.3,5.3-1.9c1.6-0.6,2.9-2.2,4.4-2.8c1.4-0.6,3.4-1.5,5-1.9
			c1.2-0.3,2.2-1.4,2.8-2.1c0.2-0.2-2.5,3.6-5.2,5.2c-1.6,0.9-3.9,0.4-5.4,1.3c-1,0.6-2.7,1-3.5,1.8c-1.9,1.5-2.1,2.1-4.4,2.9
			C23.1,78.1,18.5,77.2,17.4,77"/>
		<path class="st3" d="M49.9,72c0.1,0.9,0.4,2.4-0.1,3.2c-0.3,0.5-1,1.5-1.5,1.8c-0.5,0.3-1,1-1.8,1.4c-1,0.6-1.7,1.4-2.8,1.8
			c-0.4,0.2-0.6,0.4-0.2-0.4c0.7-1.4,2-2.8,3.2-3.8C47,75.8,49.7,72.6,49.9,72"/>
		<path class="st3" d="M39.3,81.5c0.7,1,0.9,3.4-0.7,3.5c-0.9,0.1-3.7,1.9-4.7,1.9c-0.6,0-3.3-0.9-4-1s4.2-2.7,4.5-2.8
			c0.6-0.2,1.5-0.4,2.2-0.6c0.4-0.1,0.9,0,1.4-0.1C38.7,82.3,38.4,81.7,39.3,81.5"/>
		<path class="st32" d="M38.7,83.9c0.1,0.6-0.1,1.1-0.8,1.2c-0.6,0.1-1.1,0.6-1.8,0.6c-0.1,0-0.3-0.1-0.5-0.2
			c0.2-0.1,0.5-0.2,0.7-0.3C37.1,84.9,38.1,84.4,38.7,83.9 M38.3,83c0.1,0.2,0.2,0.4,0.3,0.6l0,0c-0.3,0.1-0.5,0.2-0.7,0.3
			c-0.5,0.3-1.5,0.3-2.5,0.5c-1.1,0.2-2.3,0.5-3.1,0.7c0.5-0.8,3.1-1.3,4.3-1.6c0.3-0.1,0.6,0,0.9-0.1C38,83.4,37.8,83.1,38.3,83z"
			/>
		<path class="st32" d="M44.7,79.1c0.3-0.5,1-1.1,1.5-1.6c0.7-0.9,2.2-1.3,2.9-2.2c0.2-0.3,0.8-2.4,0.7-1.1
			c-0.2,1.3-1.2,2.3-2.2,3.3C47.3,77.9,45.2,78.8,44.7,79.1"/>
		<path class="st1" d="M45.8,84.2c0.6-0.3,3-2.2,2.6-0.8c-0.8,2.4-2.1,3.2-3.7,4.8c-1.2,1.3-2.8,2.2-4.6,2.7
			c-0.3,0.1-1.6,0.2-1.6,0.1c0-0.8,2.1-2.2,2.6-2.8c0.7-0.9,1.8-1.4,2.6-2.1C44.1,85.8,44.6,83.5,45.8,84.2"/>
		<path class="st32" d="M39.9,69.6c-0.6,0.2-0.8,0.6-1.2,0.9c-0.5,0.4-0.6,0.2-1.1,0.4c-0.3,0.1-0.6,0.2-0.9,0.2s-0.6,0.1-0.9,0.2
			c-0.3,0.1,0.1-0.2,0.3-0.2C37.5,70.8,38.1,69.6,39.9,69.6"/>
		<path class="st32" d="M27.7,74.8c-1.4,0.8-3.4,2.2-5.7,2c-0.4,0-0.8,0-1.2,0c-0.2,0,0.5-0.1,0.6-0.1c0.6,0,1.2-0.1,1.9-0.2
			c1.6-0.4,2.8-1.3,4-1.7L27.7,74.8z"/>
		<path class="st3" d="M46.5,58.4c-2.7,0-6.4,4.5-7.3,6.6c-0.3,0.8-0.8,1.6-1.1,2.3c-0.4,1-0.5,1,0.7,0.5c0.9-0.4,2-0.9,2.7-1.7
			c1.2-1.5,2.8-4.6,4.7-5.8c0.3-0.2,0.7-0.4,0.9-0.5c0.7-0.5,1.4-0.1,0.5-0.9C47.4,58.8,46.5,58.4,46.5,58.4"/>
		<path class="st27" d="M44.5,59.9c-0.9,0-2.6,2.6-3,3.3c-0.1,0.3-0.4,1-0.7,1.5c-0.4,0.6-0.9,1.1-0.9,1.3c-0.1,0.9,0.7,0,1.4-0.9
			c0.3-0.5,0.4-1.1,0.5-1.3c0.6-1.1,1.4-1.8,2.2-2.5C44.6,60.9,46.4,59.9,44.5,59.9"/>
		<path class="st31" d="M43.9,59.9c-0.6,0-1.8,1.7-2,2.2c-0.2,0.4-0.2,0.4-0.3,0.9c0,0.1-0.1,0.1-0.1,0.2c-0.2,0.9,0.4-0.4,0.5-0.7
			c0.4-0.7,0.9-1.2,1.5-1.6C44,60.6,45.3,59.9,43.9,59.9"/>
		<line class="st33" x1="96.8" y1="0.8" x2="96.8" y2="94"/>
		<line class="st33" x1="96.9" y1="94" x2="0" y2="94"/>
		<path class="st1" d="M64.6,4c-3.1,0-6.7,0.5-8.7,2.8c-0.9,1-1.2-0.3-2.1,1.2c-0.5,0.9-3.2,5.2-0.8,3.1c0.7-0.7,1-2.3,1.6-2.7
			c1.5-1,3.4-2.9,5.2-3.4C60.8,4.8,65.3,4.2,64.6,4"/>
		<path class="st1" d="M66.5,5.6c-2.4,0.4-4.1,0.1-5.7,1.7c-0.3,0.3-0.8,1-0.9,1.4c0,0.1-0.9,1-0.5,0.8C60.1,9.1,60.2,8.3,61,8
			c1-0.4,1.8-1.7,3.2-1.2c0.4,0.1,1.2-0.3,1.6-0.5C66.1,6.2,67.4,5.6,66.5,5.6"/>
		<path class="st1" d="M27.2,49.7c-3.1,1.9-10.6-2.5-13.4-3.6c-1.7-0.7-3-1.7-4.7-2.6c-0.3-0.2-3.1-0.3-2.2-0.6
			c3.4-1.3,8.5,1.2,11.1,2.7c1.5,0.8,4,1.5,5.1,2.3C23.6,48.4,27.2,49,27.2,49.7"/>
		<path class="st3" d="M31.1,43.4c0.1-0.1,0.8,1.3,1.6,1.6c0.6,0.2,2.5,0.3,2.5,0.8c0,1.8-3.7,1.8-5.2,1.5c-3.1-0.5-5.8-3.4-8.6-4.5
			c-0.2-0.1,2.2,0.6,2.8,0.6c1.1,0.1,2.4,0.1,3.5,0.1C28.7,43.7,30.5,43.5,31.1,43.4"/>
	</g>
	<text transform="matrix(1.042 0 0 1 139.9233 73.6924)" class="st34 st35 st36">PALOMA</text>
</g>
</svg>
