<?xml version="1.0" encoding="utf-8"?>
<!-- Generator: Adobe Illustrator 23.0.1, SVG Export Plug-In . SVG Version: 6.00 Build 0)  -->
<svg version="1.1" id="Isolation_Mode" xmlns="http://www.w3.org/2000/svg" xmlns:xlink="http://www.w3.org/1999/xlink" x="0px"
	 y="0px" viewBox="0 0 416 93.2" style="enable-background:new 0 0 416 93.2;" xml:space="preserve">
<style type="text/css">
	.st0{fill-rule:evenodd;clip-rule:evenodd;}
	.st1{fill-rule:evenodd;clip-rule:evenodd;fill:#212020;}
	.st2{fill-rule:evenodd;clip-rule:evenodd;fill:#4F4F4E;}
	.st3{fill-rule:evenodd;clip-rule:evenodd;fill:#373737;}
	.st4{fill-rule:evenodd;clip-rule:evenodd;fill:#2D2D2C;}
	.st5{fill-rule:evenodd;clip-rule:evenodd;fill:#FFFFFF;}
	.st6{fill-rule:evenodd;clip-rule:evenodd;fill:#909191;}
	.st7{fill-rule:evenodd;clip-rule:evenodd;fill:#E2E2E2;}
	.st8{fill-rule:evenodd;clip-rule:evenodd;fill:#AEAEAF;}
	.st9{fill-rule:evenodd;clip-rule:evenodd;fill:#6C6D6C;}
	.st10{fill-rule:evenodd;clip-rule:evenodd;fill:#C9CACA;}
	.st11{fill-rule:evenodd;clip-rule:evenodd;fill:#DEDEDE;}
	.st12{fill-rule:evenodd;clip-rule:evenodd;fill:#ECECEC;}
	.st13{fill-rule:evenodd;clip-rule:evenodd;fill:#F7F7F7;}
	.st14{fill-rule:evenodd;clip-rule:evenodd;fill:#353534;}
	.st15{fill-rule:evenodd;clip-rule:evenodd;fill:#D8D8D8;}
	.st16{fill-rule:evenodd;clip-rule:evenodd;fill:#898A89;}
	.st17{fill-rule:evenodd;clip-rule:evenodd;fill:#292929;}
	.st18{fill-rule:evenodd;clip-rule:evenodd;fill:#5E5E5D;}
	.st19{fill-rule:evenodd;clip-rule:evenodd;fill:#F1F2F2;}
	.st20{fill-rule:evenodd;clip-rule:evenodd;fill:#FBFBFB;}
	.st21{fill-rule:evenodd;clip-rule:evenodd;fill:#252524;}
	.st22{fill-rule:evenodd;clip-rule:evenodd;fill:#181717;}
	.st23{fill-rule:evenodd;clip-rule:evenodd;fill:#30302F;}
	.st24{fill-rule:evenodd;clip-rule:evenodd;fill:#6A6A69;}
	.st25{fill-rule:evenodd;clip-rule:evenodd;fill:#7E7E7E;}
	.st26{fill-rule:evenodd;clip-rule:evenodd;fill:#323231;}
	.st27{fill-rule:evenodd;clip-rule:evenodd;fill:#808180;}
	.st28{fill-rule:evenodd;clip-rule:evenodd;fill:#A5A5A5;}
	.st29{fill-rule:evenodd;clip-rule:evenodd;fill:#747474;}
	.st30{fill-rule:evenodd;clip-rule:evenodd;fill:#979797;}
	.st31{fill-rule:evenodd;clip-rule:evenodd;fill:#B4B5B5;}
	.st32{fill-rule:evenodd;clip-rule:evenodd;fill:#565655;}
	.st33{fill:none;stroke:#FBFAFA;stroke-width:0.216;stroke-miterlimit:22.9256;}
	.st34{font-family:'OpenSans-Bold';}
	.st35{font-size:67px;}
	.st36{letter-spacing:12.9;}
</style>
<g>
	<path class="st0" d="M61.2,35.6c0.1,0,0.2,0.1,0.4,0.1c0.2,0.1,0.3,0.3,0.5,0.3c0.1,0,0.6,0.3,1.5,0.9c0.7,0.6,0.5,2,1.4,2.6
		c0.2,0.1,0.8,0.7,0.5,1.4V41c-0.3,0.1-0.6,0.2-0.8,0.3c-0.4-0.1-0.8-0.2-1.2-0.3c0.1-0.1-0.3-0.1-0.3-0.1c-0.2,0-0.6-0.2-0.7-0.3
		l-0.1-0.1c0.1-0.1,0.6-0.5,0.7-0.5c0.5-0.3-0.4-1-0.7-1.2c-1.4-0.9-1.6,0.4-2.4,0.9c-0.4,0.3-0.4,0.8,0.1,0.9
		c0.3,0.1,0.4,0.2,0.3,0.3c-0.1,0-0.1,0-0.2,0c-0.1,0-0.5,0-0.9-0.1c0.1-0.1-0.2-0.5-0.8-0.6c-0.4,0-0.9,0-1.3-0.1
		c-0.8-0.2-1.3-0.4-1.9-0.8c-0.1-0.1-0.3-0.1-0.3,0c-0.2,0.4-0.7,0.9-1.1,0.9c-0.7,0.1-1-0.3-1-0.4c-0.2-0.5-0.2-1.5,0-2.4
		c0.1-0.6,0.9-1.1,1.6-1.3c1.1-0.4,4.2-0.4,6.5-0.4C61,35.6,61.1,35.6,61.2,35.6"/>
	<path class="st1" d="M65.5,40.5c0,0.1,0,0.3-0.1,0.4V41c-0.2,0.1-0.5,0.2-0.7,0.2c-0.1,0-0.1,0-0.2,0c-0.4-0.1-0.8-0.2-1.2-0.3
		c0.1-0.1-0.3-0.1-0.3-0.1c-0.1,0-0.3,0-0.4-0.1l0,0c0.5-0.1,2.1,0.4,2.4,0.2C65.2,40.8,64.9,40.2,65.5,40.5
		C65.4,40.4,65.5,40.5,65.5,40.5"/>
	<path class="st2" d="M60.3,39.4C60.4,39.4,60.4,39.3,60.3,39.4L60.3,39.4C60.3,39.4,60.3,39.4,60.3,39.4 M56.5,37.2
		c-1.1-0.2-1.6,1.6-1,2.3c0.5,0.3,0.9,0.4,1.6,0.5c0.4,0.1,0.9,0,1.2,0c0.6,0.1,0.8,0.3,0.9,0.5c0.3,0.1,0.6,0.1,1.1,0.1
		c0.1,0,0.1-0.1,0-0.2c-0.1,0-0.3-0.1-0.4-0.1c-0.1-0.1-0.1-0.3-0.1-0.4c0-0.1,0-0.3,0.2-0.4c0.1,0,0.2-0.1,0.2-0.1v-0.1
		c0-0.3-0.2-0.2-0.5-0.2s-0.5,0-0.7-0.1c-0.4,0-0.7-0.2-1-0.5l0,0c0,0,0,0-0.1,0s-0.2,0.1-0.3,0.1c-0.3,0.2,0.1,0.9-0.5,0.5
		C56.4,38.7,56.4,38,56.5,37.2C56.4,37.2,56.5,37.2,56.5,37.2z"/>
	<path class="st3" d="M56.4,37.2c0,0.7-0.1,1.5,0.6,1.9c0.6,0.4,0.2-0.3,0.5-0.5c0.1-0.1,0.4-0.1,0.3-0.2c0,0-0.1-0.1-0.1-0.2
		c0-0.1-0.1-0.2-0.1-0.2c-0.1-0.3-0.1-0.8-0.1-0.8C57.3,37.3,56.5,37.2,56.4,37.2 M58.8,39c0.8,0.3,1.5-0.3,1.6-1
		c0-0.2,0-0.3,0.5-0.3c0.2,0,0.5,0.1,0.6,0.2c0.2,0.1,0.4,0.4,0.3,0.4c-0.1,0.1-0.7-0.1-0.8,0.1c0,0.1-0.2,0.2-0.4,0.4
		c-0.2,0.3-0.4,0.6-0.5,0.6c0,0-0.1,0.1-0.1-0.1c0-0.3-0.2-0.2-0.5-0.2C59.2,39.2,59,39.2,58.8,39z"/>
	<path class="st0" d="M0,0h93v20.4c-0.6,0.2-2.1,0.7-3.7,0.9c-0.8,0.1-2.3,0.3-3.1-0.1c-2.7-1.4-5.6-4.1-8.5-6.2
		c-2.7-1.9-6.2-3.2-8.1-3.4c-4-0.4-8.4,1.1-10.9,4.3c-0.4,0.5-0.6,1-0.9,2.4c-0.4,2.3-1.2,4.3-3.5,5.5c-2.6,0.7-3.4,1.6-4,2.5
		c-0.4,0.7-0.7,1.5-1,3.6c-0.2,2-0.5,3.7-0.8,5.7c-0.4,2.5-0.7,4.2-0.1,6.6c2,8.6,6.3,22.8,16.5,31.4c1.1,0.9,2.7,1.9,4,2.6
		c-3.1,2.8-4.7,5.5-5.6,8c-0.5,1.4-1.3,2.6-1.4,3.9c0,0.3-0.1,1,0.2,1.3c0.3,0.4,1,0.6,1,1c0,0.9-0.8,1.7-0.8,2.6H0V0z"/>
	<path class="st1" d="M42.2,34.5C37,42.5,30.8,40,22.8,40c-0.6,0-10.3-0.3-6.3,1.3c5.5,2.2,9.1,6.2,15.3,7
		c10.5,1.5,10.9-5.3,13.5-13.1C47.5,28.6,41.8,34.3,42.2,34.5"/>
	<path class="st1" d="M45.3,13.7c0.7,0.5,1.9,1.2,2.8,1.4c0.1,0-0.2,0.4-0.3,0.4c-1.3,0.8,0.7,0.5,0.7,1.4c0,2.5,6.7-2.1,3.3,0.7
		c-1.7,1.5-2.6,3.1-4.7,4.3c-2.3,1.3-7.1,8-10.2,6.9c-0.2-0.1-1.7-0.9-1.2-1.8c0.6-1.2,3.2-2.4,2.5-3c-0.8-0.7-3.4,0.8-5.1,0.9
		c-1.8,0-15.8-4.5-16-4.7c-1-1.1,4.6-2,9.1-3.3c2.1-0.6,3.8-1.4,4.8-2.1c1.9-1.3,7.7-0.2,9.2-0.7C41.9,13.6,43.7,13.4,45.3,13.7"/>
	<path class="st1" d="M76.8,14.2c-0.1-0.1-2.1-1.7-4.1-2.6c-1.7-0.8-3.4-0.8-3.5-0.8c-3.4-0.7-9.9,1.2-11.9,3.2
		c-1.6,1.6-2.3,3.5-4.4,4.7c-1.5,0.8-4.9,6.4-0.5,4.2c1.2-0.6,3-0.5,3.5-1.1c1.7-1.9,2.2-4.4,4.1-6.4c-1,0.9-1.7,2.2-2.2,3.5
		c0-0.1,0.1-0.3,0.1-0.4c0.3-1.4,0.5-1.9,0.9-2.4c2.5-3.3,6.9-4.7,10.9-4.3c1.6,0.1,4.4,1.1,6.9,2.6C76.6,14.2,76.7,14.3,76.8,14.2"
		/>
	<path class="st4" d="M68.6,40.3c0,0.1,0,0.2,0.1,0.3l0,0c0,0.2,0,0.8,0.1,0.9c0,0.1,0,0.1,0,0.2c-0.1-0.1-0.3,0-0.3,0.2
		s-0.1,0.4-0.2,0.6c-0.1,0.1-0.2,0.2-0.4,0.4c-0.2,0.1-0.6,0.1-1,0.1s-0.3-0.7-0.3-1c0-1.1-0.6-1.1-1.2-0.9V41
		c0.3-0.7-0.3-1.3-0.5-1.4c-0.8-0.6-0.7-2-1.4-2.6c-0.8-0.7-1.4-0.9-1.5-0.9c-0.2,0-0.4-0.4-0.7-0.4c-0.2,0-0.4,0-0.6,0
		c-2.3-0.1-5.4,0-6.5,0.4c-0.7,0.2-1.5,0.8-1.6,1.3c-0.2,0.9-0.3,1.9,0,2.4c0,0.1,0.3,0.5,1,0.4c0.3-0.1,0.9-0.6,1.1-0.9
		c0.1-0.1,0.2,0.1,0.3,0.2c0.7,0.4,1.1,0.5,1.9,0.7c0.4,0.1,0.9,0,1.3,0.1c0.7,0.1,0.9,0.5,0.8,0.6c-0.2,0-0.4,0-0.5,0
		c-0.5,0-1.8,0.3-2.3,0.5S55.6,42,55.3,42c-1.5,0.1-2.5-0.6-2.5-0.7c-0.1-0.3-0.5-0.8-0.7-1.3c-0.3-0.7-0.4-1.4-0.4-1.4
		c-0.1-0.2-0.4-1.1-0.8-1.5c-0.5-0.4-1.2-0.4-1.7-0.5c-0.3,0-0.5,0-0.7,0.2v0.1c-0.1-0.1-0.3-0.3-0.4-0.5c0.1,0,0.2,0.1,0.4,0.1
		c0.8,0,1.4-0.6,1.8-1.3c0.4-0.8,0.6-1,0.6-1.4c0-0.8-0.2-1.7,1.5-1.8c0.3,0,0.9,0.2,1.4,0.2c1.4,0,2,0.5,3.4,1.3
		c0.9,0.5,2.6,0.9,3.4,1.3c0.4,0.2,0.6,0.5,1,0.6c0.1,0,0.6,0.1,1,0.1c0.7-0.1,1.4-0.3,1.3-0.6c0,0,0-0.1-0.1-0.1
		c0.1,0,0.2,0.1,0.3,0.1H64c-0.1,0.1-0.2,0.6-0.4,0.7c-0.2,0.2-0.6,0.2-0.6,0.3c0,0.2,0.3,0.4,0.6,0.6c0.6,0.4,1.4,1,2.5,1.7
		C67,38.8,68.4,39.5,68.6,40.3 M65.6,36.7c0.1,0,0.1,0.1,0.2,0.1C65.7,36.8,65.7,36.7,65.6,36.7z M65.5,36.6
		C65.5,36.7,65.6,36.7,65.5,36.6C65.6,36.7,65.5,36.7,65.5,36.6z M64.4,35.6L64.4,35.6L64.4,35.6z M51.3,30.3
		c0.4-0.2,0.8-0.4,1.3-0.6c0.4,0.1,1-0.1,1.5,0c0.9,0.2,1.9,0.9,2.6,1.3c1.5,0.7,3.3,1.4,4.5,2.2c0.4,0.3,1,0.7,1.7,1
		c-0.8-0.3-2-0.5-2.3-0.5c-0.4,0-0.2-0.6-0.8-1c-1-0.5-2.3-1-2.9-1.4c-0.9-0.6-2.2-1-3-1.1C52.9,30.1,52.4,30.4,51.3,30.3z"/>
	<path class="st5" d="M93,54.4c-0.9,3.6-3.7,8.4-5.6,11.6c-0.4,0.7-0.7,1.2-0.6,1.7c0.2,0.6,1.1,1.4,1.8,2.4
		c1.2,1.7,3.1,3.6,4.5,4.1V54.4H93z M60.5,54.2c-0.8-0.7-1.9-1.7-2.8-2.8c-0.7-0.9-1-1.9-1.6-2.8c-0.4-0.7-0.7-0.5-0.9-1.3
		s0.1-1.6,0.4-2.6c0.2-0.6,1.1-0.9,2-1.4c0.7-0.4,0.7-0.8,1.6-1.1c1.6-0.4,4.2-0.5,5.3,0c1.1,0.3,0.3,0.5,0.3,1c0,1.5,0.6,2.7,0,4.2
		c-0.7,1.6-1.1,3.8-2,5.2c-0.5,0.7-0.7,0.6-0.7,1.6C62.1,55.6,60.7,54.3,60.5,54.2z M69.5,93.2c-0.4-2.9,0-5.4,0.5-7.1
		c0.7-2.7,2.1-4.5,4.3-4.5c1,0,2.1,0.7,3.8,1.9c0.5,0.3,0.4,0.8,0.6,1.1c0.4,0.6,0.6,0.9,1,0.9c0.7,0.1,1.8-1.2,1.8-3.7
		c0-1-0.3-5.9-1.8-5.9c-2.3,0-1.8,1.6-5.4,1.5c-0.7,0-0.6-0.7-1.2-1c-0.7-0.4-2.4-0.8-3-1.4c-1.9-1.9-1.5-4.5,2.6-5.6
		c0.5-0.1,3.2-0.4,3.2-1.4c0.1-0.1,0.2-0.2,0.4-0.3c0.4,0,1.7-1.1,1.8-1.2c0.7-0.7,1.7-2.5,2.5-3.3l0,0v-0.1c0-0.1,0.1-0.2,0.4-0.3
		c0.5-0.1,1.4-0.2,1.3-0.3s-0.2-0.2-0.3-0.2c-0.5-0.1-1.3,0.2-2.3,0.1c-2.5-0.2-5.9-0.5-7.1-0.1c-0.3,0.1-0.6,0.2-1,0.1
		c-0.3-0.1-0.7-0.1-1.1-0.2c-0.4-0.1-0.9-0.1-1.2-0.2h-0.1c0-0.1,0-0.2,0-0.5c0-1.5,1.3-1.6,2.4-2.1c0.6-0.3,0.8-0.9,0.9-1.5
		c0-0.1,0-0.1,0-0.2c-0.1,0-0.1,0-0.2,0.1c0.2-0.1,0.5-0.2,0.7-0.2c0.5,0,0.7-0.6,0-0.7c-0.7,0-1.5,0-2-0.3
		c-0.6-0.3-0.8-1.7-0.8-2.4c0-0.3-0.3-9.3-0.5-13c0-0.3,0.3-2.8-0.6-3.9c-0.7-0.9-1.7-1.7-2.7-2.2c-0.2-0.1-0.5-0.2-0.7-0.3
		c-0.6-0.4-4.8-2.7-4.9-2.8c-0.2-0.2-1.1-0.6-1.3-0.9c-0.6-0.8-1.3-1.7-1.4-2.3c-0.1-0.7,0-1.3,0.2-2c0.2-1,0.6-2,0.8-3
		c0.3-1.7-0.4-2.2,0.9-4.8c0.9-1.7,1.6-2.5,2.3-3.2c0.3-0.3,1.4-0.8,2.1-1c1-0.4,1.8-0.8,2.4-1.1c3-1.1,5.8-0.7,8.4,0.4
		c1.2,0.5,2.4,1.3,3.5,2c0.3,0.2,0.4,0.4,0.7,0.6c0.4,0.3,0.9,0.5,1.2,0.8c2.2,1.8,4.5,3.8,6.6,4.4c1.8,0.5,4.7,0.5,5.9,1.8v69H69.5
		V93.2z"/>
	<path class="st6" d="M79.1,39.9L79.1,39.9L79.1,39.9 M78,40.4L78,40.4c0.4-0.2,1-0.3,1.4-0.3c-0.2,0.4,0.6,0.7,0.5,1.2
		c0,0,0.7,0.1,1.2,0.1c0.2,0,0.4,0.1,0.4,0.1c1.3,0.1,2.4,0.5,3.5,0.4c0.4-0.1,1-0.2,1.4-0.4s0.6-0.5,1-0.8c0.3-0.3,0.5-0.6,0.7-0.9
		l0,0l0,0c-0.2-0.1-0.6-0.2-0.5-0.4c-0.1,0-0.3,0.1-0.4,0.1c-0.2,0-0.5,0.1-0.6-0.1c0,0,0.1-0.1,0.1-0.2c-0.2,0.1-0.3,0.2-0.5,0.3
		c-0.7,0.6-2.4,1.1-3.9,1c-0.4,0-1.3-0.2-2.1-0.4c-0.1,0-0.2-0.1-0.3-0.1l0,0l0,0l0,0l0,0l0,0l0,0l0,0l0,0l0,0l0,0l0,0l0,0l0,0l0,0
		l0,0l0,0l0,0l0,0l0,0l0,0l0,0l0,0c-0.2,0-0.3-0.1-0.5-0.1c-0.1,0-0.1,0-0.2,0s-0.4,0-0.8,0.1c-0.3,0.1-0.6,0.2-0.6,0.1
		c0,0-0.1-0.3,0-0.3c0.1-0.1,0.2-0.2,0.2-0.2c0.2-0.2,0.6-0.3,0.9-0.5c0.2-0.1,0.3-0.2,0.4-0.3c-0.2,0-0.4,0.1-0.7,0.2l0,0
		c-0.2,0.1-0.4,0.3-0.6,0.4c-0.3,0.2-0.5,0.3-0.3,0.6C77.7,40.2,77.8,40.3,78,40.4z"/>
	<path class="st7" d="M79.3,40.1L79.3,40.1L79.3,40.1c0.6,0.1,1.3,0.2,1.5,0.3c0.6,0.2,1.1,0.2,1.7,0.2c0.3,0,0.6,0.1,0.6-0.2
		c-0.3,0-0.5,0-0.7,0c-0.4,0-1.3-0.2-2.1-0.4c-0.1,0-0.2-0.1-0.3-0.1l0,0l0,0l0,0l0,0l0,0l0,0l0,0l0,0l0,0l0,0l0,0l0,0l0,0l0,0l0,0
		l0,0l0,0l0,0l0,0l0,0l0,0l0,0c-0.2,0-0.3-0.1-0.5-0.1c-0.1,0-0.1,0-0.2,0h-0.1l0,0C79,40,79.2,40.1,79.3,40.1"/>
	<path class="st3" d="M3.1,60.2c4,0.7,8.8-0.4,12.1-2.2c2.5-1.4,7.6-1.5,9.7-3.1c1.9-1.5-4.8,2.9-5.5,3.5c-1.4,1.2-7.1,4.7-9,4.7
		C7.5,63.1,5.5,60.3,3.1,60.2"/>
	<path class="st3" d="M22.2,62.7c-0.8,0.2-2.6,2-3,2.7c-0.7,1.3-0.8,2-1.2,3.5c-0.1,0.3-0.2,0.9-0.2,1.2c0.1,0.6,1.1-2.4,1.3-2.6
		c0.8-1.7,1-2.4,2.7-3.3C22.5,63.7,23.6,63.4,22.2,62.7"/>
	<path class="st3" d="M13.3,22.3c2.6,3.2,6.1,5,9.8,6.5c3.5,1.5,5.4,1.2,1.1,3c-2.2,0.9-5.1,0.7-7.5,0.7c-2.5,0-3.5-0.8-5.4-1.9
		c-1.3-0.7,2.4,0.6,3.1,0.1c0.9-0.6,0.5-1.3-0.4-2c-1.2-0.8,0.7-0.5,1.4,0.1c1.1,1.1,4.1,2,5.7,1.8c0.1,0-1.1-0.6-1.6-1
		c-1.7-1.1,0-0.5,0.3-1c0.1-0.2-4.3-2.4-4.8-3C13.8,24.3,13.1,23.7,13.3,22.3"/>
	<path class="st3" d="M44.1,9.8c-2.2-1.7-2.9-4.1-6.2-4.1c-2.4,0-6.5-0.1-8.5,1.3c-2.2,1.6-9.1-0.9-9.1,0.1c0,2.1,4.3,7,5.4,8.7
		c0.4,0.6,3.8-1.7,5-1.8c4.3-0.4,8-1.6,12.9-1.4c1.2,0.1,4.3,1.6,2.1-0.4C45.2,11.8,43.4,10.6,44.1,9.8"/>
	<path class="st3" d="M2.3,1.2c4.2,0.6,5.8,1.4,9.2,3.3c1.2,0.7,3.7,2.4,4.8,2.7c1.5,0.3,1.1,1.1,1.9,2.4c0.7,1,2.6,2.1,0.4,1.5
		c-2.4-0.6-5.1,0-7.6,0.3c-3.9,0.4-5.4-1.2-6.5-4.6C4.3,5.7,2.3,5.9,2.3,4.3C2.3,3.7,2.7,1.6,2.3,1.2"/>
	<path class="st8" d="M71.6,58.3C71.6,58.4,71.6,58.4,71.6,58.3c0,0.1-0.1,0.2-0.1,0.3c0,0,0,0-0.1,0s-0.2,0.1-0.4,0.1
		c-0.2,0-0.4,0-0.6,0.1c-0.1,0.1-0.2,0.3-0.3,0.4c-0.2,0.2-0.4,0.3-0.7,0.4c-0.4,0.2-0.9,0.4-1.2,0.6c-0.4,0.3-0.7,0.6-1,0.7
		c-0.2,0.1-0.4,0.3-0.6,0.3c-0.5,0-0.9-0.6-0.9-0.7c-0.2-0.3,0.3-0.7,0.3-0.8c0,0,0-0.1-0.3-0.7c-0.2-0.5-0.7-0.9-0.8-1.5
		c-0.4-1.5-0.2-3-0.1-3.4c0.1-0.6,0.3-1.4,0.5-2c0.2-0.7,0.6-1.3,0.8-2c0.4-1,0.7-2.1,1.1-3c0.5-1,0.7,0.7,0.9,2
		c0.1,0.6,0.4,1.1,0.4,1.3c0.1,0.9,0.2,1.8,0.4,2.3c0,1.2,0,2,0,2c0,0.2,0,0.4,0,0.7c0.6,0.4,0.8,1.1,1,1.5c0,0,0,0-0.1,0l0,0
		c0.3,0.1,0.5,0.3,0.6,0.4c0.3,0.3,0.5,0.6,0.5,0.9v0.1C71.3,58.4,71.5,58.4,71.6,58.3"/>
	<path class="st9" d="M43.5,13.8c-4-0.2-9.2,0.8-11.8,1.8c-1.3,0.5-2.3,1.2-2.3,0.9c0-0.2,0.8-1.3,1.9-1.9c1.3-0.7,1.7-0.9,1.9-1.1
		c0.2-0.1-0.1,0.5-0.2-0.5c-0.1-0.7,1.1-1.1,1.3-1.5c0.6-0.8-2,0-2.4,0c-3,0,3.2-2.4,4-2.5c1.4-0.1,2.1,0,3.4,0c1.3,0-0.7,1.8,1.8,2
		c0.3,0,0.9,1.2,2,1.7C44.2,13.3,43.6,13.9,43.5,13.8"/>
	<path class="st9" d="M40,16c1.8,0.2,3.5,0.7,5.2,0.3c1.2-0.3,0,1,1.9,2.7c0.9,0.8-0.5,1.7-2.2,2c-1,0.2-0.9-0.2-2.1-0.2
		c-1.9,0-4.9,0.4-5.4,0.4c-2.8,0-5.5-1.9-7.8-3c-0.4-0.2-0.3-0.1,0-0.7c0.4-0.6,1.4-0.4,1.6-0.5c0.3-0.1,1.8,0.7,3.2,1.3
		c0.8,0.3,1.3,0.5,2.1-0.1c0.5-0.4,0.7-0.9,0.5-1.2c-0.2-0.4-0.7-0.4-0.7-0.6C36.2,15.8,37,15.6,40,16"/>
	<path class="st9" d="M39.2,22.7l2.1-0.6l0.7,0.2c0.5,0.2-0.2,0.2-0.9,0.4c-0.5,0.2-1.1,0.4-1.2,0.5c-1.4,0.3-2.7,0.8-4.2,1
		c-0.4,0,1.1-0.7,0-0.7c-1.3,0-0.2-0.7,1.1-0.5C37.8,23.1,39,22.7,39.2,22.7"/>
	<path class="st9" d="M47.6,21.3c-0.8,0.5-1.4,1.4-2.2,2.1c-0.9,0.8-1.9,1.4-2.7,2.2c-1.6,1.4-1.1,0.6-0.1-0.4
		c0.3-0.3,0.8-0.8,0.9-1.1c0.1-0.2-0.1-0.3-0.2-0.4C43,23.5,42.5,23.4,42,24c-0.4,0.5-1,1-1.3,1.5c-0.4,0.8-0.5,1.5-1,2.2
		c-0.2,0.3-0.5,0.5-0.7,0.8c-0.5,0.7-0.1,0.5,0.4,0.4c0.4-0.1,0.8,0,0.3,0.5c-0.1,0.1-0.3,0.4-0.6,0.6c-0.4,0.4-0.9,0.7-1.2,1.1
		c-0.5,0.5-1,1.4-1,1.6c-0.1,0.2,0.2,0.3,0.5,0.1c0.3-0.1,0.6-0.8,0.9-0.9c0.8-0.2,0.3,0.4,0.5,0.5c0.2,0.1,0.5-0.1,0.6-0.2
		c0.8-0.6,1-1.3,1.2-1.9c0.2-0.5,0.5-1,0.8-1.5c0.8-1.3,2.1-2.3,3.3-3.5c0.5-0.4,0.7-1.1,1.2-1.5c0.6-0.4,2-1.5,2.2-2.2
		c0-0.2,0.2-0.8-0.1-0.8C47.9,21,47.5,21.2,47.6,21.3"/>
	<path class="st9" d="M21.9,38c3.8,0,7.3,0.4,10.4-0.6c0.8-0.2,0.9-0.7,1.6-1c0.7-0.4,1.9-0.7,2.5-1.2c1.6-1.3,3.8-1.9,5.4-3.4
		l4.5-4.4c0,0.7,0,1.6-0.6,2.4c-2.2,3.4-8.4,7.6-10.9,8.3c-1,0.3-2.6,0.3-5,0.4c-1.8,0.1-4.3,0.3-6,0.1C22.9,38.5,22.2,38.4,21.9,38
		"/>
	<path class="st9" d="M35.5,41.6c1.2-0.7,1.4-1.6,2.9-2.5c2.1-1.3,3-2.3,4.4-4.4c0.9-1.3,2.1-2.8,2.7-2.7c0.3,0,0.2,0.5,0.2,1.1
		c0,0.5,0.2,1,0.1,1.4c-0.1,0.5-0.8,1.2-1.1,1.8c-1.7,3.9-1.4,5.7-5,8.4c-0.7,0.5-2,0.8-2.6,1.1c0,0-0.3-0.5-0.2-0.7
		s0.2-0.6,0.3-0.8c0.1-0.5,0.2-0.5-0.2-0.7c-1.3-0.6-1.9-0.3-2.9-0.4c-0.6-0.1-1.5-0.2-2.2-0.8c-1-0.8-1.7-1.2-0.9-1.1
		c0.7,0.1,1.5,0.6,2.3,0.7C34,42.3,34.9,42,35.5,41.6"/>
	<path class="st9" d="M75.9,2.6c0,4.5,4.5,9.5,7.7,12.2c0.6,0.5,3.1,2.2,4,1.7c0.4-0.2-0.8-0.9-1-1.1c-0.5-0.5-0.3-3.1,0.6-3.1
		c0.5,0,1.3,0.4,1.8,0.2c0.1,0-1.6-1.9-1.9-2.2c-1.4-1.6-4-3.2-5-5c-0.6-1.1-1.1-2-1.4-3.3c-0.3-1.2-0.1,1-0.1,1.4
		c0,1.9-1.8,1.7-3.3,0.9C76.8,4,76.6,2.5,75.9,2.6"/>
	<path class="st9" d="M88.6,2.4c0,1.9,0.7,3.3,1.3,4.9c0.2,0.5,2.6,5,3.1,3.9v-5c-1.1-0.6-1.4-1.7-1.9-2.5c-0.5-0.7-1.6-4.9-1.6-1.5
		c0,0.3,0.3,1.5-0.1,1.4C88.6,3.6,89,2.6,88.6,2.4"/>
	<path class="st10" d="M42.6,13.8c-2.3,0-4.9,0.3-7.1,0.8c-0.2-0.1-0.3-0.2-0.2-0.3c0.1-0.2,0.6-0.8,0.3-0.9c-1.4-0.5-2.1-0.3-1-1.4
		c1.4-1.5,0.3-1.2-0.9-0.7c-0.6,0.1-1.5,0.3-1.7,0.3c-0.1,0-0.2,0-0.3,0c0.1-0.2,0.4-0.4,1.2-0.9c1.5-0.9,4.4-1.5,5.8-1.1
		c0.5,0.1,0.5-0.5,0.6,0.4c0.2,1.2,1.4,1.2,2.1,1.9C41.8,12.3,42.4,13.1,42.6,13.8"/>
	<path class="st10" d="M30.5,38.1c0.7-0.1,1.9-0.2,2.6-0.4c0.8-0.2,0.3-0.7,1-1.1c0.7-0.4,1.9-0.7,2.5-1.2c1.6-1.3,3.8-1.9,5.4-3.4
		l0.3-0.3c0.7,0,0.4,0.5,0.2,0.8c-0.6,0.7-2.5,1.9-3,2.4c-0.6,0.7-1.3,1-1.8,1.7c-1.2,0.7-2.1,1.4-2.8,1.6c-1,0.3-2.6,0.3-5,0.4
		c-0.2,0-0.4,0-0.7,0c0-0.1,0.1-0.1,0.2-0.2C29.6,38.2,30.2,38.3,30.5,38.1"/>
	<path class="st10" d="M77.3,5.7c0-0.6,1.1-0.2,1.4,0c0.9,0.6,1.1,0.6,2-0.3c1-1,0.5-0.8,1.5,0.5c0.1,0.2,2,2.1,1.5,2.1
		c-0.4,0-2.5-1.4-2.6-0.6c-0.1,1.1,1.2,2,2,2.6c0.7,0.4,1.7,0.8,2.3,1.3c0.3,0.2-0.1,0.5-0.7,0.5s-1.3-0.2-1.4-0.2
		c-1.6-0.4-2-0.5-1.5,0c0.4,0.4,1.6,1.2,1.6,1.6c0,0.2,0.5,1-0.2,0.8C81.2,13.6,77.2,7.5,77.3,5.7"/>
	<path class="st10" d="M90.3,3.1c0.2,1.1,1.5,2.7,2.3,3.3c0.2,0.1,0.3,0.2,0.4,0.3v4.1c0,0-0.1,0-0.1-0.1c-0.5-0.7-1.7-1.3-2-2.1
		C90.5,7.5,89.6,6,89.7,5C89.7,4.8,89.8,3.1,90.3,3.1"/>
	<path class="st10" d="M34.3,42.5c0.6,0,1.3-0.1,1.8-0.1c0.8,0,3.6-0.5,3.4,0.4c-0.1,0.6-1.8,1-0.1,1c1.9,0,2.5-1.6,3.4-2.9
		c0.3-0.5,1-2.3,0.3-2.8c-0.5-0.4-1.2-1.3-1.8-1c-0.9,0.5-1.8,1.5-2.7,2.3c-0.5,0.4-1,0.9-1.3,1.2c-0.6,0.6-1.1,0.8-1.8,1
		C35.2,41.7,34.2,42.2,34.3,42.5"/>
	<path class="st10" d="M44.8,25.3c0.6-0.8,1-1.7-0.5-1c-0.4,0.2-1.6,1.4-1.9,1.7c-0.5,0.5-2,1.1-2.2,1.5c-0.2,0.3-0.1,1.1-0.2,1.6
		c-0.1,0.3-1.8,2.2-1.4,2.2c0.4,0,0.3,0.5,0.5,0.5c1.1,0,1.9-3.2,2.8-3.9C42.5,27.3,44.7,26.3,44.8,25.3"/>
	<path class="st10" d="M39.6,16.2c0,0.5-1.4,0.4-0.9,0.8c1.2,0.9-2.1,0.4-0.2,1.4c0.3,0.2,1.6,0.8,0.6,0.9c-0.2,0-0.6,0.1-1,0.2
		c-0.2,0.1-1.2,0.1-2.1-0.1c-2.1-0.5-4.8-1.5-4.3-1.2c0.1,0.1,2.2,1.3,4.1,1.9c1.4,0.5,2.7,0.5,2.9,0.5c1.5,0.4,4,0.1,5.3,0.2
		c1.6,0.1,1.5-0.3,2.8-1.1c0,0,0.2-0.2,0.1-0.2c-2.1-0.2-0.8-3.1-2.9-2.8c-0.8,0.1-2.2-0.2-3-0.4C40.7,16.2,39.6,16,39.6,16.2"/>
	<path class="st11" d="M71,69.2c-0.2-0.6-3.3,0.4-3.6,0.4c-1.8,0.2-1.6,2.9-0.9,4.6c0.5,1.1,1.4,1.4,1.8,1.7
		c-0.8-0.6-1.1-1.4-1.2-2.1c-0.1-0.8,0.1-1.6,0.5-2.5c0.6-1.1,1.5-1.8,3-2.1C70.9,69.2,71,69.2,71,69.2"/>
	<path class="st12" d="M60.5,54.2c-0.8-0.7-1.9-1.7-2.8-2.8c-0.7-0.9-1-1.9-1.6-2.8c-0.4-0.7-0.7-0.5-0.9-1.3s0.1-1.6,0.4-2.6
		c0.2-0.6,1.1-0.9,2-1.4c0.7-0.4,0.7-0.8,1.6-1.1c1.6-0.4,4.2-0.5,5.3,0c1.1,0.3,0.3,0.5,0.3,1c0,1.5,0.6,2.7,0,4.2
		c-0.7,1.6-1.1,3.8-2,5.2c-0.5,0.7-0.7,0.6-0.7,1.6C62.1,55.6,60.7,54.3,60.5,54.2 M66,42.7c0.3-1.4-3.7-2-4.8-2
		c-1.4,0-2.2,0-2.7,0.4c-0.2,0.2-0.2,0.5-0.5,0.7s-0.7,0.4-1.1,0.7c-1.4,0.9-2.5,0.4-4.3,0.6c-1.8,0.2,0.4,6.1,1.3,7
		c1.6,1.7,2.1,4.3,3.9,5.5c1,0.7,3.9,6.9,4.7,6.9c0.3,0,0.8-0.2,1.3-0.3s1.1-0.5,1.2-1.2c0.3-1.4-0.7-3.8-0.5-5.4
		c0.1-2,0.3-3.6,0.6-4.7C65.9,47.8,66.5,44.6,66,42.7z"/>
	<path class="st13" d="M64.8,43.8c-0.3-0.2-0.6-0.7-1.3-0.8c-1.4-0.3-3.6-0.1-5.2,0c0.2-0.2,0.4-0.4,1-0.6c1.6-0.4,4.2-0.5,5.3,0
		c1.1,0.3,0.3,0.5,0.3,1C64.8,43.5,64.8,43.7,64.8,43.8"/>
	<path class="st13" d="M62,54.7c0.7-1.1,1.8-4.3,2.1-5c0.2-0.5,0.4-1.1,0.5-1.7c-0.6,1.6-1,3.5-1.8,4.8c-0.5,0.7-0.7,0.6-0.7,1.6
		C62.1,54.5,62.1,54.6,62,54.7 M58.3,43c-1.2,0.1-2.3,0.3-2.6,0.8c-0.4,0.5-2.5,1.8-1.6,2.9c0.6,0.7,0.4,2.5,1.4,3
		c1.2,0.6,1.7,3.9,3.3,4.2c0.9,0.2,1.8,1.3,2.9,1.3c0.1,0,0.2-0.1,0.3-0.3c-0.4,0.3-1.3-0.6-1.4-0.7c-0.8-0.7-1.9-1.7-2.8-2.8
		c-0.7-0.9-1-1.9-1.6-2.8c-0.4-0.7-0.7-0.5-0.9-1.3s0.1-1.6,0.4-2.6c0.2-0.6,1.1-0.9,2-1.4C58,43.3,58.1,43.2,58.3,43z M64.9,43.9
		C64.9,43.9,64.8,43.9,64.9,43.9c-0.1,0.2,0,0.6,0,0.9C64.9,44.5,64.9,44.1,64.9,43.9z"/>
	<path class="st14" d="M62.1,63.8c0.6-0.2,1.5-0.4,2.5-0.6c1.2-0.3,2.6-0.6,3.6-0.7c0.8-0.1,1.2,0,1.8,0.2c0.5,0.2,1.1,0.6,1.6,0.7
		c0.7,0,1-0.5,1.8-0.7s2-0.2,2.8-0.1l3.3,0.2c0.6,0,1.2,0.1,1.2,0.3c0,0.1-0.1,0.2-0.2,0.3c-0.2,0.2-0.5,0.4-0.7,0.4
		c-0.6,0.2-1.5,0-2.3,0.2s-1.5,0.4-1.8,0.4c-0.4,0.1-1.9,0.4-2.7,0.6c-0.5,0.1-0.7,0.4-1.2,0.4c-0.4,0-0.9,0-1.4-0.1
		s-0.9-0.1-1.2-0.1c-0.3,0.1-0.6,0.1-0.6,0.2c-0.9,0.9,0.2,2.2,1.4,2.8c1.1,0.6,2.1,0.6,2.7,0.6c0.1,0,0.3,0,0.1,0.1
		c-0.2,0.1-0.9,0.2-1.4,0.2c-1,0.1-2.4,0-3.5-0.4c-1.2-0.4-2.2-1-2.7-1.3c-0.4-0.3-1.2-0.9-1.8-1.6C62.7,65,62.2,64.2,62.1,63.8"/>
	<path class="st2" d="M72.7,65c-0.3,0.1-0.5,0.3-0.9,0.3s-0.9,0-1.4-0.1s-0.9-0.1-1.2-0.1c-0.3,0.1-0.6,0.1-0.6,0.2
		c-0.9,0.9,0.2,2.2,1.4,2.8c1.1,0.6,2.1,0.6,2.7,0.6c0.1,0,0.3,0,0.1,0.1c-0.2,0.1-0.9,0.2-1.4,0.2c-0.6,0-1.4,0-2.1-0.1
		c-0.5-0.5-0.4-1.1-0.8-1.8c-0.2-0.4-0.2-0.3-0.5-0.8c-0.8-1.1,0.6-1.4,1.3-1.4L72.7,65L72.7,65"/>
	<path class="st2" d="M70,62.8c0.5,0.2,1.1,0.6,1.6,0.6c0.7,0,1.1-0.6,1.8-0.8c0.8-0.2,1.9-0.1,2.8,0l1.7,0.1
		c-0.6,0.1-1.2,0.5-1.8,0.5c-1.5,0.2-2.3,0.5-4,0.5C71.2,63.7,70.6,63.2,70,62.8"/>
	<path class="st8" d="M71.4,66.8c0.1,0,0.2,0,0.3-0.1c0.1,0,0.3-0.1,0.5-0.1c0.1,0,0.1,0,0.2,0c0.2,0,0.4,0,0.5-0.1
		c0.1,0,0.1,0.1,0.1,0.1c0,0.8-0.1,0.9,0.8,1.2c0.7,0.3,1.8,0.2,1.6,0.3c0,0-0.1,0.1-0.2,0.1c-0.7,0.2-1.4,0.4-1.8,0.5
		c-0.1,0-0.3,0-0.4,0.1c-0.1,0-0.2,0-0.2,0c0.2-0.1-0.1-0.1-0.1-0.1c-0.7,0.1-1.7,0-2.7-0.6c-1.2-0.6-2.4-1.9-1.4-2.8
		c0.1-0.1,0.3-0.2,0.6-0.2c0.3,0,0.7,0,1.2,0.1c0.1,0,0.3,0,0.4,0c-0.8,0.1-2,1-0.8,1.6c0.1,0.1,0.5,0.1,0.8,0.1
		C71,66.9,71.2,66.9,71.4,66.8"/>
	<path class="st15" d="M71.9,68.5c0.1,0,0.2-0.1,0.3-0.2c0.1,0,0.4-0.1,0.4-0.2c0.1-0.3-0.1-0.5-0.4-0.6s-1,0.3-1,0.6
		C71.1,68.5,71.6,68.5,71.9,68.5 M73,66.5L73,66.5c0.5-0.1,0.9-0.1,1.3-0.1c0.2,0,0.4,0,0.5,0c0.5,0,0.9-0.1,1.3-0.2
		c0.9-0.2,1.9-0.5,1.7-0.3c-0.2,0.2-0.4,0.6-0.6,1c-0.3,0.3-1.1,0.7-1.2,1c0,0,0,0.2-0.1,0.2c-0.2,0.2-0.5,0.3-0.4,0.2
		c0.2-0.2-0.9-0.1-1.6-0.3c-0.9-0.4-0.8-0.5-0.8-1.2C73.1,66.6,73.1,66.5,73,66.5z"/>
	<path class="st0" d="M69.6,58.2c-0.2,0-0.8-0.2-0.9-0.3s-0.6-0.4-1.1-0.6c-0.6-0.2-1.4-0.2-1.2-0.5c0.3-0.1,1.2-0.2,1.9-0.1
		c0.6,0.1,1.1,0.4,1.1,0.5C69.8,57.7,69.4,57.9,69.6,58.2C69.5,58.1,69.6,58.2,69.6,58.2"/>
	<path class="st14" d="M66.3,56.9c0.5-1.2,3.7-0.2,4.4,0.4c0.3,0.3,0.5,0.6,0.5,0.9c0,0.2-0.1,0.3-0.3,0.3c-0.6,0-1.1,0.1-1.4-0.5
		c-0.1-0.2,0.3-0.3-0.1-0.7c-0.1-0.1-0.6-0.4-1.1-0.5C67.5,56.7,66.5,56.8,66.3,56.9L66.3,56.9z"/>
	<path class="st16" d="M70.1,56.9c-0.3-0.7-0.8-2-2.6-2c-0.5,0-1.4,0.3-1.7,0.7c-0.3,0.3-0.5,0.9-0.4,1.1c0,0.1,0.4,0,0.6-0.1
		c0.2,0,0.3,0,0.3,0l0,0C66.9,55.9,69,56.4,70.1,56.9L70.1,56.9"/>
	<path class="st12" d="M69.2,62.3C69.2,62.3,69.2,62.4,69.2,62.3c0.4,0.2,0.8,0.2,1.2,0.3c0.4,0.1,0.8,0.1,1.1,0.2
		c0.4,0.1,0.8-0.1,1-0.1c1.2-0.4,4.6-0.2,7.1,0.1c0.9,0.1,1.7-0.2,2.2-0.1c0.4,0.1,0.4,0.2,0.1,0.3s-0.9,0.1-1.3,0.3
		c0.1-0.1,0.1-0.1,0.1-0.2c-0.1-0.2-0.6-0.2-1.2-0.3l-1.6-0.1l-1.7-0.1c-0.9,0-2-0.2-2.8,0s-1.1,0.9-1.8,0.8l0,0l0,0l0,0l0,0l0,0
		l0,0l0,0l0,0l0,0l0,0l0,0l0,0l0,0l0,0l0,0l0,0l0,0l0,0l0,0l0,0l0,0l0,0l0,0l0,0c-0.4-0.1-0.9-0.4-1.3-0.6c-0.2-0.1-0.5-0.2-0.8-0.2
		C69.2,62.4,69.2,62.3,69.2,62.3"/>
	<path class="st17" d="M62.2,64c0.6,0.1,2.9,1,3.6,1.2c0.5,0.1,0.4,0.1,0.5,0.6c0.2,0.7,0.9,0.9,1.2,1.5c0.3,0.5-0.1,1.1-0.7,0.9
		C65.3,67.6,64.4,67.3,62.2,64 M70.2,65.1c-1.8-1.9-3.5-1.6-6-1c-0.4,0.1-0.9,0.1-0.8,0.1c0.1,0.1,1.2,0.2,1.4,0.2
		c0.8,0.1,1.1,0.2,1.8,0.3c0.6,0.1,1.3-0.1,2.4,0.1C69.5,64.9,70.1,65.3,70.2,65.1z"/>
	<path class="st18" d="M69.6,58.2c0,0,0.1,0.1,0.2,0.1s0.2,0.1,0.2,0.1c-0.7,0.3-0.9-0.1-1.6-0.3c-0.7-0.1-1.7,0-1.9-0.2
		c-0.5-0.3-0.8-0.5-0.9-1.1v-0.1c0.1,0,0.4,0,0.6-0.1c0.7-0.1,0,0.3,0.4,0.2c-0.2,0.3,0.6,0.3,1.2,0.5s1,0.5,1.1,0.6
		C69,58.1,69.2,58.1,69.6,58.2"/>
	<path class="st15" d="M69.1,54c-0.1-0.2-0.2-0.5-0.5-0.7c-0.4-0.4-0.8-0.6-1.5-0.6c-0.3,0-0.7,0.5-0.9,0.7
		c-0.3,0.5,0.1,1.2,0.6,1.6c0.1-0.1,0.2,0,0.2,0c0.2,0,0.3-0.1,0.5-0.1c0.7,0,1.2,0.2,1.6,0.5l0,0c0-0.3,0-0.5,0-0.7
		C69.1,54.7,69.1,54.4,69.1,54"/>
	<path class="st12" d="M67.2,52.8c0.6,0,0.7,0.4,0.9,0.8c0.1,0.1,0.2,0.8-0.1,0.9c-0.1,0-0.5,0-0.8,0c-0.5,0-0.7,0-0.8-0.2
		C66.2,53.8,66.5,52.7,67.2,52.8"/>
	<path class="st15" d="M68.8,42.4c-0.2,1-0.1,2-1.2,1.6c-0.1,0,0,0-0.4-0.2c-0.1,0-0.3,0.5-0.6,0.4c-0.3-0.2-0.4-1.3-0.5-1.3
		s-0.1-0.1-0.2-0.1c0.5,1.9-0.1,5.1-0.9,8c-0.3,1.1-0.5,2.7-0.6,4.7c-0.1,1.6,0.8,4.1,0.5,5.4c-0.1,0.8-0.7,1.1-1.2,1.2
		c-0.5,0.1-0.9,0.3-1.3,0.3c-0.8,0-3.7-6.2-4.7-6.9c-1.8-1.2-2.4-3.9-3.9-5.5c-0.9-0.9-3.1-6.8-1.3-7s2.8,0.3,4.3-0.6
		c0.5-0.3,0.9-0.5,1.1-0.7c0.2-0.2,0.2-0.6,0.5-0.7c-1.2,0.4-1.7,1.4-3.7,1.5c-0.9,0.1-1.7-0.3-2.5-0.4c-0.5-0.1-0.9,0.1-1.2,0.4
		c-0.4,0.4,0,2.6,0.8,4.7c0.6,1.6,1.6,3,1.6,3.3c0,0.9,4,6.2,4.1,6.3c0,0,3.2,5.4,4,5.9c0.1,0.1,0.3,0.2,0.6,0.2
		c0.5,0,1.2-0.1,1.9-0.2c1.2-0.3,2.2-0.5,2.4-0.5c0.3-0.1,0.5-0.1,0.6-0.2c0.3-0.1,0.3-0.1,0.8,0c0.1,0,0.3,0,0.3,0
		c0.1-0.2-0.4-1.2,0-1.4c1.3-0.8,3.6-1.7,3.5-1.8c0,0-0.1-0.2-0.2-0.3c-0.1,0-0.2,0.1-0.4,0.1c-0.2,0-0.4,0-0.6,0.1
		c-0.1,0.1-0.2,0.3-0.3,0.4c-0.2,0.2-0.4,0.3-0.7,0.4c-0.4,0.2-0.9,0.4-1.2,0.6c-0.4,0.3-0.7,0.6-1,0.7c-0.2,0.1-0.4,0.3-0.6,0.3
		c-0.5,0-0.9-0.6-0.9-0.7c-0.2-0.3,0.3-0.7,0.3-0.8c0,0,0-0.1-0.3-0.7c-0.2-0.5-0.7-0.9-0.8-1.5c-0.4-1.5-0.2-3-0.1-3.4
		c0.1-0.6,0.3-1.4,0.5-2c0.2-0.7,0.6-1.3,0.8-2c0.4-1,0.7-2.1,1.1-3c0.5-1,0.7,0.7,0.9,2c0.1,0.6,0.4,1.1,0.4,1.3
		c0.1,0.9,0.2,1.8,0.4,2.3c0-0.8,0-1.7-0.1-2.7C68.9,47.6,68.9,44.8,68.8,42.4"/>
	<path class="st19" d="M75.8,68.2c0.1,1-2.6,1.3-3.2,1.4c-4.1,1.1-4.5,3.7-2.6,5.6c0.6,0.6,2.3,1,3,1.4c0.6,0.3,0.5,0.9,1.2,0.8
		c4.2-0.6,3.1-1.4,5.4-1.4c1.5,0,1.8,4.9,1.8,5.9c0,2.5-1.1,3.8-1.8,3.7c-0.3-0.1-0.6-0.3-1-0.9c-0.2-0.3-0.1-0.8-0.6-1.1
		c-1.7-1.2-2.8-1.9-3.8-1.9c-2.2-0.1-3.6,1.8-4.3,4.5c-0.5,1.7-0.9,4.2-0.5,7.1h-5.9c0-1.3,0.3-5,1.3-8.1c1.2-3.5,3.3-6.6,5.9-7.7
		c0.4-0.2-0.3-0.4-0.7-0.5c-0.4-0.2-0.9-0.4-1.3-0.6c-1.1-0.7-1.5-1.5-1.6-2.5c-0.1-0.8,0.1-1.6,0.5-2.5c0.6-1.1,1.5-1.8,3-2.1
		c0.3-0.1,0.7-0.1,1.2-0.2s1-0.2,1.5-0.3C74,68.7,75,68.5,75.8,68.2 M93,54.4c-0.9,3.6-3.7,8.4-5.6,11.6c-0.4,0.7-0.7,1.2-0.6,1.7
		c0.2,0.6,1.1,1.4,1.8,2.4c1.2,1.7,3.1,3.6,4.5,4.1V54.4H93z M69.6,56.8L69.6,56.8L69.6,56.8L69.6,56.8z M71.9,58.3
		c-0.1,0-0.1,0-0.2,0C71.8,58.3,71.8,58.3,71.9,58.3z M72.2,58.2L72.2,58.2C72.1,58.2,72.1,58.2,72.2,58.2z M71,57
		c0.5,0.3,1.3,0.2,2,0.3c0.6,0,0.4,0.6,0,0.7c-0.3,0-0.5,0.1-0.8,0.2c0.1,0,0.2-0.1,0.2-0.1s0,0.1,0,0.2c-0.1,0.7-0.3,1.3-0.9,1.5
		c-1.1,0.5-2.4,0.6-2.4,2.1c0,0.6,0.1,0.6-0.5,0.4c-0.1,0-0.4-0.1-0.5-0.2c-0.4-0.2-0.5-0.5-0.5-0.8c0-0.4,0.7-1,1.4-1.2
		c0.5-0.2,1.2-0.6,1.6-0.7c0.7-0.2,0.8-0.6,0.9-1c0,0,0,0,0.1,0c-0.2,0-0.4,0-0.6,0v-0.1c0-0.3-0.2-0.6-0.5-0.9
		c-0.1-0.1-0.3-0.2-0.6-0.4l0,0c0,0,0,0,0.1,0c-0.2-0.4-0.5-1.1-1-1.5c0-0.3,0-0.5,0-0.7c0-0.1,0-2.2-0.1-4.8
		c-0.1-2.5-0.2-5.4-0.2-7.9c0-0.5,0.1-2.3-0.3-3.1c-0.5-1.1-2.6-1.9-3.5-2.6c-0.9-0.7-1-1.4-0.9-1.6c-0.3-0.1-0.6-0.3-1-0.4
		c-0.7-0.4-1.4-0.8-1.9-1.2c-1.3-0.9-3-1.5-4.5-2.2c-0.7-0.3-1.7-1.1-2.6-1.3c-0.8-0.2-1.5,0.3-1.9-0.2c-0.4-0.6,0.1-1.7,0.1-2.3
		c0-1.3,0.4-2.3,0.6-2.8c0.4-0.2,0.8-0.3,1.4-0.5c2.3-1.3,3.1-3.3,3.5-5.5c0.3-1.4,0.5-1.9,0.9-2.4c2.5-3.3,6.9-4.7,10.9-4.3
		c1.8,0.2,5.4,1.5,8.1,3.4c2.9,2.1,5.8,4.8,8.5,6.2c0.9,0.4,2.3,0.2,3.1,0.1c1.6-0.2,3.2-0.8,3.7-0.9v3.8c-1.2-1.3-4.1-1.2-5.9-1.8
		c-2.1-0.6-4.4-2.7-6.6-4.4c-0.3-0.3-0.8-0.5-1.2-0.8c-0.3-0.2-0.4-0.5-0.7-0.6c-1.2-0.7-2.3-1.5-3.5-2c-2.6-1.1-5.4-1.5-8.4-0.4
		c-0.6,0.2-1.4,0.7-2.4,1.1c-0.7,0.3-1.7,0.7-2.1,1c-0.8,0.7-1.5,1.5-2.3,3.2c-1.4,2.6-0.6,3.1-0.9,4.8c-0.2,0.9-0.5,2-0.8,3
		c-0.2,0.7-0.3,1.3-0.2,2c0.1,0.6,0.8,1.6,1.4,2.3c0.2,0.3,1.1,0.7,1.3,0.9c0.1,0.1,4.3,2.4,4.9,2.8c0.2,0.1,0.4,0.2,0.7,0.3
		c1,0.5,1.9,1.3,2.7,2.2c0.9,1.2,0.6,3.6,0.6,3.9c0.2,3.7,0.5,12.7,0.5,13C70.2,55.3,70.4,56.7,71,57z M77.1,39.7
		c0,0.1-0.6-0.4-0.6-0.4c-0.3-0.1-0.6-0.7-0.7-0.8c-0.6-0.7-0.2-1.4,0.3-2.4c0.8-1.3,1.5-0.9,0.7-2c-1.4-2.1,8.3-4.8,9.3-5.3
		c1.4-0.7,2.5-0.3,3.8,0.1c2.5,0.8,1.2,0.8-0.3,0.9c-1.2,0.1-0.6,1.8-2,2.1c-2.6,0.6,3,1.1,3,2.8c0,0.2,0,0.3,0,0.5
		c0.6,1.5-0.9,2.3-0.9,3.7c0,1.2-4.1,3.8-5.4,3.8c-0.9,0-2.3,0.4-3.1,0.1c-0.9-0.3-2-0.6-2.8-1.1c-0.2-0.2-0.3-0.1-0.3-0.2
		c0-0.2,1.1-0.3,1.8-0.3c0.7,0,1.1,0.1,1.7,0.1c1.3,0.1,2.4,0.5,3.5,0.4c0.4-0.1,1-0.2,1.4-0.4s0.6-0.5,1-0.8c1.1-0.9,1-2.1,2-2.9
		c0.5-0.4,0.6-1.4,0.6-1.8c-0.1-0.7-0.4-1-1-1.3c-1-0.5-3-0.4-4.6-0.2c-3.1,0.3-6.3,1.6-7.4,3.6C76.4,39,77.2,39.1,77.1,39.7z
		 M70,66.8c-1.2-0.6,0.2-1.6,1-1.6c0.3,0,0.6,0.1,1,0c0.3-0.1,0.5-0.2,0.8-0.3c0.6-0.2,1.4-0.3,2-0.4c0.4-0.1,0.8-0.3,1.2-0.3
		c0.7,0,1.2-0.3,1.9-0.4c0.6-0.1,1.4,0,2-0.1c0.2,0,0.8-0.4,0.6-0.3c-0.8,0.9-1.8,2.6-2.5,3.3c-0.2,0.1-2.1,1.5-1.9,1
		c0.1-0.3,0.9-0.6,1.2-1c0.3-0.3,0.4-0.8,0.6-1s-1.2,0.2-2.1,0.4c-0.3,0.1-1.8,0.1-3.2,0.2c-0.7,0.1-1.1,0.3-1.6,0.4
		C70.5,67,70.1,66.9,70,66.8z"/>
	<path class="st12" d="M71.6,68.2L71.6,68.2c0.2-0.1,0.3-0.1,0.3-0.2c0.1-0.1-0.1-0.2-0.2-0.3c-0.1,0-0.4,0.1-0.4,0.3
		C71.2,68.2,71.5,68.2,71.6,68.2"/>
	<path class="st20" d="M93,54.4c-0.9,3.6-3.7,8.4-5.6,11.6c-0.4,0.7-0.7,1.2-0.6,1.7c0.2,0.6,1.1,1.4,1.8,2.4
		c1.2,1.7,3.1,3.6,4.5,4.1V54.4H93z"/>
	<path class="st13" d="M80.8,77.6c-2.6,0.2-6.4,0.7-8.7,1.4c-3.4,1-6.8,9.1-6.3,14.2h3.8c-0.4-2.9,0-5.4,0.5-7.1
		c0.7-2.7,2.1-4.5,4.3-4.5c1,0,2.1,0.7,3.8,1.9c0.5,0.3,0.4,0.8,0.6,1.1c0.4,0.6,0.6,0.9,1,0.9c0.7,0.1,1.8-1.2,1.8-3.7
		C81.4,81.3,81.3,79.2,80.8,77.6"/>
	<path class="st17" d="M69.2,62.5c0,0,0-0.2-0.1-0.2l0,0c0,0,0,0-0.1,0s-0.4-0.1-0.5-0.1l0,0c-0.2,0-0.4-0.1-0.7-0.1
		c-0.3,0-0.6,0.1-0.8,0.1L64,63c-0.1,0-0.6,0.2-1.1,0.3c-0.2,0.1-0.4,0.2-0.7,0.2c-0.1,0.1-0.1,0.1-0.1,0.1c0.6-0.2,1.4-0.4,2.4-0.6
		c1.2-0.3,2.6-0.6,3.6-0.7C68.6,62.5,69,62.5,69.2,62.5"/>
	<path class="st2" d="M68.7,62.3c-0.3-0.1-0.5-0.2-0.6-0.2s-0.1,0-0.3,0c-0.2,0-0.3-0.1-0.4,0c-0.3,0-0.5,0.2-0.9,0.2
		c-0.2,0-1.2,0.3-2.4,0.5c-0.6,0.1-1.3,0.3-1.9,0.2c-0.3,0-0.5-0.2-0.6-0.2c-0.8-0.6-4-5.9-4-5.9c-0.1-0.1-4.2-5.5-4.1-6.3
		c0-0.3-1-1.7-1.6-3.3c-0.8-2-1.2-4.3-0.8-4.7c0.3-0.3,0.7-0.5,1.2-0.4c0.6,0.1,1.2,0.3,1.9,0.4c0,0,0,0-0.1,0c-1-0.4-2-1.3-2.2-1.5
		c-0.3-0.6-0.4-1.3-0.8-1.8c-0.6-0.7-1.1-0.6-1.4-0.7c-0.4-0.1-0.4,1.3-0.2,2.3c0.1,0.4,0.2,0.7,0.2,0.7c-0.1,0.1,0,1.8,0.3,3.5
		c0.3,1.6,0.9,3.2,1,3.5c0.3,0.8,2.8,4.7,3.3,5.7c0.4,0.8,1,1.7,1.4,2.5c0.9,1.6,2.1,2.8,3.2,4.6c0.7,1.1,2.5,4.1,3.9,5.2
		c0,0,0.4-0.2,0.3-0.3c-1.1-1.2-1.2-2.4-1.2-2.5c0.3-0.1,0.6-0.3,0.9-0.4c0.4-0.1,0.9-0.3,1.1-0.3l3-0.8c0.2-0.1,0.5-0.1,0.8-0.1
		c0.2,0,0.4,0,0.6,0.1C68.5,62.3,68.7,62.3,68.7,62.3"/>
	<path class="st2" d="M63.9,34.7c-0.1,0.1-0.2,0.6-0.4,0.7c-0.2,0.2-0.6,0.2-0.6,0.3c0,0.2,0.3,0.4,0.6,0.6c0.6,0.4,1.4,1,2.5,1.7
		c1.2,0.8,2.7,1.7,2.7,2.5c0,0.2,0,0.8,0.1,0.9c0-0.8,0-2-0.3-2.6c-0.5-1.1-2.6-1.9-3.5-2.6c-0.9-0.7-1-1.4-0.9-1.6
		C64.1,34.7,64,34.7,63.9,34.7 M64.6,41.3c0.9-0.3,2-0.9,2,0.6c0,0.3,0,1,0.3,1c0.8,0.1,1.5-0.1,1.6-1.1c0-0.2,0.2-0.4,0.3-0.2
		c0,0.1,0,0.3,0,0.3c0,0.1,0,0.3,0,0.4c-0.2,1-0.1,2-1.2,1.6c-0.3-0.1-0.6,0.1-0.8,0.2c-0.1,0.1-0.2,0-0.2,0
		c-0.3-0.2-0.4-1.3-0.5-1.3s-0.1-0.1-0.2-0.1l0,0C66.2,42.1,65.5,41.6,64.6,41.3z"/>
	<path class="st2" d="M69.1,69.1c-0.2,0-0.3-0.1-0.5-0.2c-0.2,0-0.4-0.1-0.6-0.2c-0.4-0.1-0.8-0.3-1.2-0.5c0,0.2,0,0.4-0.2,0.6
		s-0.6,0.4-0.9,0.4c-0.4,0-0.8-0.3-1-0.1c-0.6,0.8-0.4,1.2-0.3,1.7c0.2,0.8,0.7,1.6,1.3,3.2c0.1,0.1,0.4,0.7,0.8,0.9
		c-0.1-0.1,0.6,0.4,1.3,0.7c0.6,0.3,1.2,0.6,1.2,0.6c-0.2-0.1-0.4-0.3-0.6-0.4c-0.2-0.2-0.8-0.6-1.1-1c-0.4-0.5-0.7-1.1-0.8-1.4
		c-0.3-1.3,0.1-3.3,1.2-3.9c0.2-0.1,1.2-0.3,2.2-0.5c-0.2,0-0.4,0-0.6-0.1C69.2,69,69.1,69,69.1,69.1"/>
	<path class="st3" d="M66.2,74.7c-0.4-1.4-1-3.3,0-4.6c0.4-0.5,0.9-1.1,1-1.6c-0.8-0.3-1.5-0.7-1.9-1s-1.2-0.9-1.8-1.6
		c-0.4-0.5-0.8-0.9-1-1.3c0,0-0.2-0.3-0.2-0.5c0-0.1,0-0.1,0-0.2c0-0.1,0-0.1,0-0.1s-0.1,0-0.1,0.1s0,0.2,0,0.3
		c0.1,0.5,0.4,1.3,1.1,2.1c0.1,0.1-0.2,0.4-0.3,0.3c-1.4-1.1-3.2-4.1-3.9-5.2c-1.2-1.8-2.4-3-3.2-4.6c-0.5-0.8-1.1-1.8-1.4-2.5
		c-0.5-1.1-3-5-3.3-5.7c-0.1-0.3-0.6-1.9-1-3.5c-0.4-1.7-0.5-3.4-0.3-3.5c0,0-0.2-0.3-0.2-0.7c-0.1-0.9-0.2-2.4,0.2-2.3
		c0.3,0.1,0.9,0,1.4,0.7c0.4,0.5,0.5,1.2,0.8,1.8c0.1,0.2,1.1,1.1,2,1.5c0.1,0,0.1,0,0.2,0.1c0.2,0,0.3,0,0.5,0
		c2-0.2,2.6-1.2,3.7-1.5l0,0l0,0c0.3-0.2,0.8-0.3,1.5-0.3c-0.1,0-1.1-0.1-1.4-0.1c-0.5,0-1.8,0.3-2.3,0.5s-0.6,0.6-0.9,0.6
		c-1.5,0.1-2.5-0.6-2.5-0.7c-0.1-0.3-0.5-0.8-0.7-1.3c-0.3-0.7-0.4-1.4-0.4-1.4c-0.1-0.2-0.4-1.1-0.8-1.5c-0.5-0.4-1.2-0.4-1.7-0.5
		c-0.3,0-0.5,0-0.7,0.2c-0.3,2-0.5,3.6,0,5.7c2,8.6,6.3,22.8,16.5,31.4C65.3,74,65.8,74.3,66.2,74.7"/>
	<path class="st21" d="M49.5,46.7c0.8,10.4,8.8,24.1,15.5,27c0.1,0,0.1,0.1,0.2,0.2c0.1,0,0.1,0,0.2,0.1c-3.5-4.6-6.8-8.8-9.3-13.3
		C53.8,56.6,51.8,51.1,49.5,46.7"/>
	<path class="st3" d="M68.5,76.1L68.5,76.1c0.2,0.1,0.3,0.1,0.4,0.2c0.4,0.3,0.9,0.5,1.3,0.6c0.4,0.2,1.1,0.3,0.7,0.5
		c-2.6,1.1-4.7,4.2-5.9,7.7c-1.1,3.1-1.3,6.8-1.3,8.1h-1.3c0-1,0.8-1.7,0.8-2.6c0-0.4-0.7-0.6-1-1s-0.2-1-0.2-1.3
		c0.1-1.4,0.9-2.5,1.4-3.9c0.9-2.5,2.5-5.2,5.6-8C68.8,76.2,68.7,76.2,68.5,76.1"/>
	<path class="st3" d="M35.9,60.9c-2.2,0.8-5.5,1.9-7.4,3.1c-1,0.6-2.8,1.9-3.5,2.7c-0.2,0.3-0.4,0.7-0.6,1c-1,1.7-0.2-0.5,0.2-1.1
		c0.8-1.1,1.8-1.9,2.8-2.7c0.7-0.6,0.4-0.9,1.8-1.3C31.7,62,33.1,59.2,35.9,60.9"/>
	<path class="st3" d="M36.4,48.1c-1.6,2-3.5,3.6-6,3.9c-0.8,0.1-1.5,0.3-2.2,0.6c-0.3,0.1,1.5-0.9,2.2-1.1c1-0.3,2.1-1.2,2.6-2
		c0.6-0.9,1.4-2.1,2.2-2.9c0.8-0.8,0.4-0.1,1.1,0.2C37.3,47.3,36.7,47.2,36.4,48.1"/>
	<path class="st22" d="M77.7,39c0-0.1,0.2-0.4,0.2-0.5c0-0.2-0.2-0.3-0.1-0.5c0.1-0.3,0.5-0.6,0.8-0.8c0.5-0.5,0.7-0.9,1.4-1.2
		c0.5-0.3,1.5-0.6,2.1-0.8c1-0.4,2-0.7,3-0.8c0.8-0.1,1.6-0.1,2.2,0.2c0.3,0.1,0.8,0.5,1,0.9c0.1,0.3,0,0.6,0,0.8
		c0,0.1-0.8-0.8-1.6-0.9c-0.4,0-0.7,0-1,0c-0.6,0-1.1,0-1.4,0.1c-0.5,0.1-0.3,0.3-0.3,0.3c0.2,0.2,1.2,0,1.4,0
		c0.6,0,2.9,0.5,3.6,1.3c0.2,0.3,0.5,0.4,0.2,0.7c-0.2,0.2-0.8,0.5-1,0.4c-0.5-0.3-0.5-0.5-1.1-0.7s-1.3-0.3-1.9-0.3
		c-0.4,0-0.5,0-0.6,0.1c-0.1,0.2,0.2,0.5-0.2,1.1C83.9,38.8,83.5,39,83,39c-1,0-1.4-0.6-1.8-1.4c-0.3-0.1-0.9,0-1.5,0.3
		c-0.7,0.4-1.2,0.9-1.4,1.1c-0.2,0.2-0.7,0.6-0.8,0.8c0,0-0.1-0.2,0-0.4C77.5,39.3,77.7,39,77.7,39"/>
	<path class="st0" d="M84.1,35.7c0.3,0.1,1.1,0,1.3,0c0.6,0,2.9,0.5,3.6,1.3c0.2,0.3,0.5,0.4,0.2,0.7c-0.2,0.2-0.8,0.5-1,0.4
		c-0.5-0.3-0.5-0.5-1.1-0.7s-1.3-0.3-1.9-0.3c-0.2,0-0.3,0-0.4,0c-0.4-0.2-0.8-0.4-1.1,0c-0.1,0.1,0,0.4,0.1,0.5s0.2,0,0.4,0.2
		c0.1,0.1,0.2,0.3,0.3,0.5l0,0c-0.6,0.5-1,0.7-1.5,0.7c-0.2,0-0.3,0-0.4-0.1c-0.4-0.2-0.6-0.6-0.9-1c0-0.1-0.2-0.1-0.3,0
		c-0.1,0.1-0.2-0.1-0.2-0.1c-0.1-0.1-0.8,0.3-1.1,0c-0.3-0.4,0.6-1,0.9-1.2C81.9,36,83,35.8,84.1,35.7"/>
	<path class="st2" d="M83.8,37.1C83.9,37,83.9,37,84,37l0.1,0.1L84,37.2l-0.1,0.1C83.8,37.3,83.8,37.3,83.8,37.1
		C83.8,37.3,83.8,37.2,83.8,37.1"/>
	<path class="st1" d="M77.6,40.5C77.6,40.5,77.5,40.4,77.6,40.5c0.1-0.1,0.5-0.1,0.5-0.2c0.5-0.2,1.6-0.3,1.8-0.1
		c0.1,0.1,0.3,0.3,0.3,0.5c0,0.1,0.1,0.2,0,0.2c-0.3,0.2-1,0-1.4,0C78.5,41,77.7,40.8,77.6,40.5"/>
	<path class="st23" d="M79.9,40.2c0.6,0.1,1.1,0.2,1.7,0.3c0.2,0-0.1,0.1-0.2,0.2c-0.1,0.1-0.1,0.3-0.1,0.4c0,0.1,0.1,0.2-0.1,0.2
		s-0.4-0.1-0.6-0.1s-0.3,0-0.4-0.1l0,0c0.1,0,0.1-0.1,0.2-0.1c0.1-0.1,0-0.1,0-0.2C80.2,40.6,80.1,40.4,79.9,40.2L79.9,40.2"/>
	<path class="st2" d="M81.6,40.6c0.3,0,0.7,0.1,1,0.1c0.1,0,0.2,0,0.3,0c0.1,0,0.1,0,0.1,0c0.1,0.2-0.1,0.2-0.2,0.2
		c-0.2,0-0.8-0.3-0.7,0c0,0.2,0.1,0.2-0.1,0.4c-0.1,0.1-0.2,0.1-0.4,0c-0.2,0-0.3,0-0.5-0.1c0.2,0,0.1-0.1,0.1-0.2
		c0-0.1,0-0.3,0.1-0.4C81.5,40.7,81.7,40.6,81.6,40.6"/>
	<path class="st5" d="M85.5,37.4c-0.1,0.7-0.3,1.3-0.9,1.8c-0.8,0.7-2,0.9-3,0.1c-0.1-0.1-0.6-0.5-0.8-0.8c-0.2-0.3-0.6-0.2-0.6-0.2
		c-0.1,0-0.5,0.3-0.7,0.6c-0.1,0.2-0.4,0.3-0.4,0.3c0,0.1,0.1,0.2,0.1,0.4c0,0.1,0,0.2,0,0.3c0.3,0,0.7,0.1,1.2,0.2
		c0.8,0.2,1.7,0.3,2.1,0.4c1.4,0.1,3.2-0.4,3.9-1c0.5-0.4,1.3-0.6,1-1.5c-0.1-0.3-0.5-0.5-0.9-0.6C86.1,37.2,85.8,37.1,85.5,37.4"/>
	<path class="st12" d="M78,39.7c0,0-0.1,0.1-0.2,0.2c-0.1,0.1,0,0.3,0,0.3c0.1,0.1,0.3,0,0.6-0.1c0.3-0.1,0.7-0.1,0.8-0.1
		c0.1,0,0.1,0,0.2,0c-0.1,0-0.2,0-0.2,0c-0.1,0,0-0.2,0-0.3s-0.1-0.3-0.1-0.4c0-0.1,0.1-0.1,0.2-0.1c0.1-0.1,0.3-0.3,0.2-0.3
		c-0.1,0-0.3,0.2-0.5,0.3C78.6,39.3,78.2,39.4,78,39.7"/>
	<path class="st12" d="M79.3,39.1c0.2,0,0.5-0.4,0.6-0.5c0.2-0.1,0.3-0.1,0.6-0.1c0.2,0,0.3,0.2,0.5,0.2c-0.1-0.1-0.2-0.2-0.2-0.3
		c-0.2-0.3-0.6-0.2-0.6-0.2c-0.1,0-0.5,0.3-0.7,0.6C79.4,39,79.3,39.1,79.3,39.1L79.3,39.1"/>
	<path class="st12" d="M85.8,37.2c0.8,0,1.7,0.1,2.2,0.7c0.2,0.2,0,0.6-0.2,0.7c-0.1,0.2-0.2-0.3-0.3-0.4c-0.1-0.1-0.2-0.2-0.3-0.2
		c0,0,0,0,0-0.1c-0.1-0.3-0.5-0.5-0.9-0.6C86.2,37.3,86.1,37.2,85.8,37.2C85.9,37.2,85.9,37.2,85.8,37.2"/>
	<path class="st2" d="M77,39.6c0,0.1,0.1,0.2,0.1,0.3c0.1,0.5,0.3,1.2,0.8,1.5c0.1,0.1,0.2,0.1,0.3,0.1l0,0c0-0.2,1.1-0.3,1.8-0.3
		l0,0l0,0c0,0,0.1-0.1,0.1-0.2c-0.4,0.1-0.7-0.1-1-0.1c-0.5,0-1.3-0.2-1.4-0.6c0,0,0.1,0,0.2,0s0.2-0.1,0.2-0.1
		c-0.2,0-0.3-0.1-0.3-0.2c-0.2-0.4,0.1-0.5,0.3-0.6c0.2-0.1,0.4-0.3,0.6-0.4c-0.2,0.1-0.3,0.1-0.4,0.1s0-0.1-0.1-0.1
		c-0.1,0.1-0.1,0.1-0.2,0.2c-0.1,0-0.3,0.3-0.4,0.4c0,0,0-0.1,0-0.3c0-0.1,0.1-0.2,0.1-0.3s0-0.2,0-0.2c0-0.1,0.2-0.4,0.2-0.5
		c0-0.2-0.2-0.2-0.1-0.4c0.1-0.3,0.5-0.6,0.8-0.8c0.4-0.4,0.7-0.7,1.3-1.1c0.7-0.4,1.5-0.7,2.3-1c1-0.4,2.1-0.7,2.9-0.8
		s1.6-0.1,2.2,0.2c0.3,0.1,0.8,0.5,1,0.9c0.1,0.3,0,0.6,0,0.8c0,0,0,0-0.1,0c0,0.1,0,0.2,0,0.3c0.3,0.2,0.6,0.3,0.8,0.5
		c0.2,0.3,0.5,0.4,0.2,0.7c-0.2,0.2-0.8,0.5-1,0.4c0,0,0,0-0.1,0l0,0c0.1,0.2-0.1,0.5-0.2,0.7l0,0c0,0.1-0.1,0.4-0.2,0.6
		c-0.1,0.2,0.4,0.3,0.5,0.4c0.4-0.7,0.6-1.5,1.3-2.1c0.5-0.4,0.6-1.4,0.6-1.8c-0.1-0.7-0.4-1-1-1.3c-0.1-0.1-0.2-0.1-0.4-0.2
		c-0.4-0.1-0.9-0.1-1.3-0.2c-0.9,0-2,0-3,0.2c-3.1,0.3-6.3,1.6-7.4,3.6C76.4,39,77.2,39.1,77,39.6C77.1,39.7,77.1,39.7,77,39.6"/>
	<path class="st2" d="M82.1,39.6c-0.1-0.2-0.3-0.4-0.3-0.6c0-0.1-0.1-0.4,0.2-0.3c0.3,0.2,0.6,0.3,1,0.3s0.9-0.2,1.3-0.8
		c0,0,0-0.1,0.1-0.1c0.2,0.1,0.3,0.6,0.2,0.9l-0.1,0.1C83.9,39.6,83,39.9,82.1,39.6C82.2,39.6,82.1,39.6,82.1,39.6"/>
	<path class="st23" d="M79.4,38.9C79.4,38.9,79.4,38.8,79.4,38.9c-0.3,0-0.5,0.1-0.8,0.2c-0.2,0.1-0.3,0.2-0.5,0.2
		c-0.1,0,0-0.1-0.1-0.1c0,0,0.1-0.1,0.2-0.1c0.2-0.2,0.8-0.7,1.4-1.1c0.4-0.2,0.8-0.3,1.2-0.4c0.2,0,0.3,0.1,0.4,0.2
		c0.2,0.4,0.4,0.7,0.7,0.9c0,0,0,0,0,0.1c-0.2,0-0.2,0.2-0.2,0.3c0,0.2,0.2,0.4,0.3,0.6l0,0c-0.2-0.1-0.4-0.2-0.5-0.3
		S81,39,80.8,38.7l0,0l0,0l0,0l0,0l0,0l0,0l0,0l0,0l0,0c0,0,0,0,0-0.1C80.4,37.9,79.6,38.6,79.4,38.9"/>
	<path class="st23" d="M77.7,33.5c0.1,0,0.2,0.3,0.3,0.3c0.4,0,0.8-0.2,1.3-0.3c0.8-0.2,1.7-0.5,2.5-0.8c1-0.4,1.9-0.8,2.4-1.1
		c0.5-0.3,1.2-0.6,2-0.9c0.7-0.3,1.4-0.7,2-0.9c0,0,0.3-0.1,0.7-0.2c0.3,0,0.7,0.1,0.9,0c0.1-0.1,0-0.3-0.4-0.4
		c-1.1-0.3-2-0.1-2.8,0.2c-1.1,0.4-2.2,0.9-3.5,1.4c-0.9,0.3-2.3,0.8-3.3,1.1c-0.1,0-0.6,0.3-0.9,0.4c-0.5,0.2-0.9,0.4-1,0.8
		C77.8,33.2,77.6,33.4,77.7,33.5"/>
	<path class="st24" d="M77.7,33.3c0,0.6,0.9,0.3,1.7,0.1c0-0.4-0.7-0.1-0.7-0.6c0-0.3,0-0.2,0.1-0.4c-0.2,0-0.3,0.1-0.5,0.2
		C78.2,32.7,78.1,33.3,77.7,33.3 M85.4,31c0.1,0,0.1-0.1,0.2-0.1c1.4-0.9,2.4-1.3,4.2-1.3c2.1,0-1.1-0.6-1.8-0.6
		c-1.1,0-2.9,1-4.3,1.6c0.7,0,1.6,0.1,1.6,0.2C85.2,30.9,85.3,30.9,85.4,31z"/>
	<path class="st7" d="M82.7,40.5c1.1,0,2.3-0.3,3.1-0.7v0.1c0.1,0.4,0.6,0.3,0.9,0.3c0.4,0.1-0.3,0.4-0.5,0.5
		c-0.5,0.2-0.6,0.2-1.1,0c-0.7-0.3-1,0.3-1.7,0.2C83.3,40.9,83,40.6,82.7,40.5"/>
	<path class="st7" d="M86.8,39.2c-0.1,0.1-0.2,0.2-0.1,0.2c0.1,0.2,0.4,0.1,0.6,0.1s0.3-0.1,0.4-0.1l0,0c0.1-0.2,0.3-0.5,0.2-0.6
		c-0.1-0.1,0,0.1-0.1,0s-0.2-0.4-0.2-0.4c-0.1-0.1-0.2-0.2-0.3-0.2C87.5,38.7,87.2,38.9,86.8,39.2"/>
	<path class="st25" d="M88.3,36.2L88.3,36.2c0,0.1,0,0.2-0.1,0.3c-1-0.5-2.4-0.8-2.9-0.8c-0.2,0-1.2,0.1-1.4,0c0,0-0.6,0-0.6-0.1
		s0.6-0.2,0.8-0.3c0.3-0.1,0.8-0.1,1.4-0.1c0.3,0,0.7,0,1,0C87.5,35.4,88.2,36.1,88.3,36.2"/>
	<path class="st26" d="M84.4,38.1L84.4,38.1c0.3-0.6,0.1-0.9,0.1-1c0,0,0.1-0.1,0.2-0.1l0,0c0.1,0,0.2,0,0.4,0c0.2,0,0.4,0,0.5,0
		s0.2,0,0.3,0l0,0l0,0c0.3,0,0.6,0.1,0.9,0.2l0,0c0,0-0.1,0-0.2,0c-0.3,0-0.6-0.1-0.8-0.1c-0.2,0-0.4,0.1-0.4,0.2
		c-0.1,0.6-0.3,1.2-0.8,1.7C84.7,38.7,84.6,38.3,84.4,38.1"/>
	<path class="st3" d="M54.9,32.6c-1.1-0.6-2.4-0.3-2.8,0.4c-0.4,0.5-0.1,1.2,0.4,1.6c0.3,0.3,0.7,0.7,1.6,0.7l3.1-0.1l2.6,0.1
		c1.7,0.1,2.3,0.5,3.6,1.5c0.4,0.3,2.2,1.8,3.6,2.7c0.2,0.2,0.9,0.4,1.1,1.1c0.1,0.2,0.1,1.2-0.4,1.7c-0.1,0.1-0.3,0.2-0.6,0
		c-0.2-0.1-0.3-0.8-0.5-1.1C66.4,41,66.2,41,66,41c0.3,0.1,0.5,0.3,0.5,1c0,0.3,0,1,0.3,1c0.8,0.1,1.5-0.1,1.6-1.1
		c0-0.2,0.2-0.3,0.3-0.2c0-0.1,0-0.1,0-0.2c-0.1-0.1-0.1-0.7-0.1-0.9c0-0.9-1.5-1.7-2.7-2.5c-1.1-0.7-1.8-1.3-2.5-1.7
		c-0.2-0.2-0.6-0.4-0.6-0.6c0-0.2,0.4-0.2,0.6-0.3c0.2-0.2,0.3-0.6,0.4-0.7l0,0c-0.2-0.1-0.5-0.2-0.7-0.3c-0.7-0.4-1.4-0.8-1.9-1.2
		c-1.1-0.8-2.6-1.4-4-2c0.5,1,1.2,2.2,0.5,2.4c-0.1,0-1.2-0.3-1.9-0.6C55.2,32.8,55,32.6,54.9,32.6"/>
	<path class="st27" d="M56.7,21.6c-0.3,0.8-0.5,1.5-0.8,1.9c-0.8,1.1-2.3,1-2.8,1.5c-0.8,0.8-0.8,1.8-0.6,3.8c0,0.3,0.3,0.7,0.5,1
		h-0.1c-0.2,0.1-0.7,0.2-0.8,0.2c-0.3,0.1-0.7,0.5-1.1,0.2c-0.6-0.6-0.9-1.6-1.1-2.4c0.2-0.6,0.4-1,0.6-1.4c0.5-0.9,1.4-1.7,4-2.5
		C55.4,23.3,56.2,22.5,56.7,21.6 M78.2,15.4c-1.2-0.8-2.4-1.4-3.6-1.6c-4.8-0.9-6.8-2-9.5-1.3c-1.3,0.3-2.3,0.9-4.3,2.2
		c-1.5,1-2.4,2.5-3,4.1c0-0.1,0.1-0.3,0.1-0.4c0.3-1.4,0.5-1.9,0.9-2.4c2.5-3.3,6.9-4.7,10.9-4.3c1.8,0.2,5.4,1.5,8.1,3.4
		C77.8,15.1,78,15.2,78.2,15.4z M93,21.4c-1.7,0.6-3.6,0.5-5,0.2c-0.2-0.1-0.4-0.1-0.6-0.2c0.7,0,1.5-0.1,2-0.1
		c1.6-0.2,3.2-0.8,3.7-0.9L93,21.4L93,21.4z"/>
	<path class="st28" d="M89.4,34.8c-0.1-0.3-0.6-0.5-1-0.7c-2.8-1-9.4,0.4-11.3,3c-0.1,0.2-0.3,0.6-0.4,0.9c-0.1,0.6,0,1.1,0.1,0.9
		c0.2-0.5,0.5-0.9,0.7-1.3c0.6-0.9,1.2-1.4,2.8-2.2c1.2-0.5,3.6-1.2,5-1.2c0.9,0,1.8,0,2.7,0.1C88.5,34.4,89,34.6,89.4,34.8"/>
	<path class="st29" d="M53.4,34.1c0.5,0.2,0.7,0.4,1.3,0.5c0.5,0.1,2.3,0.3,2.7,0.1c0.2-0.1-0.5-0.3-1-0.5c-0.2-0.1-1.2-0.8-2-1.1
		c-0.5-0.2-0.9-0.1-1,0C53.3,33.3,53.1,34,53.4,34.1"/>
	<path class="st29" d="M55.7,38.3c0-0.3,0.2-0.5,0.5-0.5c0.1,0,0.1,0.4,0.1,0.5c0,0.4,0.1,0.7,0.4,0.9c0,0,0.1,0,0.1,0.1
		c0.1,0.1,0.6,0.3,0.6,0.4c0,0.1-0.1,0.1-0.2,0.1c-0.1,0-0.3-0.1-0.4-0.1C56.4,39.4,55.7,38.7,55.7,38.3"/>
	<path class="st30" d="M54,33.9c0.2,0.1,0.3,0.2,0.5,0.2c0.6,0.1,0.7,0.1,0.6,0c-0.1-0.2-0.3-0.5-0.7-0.6c-0.1,0-0.5-0.2-0.6-0.1
		c0,0,0,0.1-0.1,0.1C53.8,33.7,53.8,33.9,54,33.9"/>
	<path class="st12" d="M41.4,37.7c-1.5,1.1-2.4,2.6-4.1,3.4c-1.2,0.6-0.4,0.5,0.3,0.2c1-0.4,2.3-0.3,3-1c0,0-0.2,0.5-0.5,1
		c-0.1,0.2-0.5,0.3-0.5,0.5c0,0.8,1.1,0.6,1.5,0.2c0.8-0.7,1.4-1.5,1.4-2.7C42.5,38.6,42.3,37.8,41.4,37.7"/>
	<path class="st0" d="M50.1,26.6c0,0.7,0.3,3.6,1,3.7c1.2,0.1,1.7-0.2,2.7-0.1c0.8,0.1,2.1,0.5,3,1.1c0.6,0.4,1.9,0.9,2.9,1.4
		c0.6,0.3,0.4,1,0.8,1c0.6,0,3.1,0.6,3.2,1c0.1,0.3-0.6,0.6-1.3,0.6c-0.4,0-0.9-0.1-1-0.1c-0.4-0.1-0.6-0.4-1-0.6
		c-0.8-0.4-2.5-0.8-3.4-1.3c-1.4-0.8-2-1.3-3.3-1.3c-0.4,0-1.1-0.3-1.4-0.2c-1.7,0.2-1.6,1-1.5,1.8c0,0.5-0.2,0.6-0.6,1.4
		c-0.4,0.7-0.9,1.2-1.8,1.3C45.9,36.4,48,26.7,50.1,26.6"/>
	<path class="st1" d="M61.2,35.6c0.1,0,0.2,0.1,0.4,0.1c0.2,0.1,0.3,0.3,0.5,0.3c0.1,0,0.6,0.3,1.5,0.9c0.6,0.5,0.6,1.6,1.1,2.3
		c-0.1,0,0.5,0.5,0.8,0.8c0.3,0.4,0.1,1.1,0,1c0,0-0.3-0.4-0.4-0.5c-0.2-0.3-0.4-0.5-0.6-0.8c-0.4-0.4-0.6-0.8-0.7-0.9
		c-0.3-0.5-0.8-0.5-1.2-1c-0.2-0.3,0.3-0.2,0.5-0.3c0.1,0,0.1-0.2,0-0.3c-1.1-1.2-2.7-1.5-4.2-1.6c0,0,0,0,0.1,0c0.7,0,1.4,0,2,0
		C61,35.6,61.1,35.6,61.2,35.6"/>
	<path class="st3" d="M54.8,39.1c-0.2-0.3-0.5-0.6-0.2-1.1c0.2-0.4,0.6-0.5,1-0.7c0.2-0.1,0.3,0,0.3,0c-0.6,0.4-0.8,1.6-0.4,2.2h0.1
		l0,0c-0.1-0.1-0.4-0.2-0.5-0.3C54.9,39.2,54.8,39.1,54.8,39.1"/>
	<path class="st5" d="M60.2,40.7L60.2,40.7L60.2,40.7L60.2,40.7L60.2,40.7L60.2,40.7L60.2,40.7c0.1-0.1,0.1-0.1-0.1-0.2
		c-0.1,0-0.3-0.1-0.4-0.1c-0.1-0.1-0.1-0.3-0.1-0.4c0-0.1,0-0.3,0.2-0.4c0.1,0,0.2-0.1,0.2-0.1l0,0c0,0,0,0,0.1,0c0,0,0.1,0,0.1-0.1
		c0.1,0,0.1-0.1,0.1-0.1l0,0c0.1-0.1,0.2-0.3,0.3-0.4c0.2-0.2,0.3-0.4,0.4-0.4c0.1-0.2,0.6,0,0.7-0.1c0.1,0.1,0.2,0.1,0.4,0.2
		c0.2,0.2,0.8,0.7,0.8,1c0,0.1,0,0.2-0.1,0.2c0,0-0.1,0.1-0.2,0.1c-0.2,0.2-0.6,0.4-0.4,0.5c0.2,0.1,0.5,0.3,0.7,0.3l0,0l0,0l0,0
		l0,0l0,0l0,0l0,0l0,0l0,0l0,0l0,0l0,0l0,0l0,0l0,0l0,0l0,0l0,0l0,0l0,0l0,0l0,0l0,0l0,0l0,0l0,0l0,0l0,0l0,0l0,0l0,0l0,0l0,0l0,0
		l0,0l0,0l0,0l0,0l0,0l0,0l0,0l0,0l0,0l0,0l0,0l0,0l0,0l0,0l0,0l0,0l0,0l0,0l0,0l0,0l0,0l0,0l0,0l0,0l0,0l0,0l0,0l0,0l0,0l0,0l0,0
		l0,0l0,0l0,0l0,0l0,0l0,0l0,0l0,0l0,0l0,0l0,0l0,0l0,0l0,0l0,0l0,0l0,0l0,0l0,0l0,0l0,0l0,0l0,0l0,0l0,0l0,0l0,0l0,0l0,0l0,0l0,0
		c-0.9-0.2-1.7-0.3-2.2-0.3C60.8,40.7,60.5,40.7,60.2,40.7"/>
	<path class="st13" d="M60.2,40.7L60.2,40.7L60.2,40.7L60.2,40.7L60.2,40.7L60.2,40.7L60.2,40.7c0.1-0.1,0.1-0.1-0.1-0.2
		c-0.1,0-0.3-0.1-0.4-0.1l-0.1-0.1c0.6,0.1,1.2,0.1,1.9,0.1c0.2,0,0.5,0,0.7,0c0,0-0.1,0.1,0,0.1c0.2,0.1,0.5,0.3,0.7,0.3l0,0l0,0
		l0,0l0,0l0,0l0,0l0,0l0,0l0,0l0,0l0,0l0,0l0,0l0,0l0,0l0,0l0,0l0,0l0,0l0,0l0,0l0,0l0,0l0,0l0,0l0,0l0,0l0,0l0,0l0,0l0,0l0,0l0,0
		l0,0l0,0l0,0l0,0l0,0l0,0l0,0l0,0l0,0l0,0l0,0l0,0l0,0l0,0l0,0l0,0l0,0l0,0l0,0l0,0l0,0l0,0l0,0l0,0l0,0l0,0l0,0l0,0l0,0l0,0l0,0
		l0,0l0,0l0,0l0,0l0,0l0,0l0,0l0,0l0,0l0,0l0,0l0,0l0,0l0,0l0,0l0,0l0,0l0,0l0,0l0,0l0,0l0,0l0,0l0,0l0,0l0,0l0,0l0,0l0,0l0,0l0,0
		l0,0c-0.9-0.2-1.7-0.3-2.2-0.3C60.8,40.7,60.5,40.7,60.2,40.7"/>
	<path class="st29" d="M58.2,38.8C58.2,38.7,58.2,38.7,58.2,38.8c0.2-0.1,0.3-0.1,0.3,0s0,0.1,0,0.2c0,0.1-0.2,0.1-0.3,0l-0.1-0.1
		C58.2,38.9,58.2,38.8,58.2,38.8"/>
	<path class="st14" d="M63,39.5c0.1,0.1,0.2,0.2,0.3,0.3s0.2,0.1,0.3,0.2c0.3,0.2,0.2,0.3,0,0.3s-1,0-1.2,0c0.1-0.1,0.2-0.2,0.3-0.2
		c0.1-0.1,0.2-0.1,0.2-0.1c0.1-0.1,0.1-0.1,0.1-0.2C63,39.6,63,39.6,63,39.5"/>
	<path class="st0" d="M54,39.6c0,0.3,0.3,0.6,0.6,0.7c0.1,0.1,0.5,0.2,0.6,0.2c0.1,0.2-0.9,0-1.1-0.1c-0.2-0.1-0.6-0.1-0.8-0.3
		c0-0.1-0.4-0.2-0.3-0.3c0.1-0.1,0.6-0.2,0.6-0.2C53.7,39.7,54,39.7,54,39.6"/>
	<path class="st1" d="M58.7,72.2c0.5,1.1,3.5,2.9,4.5,3.5c0.8,0.5,0.8,1,0.3,1.6c-0.8,1-3,3.4-3.4,4.8c-0.1,0.5,0-1.7-0.3-4
		C59.4,75.6,59,73.6,58.7,72.2"/>
	<path class="st12" d="M34.9,37.3c-0.3,0.2-3,0.7-1.2,0.7c0.8,0,2.6-0.9,3.2-1.4c0.6-0.4,1-0.8,1.4-1.3c0.1-0.1,0.4-0.4,0.4-0.6
		C38.7,34.6,35.6,36.9,34.9,37.3"/>
	<path class="st12" d="M44.2,25.2c-0.5,0.4-0.8,0.9-1.4,1.2c-1.2,0.5-1.6,0.7-2.1,1.9c-0.1,0.3-0.2,0.5-0.3,0.8
		c-0.4,1,0.7-0.8,0.8-1C41.8,26.7,44.2,26.9,44.2,25.2"/>
	<path class="st12" d="M41.2,17c0.6,0,1.5-0.1,2.1,0.1s1.1-0.2,0.6,0.3c-0.1,0.1-0.8,0.1-1,0.1s2,0.4,0.9,0.4c-0.9,0-0.4,0.7,0.1,1
		c0.3,0.2,0.5,0.3,0.8,0.4s0.6,0.1,1,0.2c0.2,0-0.5,0.4-0.7,0.4c-1.5,0-3,0.1-4.5,0.1c-0.1,0-0.3,0-0.5,0c-0.1,0-0.5,0-1,0
		c-0.9,0-2-0.1-2-0.2s0.8,0,1.5-0.1c0.5,0,1.8-0.3,2.2-0.6c0.1-0.1-0.8-0.7-0.9-0.9c-0.2-0.2,1.8,0.4,1.4-0.4
		c-0.2-0.3-0.5-0.5-0.8-0.6C40,17,41.1,17.1,41.2,17"/>
	<path class="st12" d="M35.1,10.4c0.8-0.2,1.6-0.2,2.5-0.2c0.2,0,1,0.1,0.9,0.3c0,0.1-0.3,0.1-0.3,0.2c0,0.2,0.8,0.2,1,0.3
		s0.5,0.2,0.6,0.3s-1.2,0.1-1.3,0.1c0,0,1.5,0.4,1.9,0.8c0.3,0.2,1.1,0.7,0.3,0.6c-1.2-0.2-1.9-0.3-3,0.2c-0.2,0.1-1.3,0.7-1.3,0.6
		c-0.1-0.5,2.1-0.9,1.7-1.1c-0.4-0.2-1.7,0-2.2,0C34,12.4,37,11.6,37,11.3C36.9,11,35.4,10.2,35.1,10.4"/>
	<path class="st3" d="M45.7,47c0.9,3.7-5.8,8.8-8.4,10.5c-3,2.1-6.7,1-9.8,2.2c-0.7,0.3-2.1,2.4-1.3,0c0.5-1.5,3.9-3.3,5.5-3.7
		c2.9-0.6,6.6-4,8.5-5.9C40.6,49.8,45.5,42.4,45.7,47"/>
	<path class="st27" d="M43.3,48.4c0.1,0.5-0.1,0.7-0.3,1.2c-0.1,0.3,1.4-1.3,2-1.6c0.4-0.2-0.1,0.9-0.2,1.1c-0.5,0.8-2,2.6-3.2,3.8
		c-1.9,1.8-3.7,2.9-4.5,3.4c-2.2,1.5-5,0.8-7.3,1.7c-0.6,0.2-1.6,1.8-1,0c0.4-1.1,3.4-1.6,4.6-1.8c2.2-0.4,4.9-3,6.4-4.4
		c0.1-0.1,1.1-1.3,1.8-2.4C42.4,47.8,43.2,46.4,43.3,48.4"/>
	<path class="st31" d="M42.8,49.8c-0.1,0.3,1.6-1,1.4-0.6c-1.4,2.1-6.1,5.9-7.5,6.8c-1.6,1.1-3.5,1-5.3,1.2c0.6-0.7,2.6-1,3.5-1.2
		c1.7-0.3,3.9-2.4,5-3.5c0.1-0.1,0.9-1,1.5-1.9C42.1,49.5,42.7,48.4,42.8,49.8"/>
	<path class="st2" d="M56.9,16.4c0,1.3-0.8,3-1.7,3.8c-0.7,0.7-0.7,1.2-1.8,1.2c-1.3,0-0.5-0.3-0.1-0.6c0.8-0.8,2.1-0.8,2.4-2
		c0.1-0.2,0.4-1,0.5-1.1s0.1-0.3,0.2-0.5C56.5,17,56.5,16.7,56.9,16.4"/>
	<path class="st2" d="M57.2,17.8c0,1-0.6,2.5-1.3,3.3c-0.7,0.7-1.2,1.1-2.2,1.1c-0.2,0-0.4-0.1-0.4-0.2s0.3,0,0.6-0.2
		c0.3-0.1,0.7-0.1,1-0.3c0.5-0.3,0.9-1,1-1.4c0.1-0.2,0.4-1,0.5-1.1s0.1-0.3,0.2-0.5C56.9,18.4,56.8,18.1,57.2,17.8"/>
	<path class="st2" d="M84.6,37.1c0.1-0.1,0.1-0.1,0.2-0.1l0.4,0.1l-0.1,0.3l-0.4,0.1C84.6,37.5,84.7,37.2,84.6,37.1
		C84.6,37.2,84.6,37.2,84.6,37.1"/>
	<path class="st8" d="M83.9,37.2L83.9,37.2l0.2-0.1v0.1C84,37.2,84,37.2,83.9,37.2L83.9,37.2L83.9,37.2"/>
	<path class="st15" d="M84.1,35.5c0.2-0.1,0.3-0.1,0.5-0.1c0.1,0,0.2,0,0.2,0h0.1c0.1,0,0,0.1,0.1,0.1s-0.1,0.1-0.1,0.1
		c-0.1,0-0.3,0-0.5,0S84.1,35.7,84.1,35.5"/>
	<path class="st15" d="M86.2,35.4c0.1,0,0.3,0,0.5,0.1c0.1,0,0.3,0.1,0.4,0.1s0.3,0.2,0.4,0.3c0,0.1-0.3,0-0.4,0
		c-0.1-0.1-0.3-0.1-0.5-0.1l-0.4-0.1C86.2,35.5,86.2,35.5,86.2,35.4"/>
	<path class="st23" d="M56.3,0.4c-4.1,0.5-6.3,1.5-8.2,3.7c-1.8,2.2-5.7-1.3-8.7-1.7c-0.5-0.1-3.1-0.1-3.1-0.6
		c0.1-1.1,9.8-1.1,11.6-1.1C50.6,0.8,53.3,0.4,56.3,0.4"/>
	<path class="st19" d="M72.5,57.8c0.2,0,0.8-0.2,0.9-0.3s0.6-0.4,1.1-0.6c0.6-0.2,1.4-0.2,1.2-0.5c-0.3-0.1-1.2-0.2-1.9-0.1
		c-0.6,0.1-1.1,0.4-1.1,0.5C72.4,57.4,72.7,57.5,72.5,57.8C72.6,57.8,72.6,57.8,72.5,57.8"/>
	<path class="st12" d="M69.4,66.3c-0.3,0.9,1.9,1.3,2.9,1.3s2.2-0.1,3-0.3c0.7-0.2,1.7-1.2,2.4-1.5c0.6-0.3,0.1-0.3-0.6-0.3
		c-1.5,0-3.3,0.8-4.9,0.8C71.9,66.4,69.5,66.1,69.4,66.3"/>
	<path class="st5" d="M73.5,65c-0.7,0.7-2.3,0.2-3.3,0.6c-0.6,0.2-0.7,0.5-0.5,0.6c0.6,0,2.3,0.1,2.6,0.1c1.6,0,3.4-0.8,4.9-0.8
		c0.2,0,0.3,0,0.5,0C78.9,64.4,74.2,64.8,73.5,65"/>
	<path class="st1" d="M45.3,59.2c-5.4,0-8.1,9.8-12.6,11c-2,0.5-5.1-0.2-6.7,1.4c-3.6,3.5-9.5,2.9-14.4,4.6c-2.1,0.7-7,0.5-1.1,0.8
		c1.4,0.1,2.7,0.8,4,1.7c1.8-0.2,5.3,0.2,7.1-0.6c2.1-0.9,4.2-0.4,6.3-1.1c4-1.5,8-4.3,12.4-6.3c2.3-1,5.8-7.2,6.9-4.5
		c0.2,0.5-0.8,2.6-0.8,3.8c0,1-4.1,6.1-9.7,9c-4.7,2.4-14.6,5.3-15.4,7.7c0.4-0.1,4.1-0.5,4.6-0.7c1.8-0.9,1.5,1.8,2.7,2.5
		c2.4,1.4,19.5-12.8,19.5-16.4C48.2,65,46.1,68.1,45.3,59.2"/>
	<path class="st3" d="M16.7,76.2c1.9-1.6,6.9-0.7,8.6-2.1c1.5-1.2,3.5-1.3,5.1-1.9c1.5-0.6,2.8-2.2,4.2-2.8c1.3-0.6,3.3-1.5,4.8-1.9
		c1.2-0.3,2.1-1.4,2.7-2.1c0.2-0.2-2.4,3.6-5,5.2c-1.5,0.9-3.7,0.4-5.2,1.3c-1,0.6-2.6,1-3.4,1.8c-1.8,1.5-2,2.1-4.2,2.9
		C22.2,77.3,17.8,76.4,16.7,76.2"/>
	<path class="st3" d="M47.9,71.2c0.1,0.9,0.4,2.4-0.1,3.2c-0.3,0.5-1,1.5-1.4,1.8c-0.5,0.3-1,1-1.7,1.4c-1,0.6-1.6,1.4-2.7,1.8
		c-0.4,0.2-0.6,0.4-0.2-0.4c0.7-1.4,1.9-2.8,3.1-3.8C45.1,75,47.7,71.8,47.9,71.2"/>
	<path class="st3" d="M37.7,80.7c0.7,1,0.9,3.4-0.7,3.5c-0.9,0.1-3.6,1.9-4.5,1.9c-0.6,0-3.2-0.9-3.8-1c-0.7-0.1,4-2.7,4.3-2.8
		c0.6-0.2,1.4-0.4,2.1-0.6c0.4-0.1,0.9,0,1.3-0.1C37.2,81.5,36.9,80.9,37.7,80.7"/>
	<path class="st32" d="M37.2,83.1c0.1,0.6-0.1,1.1-0.8,1.2c-0.6,0.1-1.1,0.6-1.7,0.6c-0.1,0-0.3-0.1-0.5-0.2
		c0.2-0.1,0.5-0.2,0.7-0.3C35.6,84.1,36.6,83.6,37.2,83.1 M36.8,82.2c0.1,0.2,0.2,0.4,0.3,0.6l0,0c-0.3,0.1-0.5,0.2-0.7,0.3
		c-0.5,0.3-1.4,0.3-2.4,0.5c-1.1,0.2-2.2,0.5-3,0.7c0.5-0.8,3-1.3,4.1-1.6c0.3-0.1,0.6,0,0.9-0.1C36.5,82.6,36.3,82.3,36.8,82.2z"/>
	<path class="st32" d="M42.9,78.3c0.3-0.5,1-1.1,1.4-1.6c0.7-0.9,2.1-1.3,2.8-2.2c0.2-0.3,0.8-2.4,0.7-1.1c-0.2,1.3-1.2,2.3-2.1,3.3
		C45.4,77.1,43.4,78,42.9,78.3"/>
	<path class="st1" d="M44,83.4c0.6-0.3,2.9-2.2,2.5-0.8c-0.8,2.4-2,3.2-3.6,4.8c-1.2,1.3-2.7,2.2-4.4,2.7c-0.3,0.1-1.5,0.2-1.5,0.1
		c0-0.8,2-2.2,2.5-2.8c0.7-0.9,1.7-1.4,2.5-2.1C42.4,85,42.8,82.7,44,83.4"/>
	<path class="st32" d="M38.3,68.8c-0.6,0.2-0.8,0.6-1.2,0.9c-0.5,0.4-0.6,0.2-1.1,0.4c-0.3,0.1-0.6,0.2-0.9,0.2
		c-0.3,0-0.6,0.1-0.9,0.2c-0.3,0.1,0.1-0.2,0.3-0.2C36,70,36.6,68.8,38.3,68.8"/>
	<path class="st32" d="M26.6,74c-1.3,0.8-3.3,2.2-5.5,2c-0.4,0-0.8,0-1.2,0c-0.2,0,0.5-0.1,0.6-0.1c0.6,0,1.2-0.1,1.8-0.2
		c1.5-0.4,2.7-1.3,3.8-1.7L26.6,74z"/>
	<path class="st3" d="M44.7,57.6c-2.6,0-6.1,4.5-7,6.6c-0.3,0.8-0.8,1.6-1.1,2.3c-0.4,1-0.5,1,0.7,0.5c0.9-0.4,1.9-0.9,2.6-1.7
		c1.2-1.5,2.7-4.6,4.5-5.8c0.3-0.2,0.7-0.4,0.9-0.5c0.7-0.5,1.3-0.1,0.5-0.9C45.5,58,44.7,57.6,44.7,57.6"/>
	<path class="st27" d="M42.7,59.1c-0.9,0-2.5,2.6-2.9,3.3c-0.1,0.3-0.4,1-0.7,1.5c-0.4,0.6-0.9,1.1-0.9,1.3c-0.1,0.9,0.7,0,1.3-0.9
		c0.3-0.5,0.4-1.1,0.5-1.3c0.6-1.1,1.3-1.8,2.1-2.5C42.8,60.1,44.6,59.1,42.7,59.1"/>
	<path class="st31" d="M42.2,59.1c-0.6,0-1.7,1.7-1.9,2.2c-0.2,0.4-0.2,0.4-0.3,0.9c0,0.1-0.1,0.1-0.1,0.2c-0.2,0.9,0.4-0.4,0.5-0.7
		c0.4-0.7,0.9-1.2,1.4-1.6C42.3,59.8,43.5,59.1,42.2,59.1"/>
	<line class="st33" x1="93" y1="0" x2="93" y2="93.2"/>
	<line class="st33" x1="93.1" y1="93.2" x2="0" y2="93.2"/>
	<path class="st1" d="M62,3.2c-3,0-6.4,0.5-8.4,2.8c-0.9,1-1.2-0.3-2,1.2c-0.5,0.9-3.1,5.2-0.8,3.1c0.8-0.7,1.1-2.3,1.6-2.7
		c1.4-1,3.3-2.9,5-3.4C58.4,4,62.7,3.4,62,3.2"/>
	<path class="st1" d="M63.9,4.8c-2.3,0.4-3.9,0.1-5.5,1.7c-0.3,0.3-0.8,1-0.9,1.4c0,0.1-0.9,1-0.5,0.8c0.7-0.4,0.8-1.2,1.5-1.5
		c1-0.4,1.7-1.7,3.1-1.2c0.4,0.1,1.2-0.3,1.5-0.5C63.5,5.4,64.7,4.8,63.9,4.8"/>
	<path class="st1" d="M26.1,48.9c-3,1.9-10.2-2.5-12.9-3.6c-1.6-0.7-2.9-1.7-4.5-2.6c-0.3-0.2-3-0.3-2.1-0.6
		c3.3-1.3,8.2,1.2,10.7,2.7c1.4,0.8,3.8,1.5,4.9,2.3C22.7,47.6,26.1,48.2,26.1,48.9"/>
	<path class="st3" d="M29.9,42.6c0.1-0.1,0.8,1.3,1.5,1.6c0.6,0.2,2.4,0.3,2.4,0.8c0,1.8-3.6,1.8-5,1.5c-3-0.5-5.6-3.4-8.3-4.5
		c-0.2-0.1,2.1,0.6,2.7,0.6c1.1,0.1,2.3,0.1,3.4,0.1C27.6,42.9,29.3,42.7,29.9,42.6"/>
</g>
<text transform="matrix(0.8547 0 0 1 112.3247 72.1995)" class="st34 st35 st36">PALOMA</text>
</svg>
