<?xml version="1.0" encoding="utf-8"?>
<!-- Generator: Adobe Illustrator 23.0.1, SVG Export Plug-In . SVG Version: 6.00 Build 0)  -->
<svg version="1.1" id="Layer_1" xmlns="http://www.w3.org/2000/svg" xmlns:xlink="http://www.w3.org/1999/xlink" x="0px" y="0px"
	 viewBox="0 0 266.5 266.5" style="enable-background:new 0 0 266.5 266.5;" xml:space="preserve">
<style type="text/css">
	.st0{fill:#CFBDA8;}
</style>
<g>
	<g>
		<g>
			<path class="st0" d="M117.9,177.8c-0.4-1.1-0.3-2.2,0.1-3.2c0.4-0.9,1.2-1.6,2.1-1.9c0.5-0.1,0.9-0.2,1.4-0.1l4.5,0.5l-2.6-3.7
				c-3.1-4.4-8.3-6.6-13.6-5.8c-3.7,0.5-7.1,2.5-9.3,5.6s-3.2,6.8-2.7,10.5c0.5,3.7,2.5,7.1,5.6,9.3c2.5,1.8,5.4,2.8,8.4,2.8
				c0.7,0,1.4-0.1,2.1-0.2c4.8-0.7,8.8-3.8,10.8-8.2l1.7-3.7l-4,1C120.6,181.1,118.5,179.9,117.9,177.8z M113.3,187.7
				c-2.7,0.4-5.4-0.3-7.5-1.9c-2.2-1.6-3.6-4-4-6.7c-0.4-2.7,0.3-5.4,1.9-7.5c1.6-2.2,4-3.6,6.7-4c0.5-0.1,1-0.1,1.5-0.1
				c2.1,0,4.2,0.7,5.9,1.9c-1.5,0.8-2.7,2-3.4,3.6c-0.9,1.9-1,4.1-0.3,6.1c0.9,2.6,2.9,4.5,5.3,5.3
				C117.8,186.2,115.7,187.3,113.3,187.7z"/>
			<path class="st0" d="M203.4,136.7c1.3-1.1,2.9-2.6,4.9-4.4l8.6-7.6l-32.3,7.6c-1.1,0.3-2.7,0.6-4.2,0.9l5.3-8.6l-3.8,0.2
				c-3,0.1-72.6,1.3-94.7,9.3c-21.8,7.9-67.4,41.1-69.1,54.9c-0.4,0.5-0.3,3.7-0.3,3.7c0,0,0.1,0.1,0.2,0.1c0,0,29.2,19.4,59.7,25.6
				c0.1,0,0.3,0,0.4,0c0.9,0,1.8-0.7,1.9-1.6c0.2-1.1-0.5-2.1-1.6-2.3c-27.7-5.6-50-19.4-56.4-23.7c22.9-16.9,39.1-26.3,53.2-31.6
				c-3.8,7.5-5.2,15.9-4,24.3c1.6,10.8,7.3,20.4,16,26.9c7.1,5.3,15.6,8.1,24.3,8.1c2,0,4-0.1,6-0.4c10.8-1.6,20.4-7.3,26.9-16
				s9.3-19.5,7.7-30.3c-0.8-5.2-2.5-10-5.1-14.4c14.7,2.5,30.6,4.8,44.3,2.7c3.5,2,6.3,3.8,7.9,4.8c-4.3,5.2-18.9,21.8-40,34.7
				c-0.9,0.6-1.2,1.8-0.7,2.7c0.6,0.9,1.8,1.2,2.7,0.7c25.9-15.9,42.4-37.9,43-38.7c0,0-3.1-2.7-7.2-5.4
				c11.9-3.1,21.6-10.3,26.4-24.8l1.4-4.2l-4,1.7C217.4,133,209.9,135.4,203.4,136.7z M148.3,172.3c0.2,1.1,0.2,2.1,0.3,3.2
				l-19.5,0.2c-0.6,0-1.1,0.5-1.1,1.1c0,0.6,0.5,1.1,1.1,1.1c0,0,0,0,0,0l19.6-0.2c0,4.2-0.7,8.3-2.1,12.3l-18-7.2
				c-0.6-0.2-1.2,0-1.5,0.6c-0.2,0.6,0.1,1.2,0.6,1.5l18,7.2c-1.1,2.7-2.6,5.2-4.3,7.6c-0.7,1-1.5,1.9-2.3,2.7l-13.5-13.3
				c-0.5-0.4-1.2-0.4-1.6,0s-0.4,1.2,0,1.6l13.5,13.3c-3.4,3.3-7.4,6-11.8,7.7l-6.8-18.6c-0.2-0.6-0.9-0.9-1.5-0.7
				c-0.6,0.2-0.9,0.9-0.7,1.5l6.8,18.6c-2.1,0.7-4.3,1.2-6.5,1.6c-1.8,0.3-3.6,0.3-5.3,0.3l-0.2-19.6c0-0.6-0.5-1.1-1.1-1.1
				c0,0,0,0,0,0c-0.6,0-1.1,0.5-1.1,1.1l0.2,19.6c-4-0.2-7.8-1.1-11.5-2.6l7.1-17.8c0.2-0.6-0.1-1.2-0.6-1.5c-0.6-0.2-1.2,0-1.5,0.6
				l-7.1,17.8c-2.2-1-4.2-2.3-6.2-3.7c-1.3-0.9-2.4-2-3.6-3.1l13.5-13.7c0.4-0.4,0.4-1.2,0-1.6c-0.4-0.4-1.2-0.4-1.6,0l-13.5,13.7
				c-2.8-3-5-6.5-6.6-10.3l17.6-7.6c0.6-0.2,0.8-0.9,0.6-1.5s-0.9-0.8-1.5-0.6L77,190.2c-0.8-2.3-1.4-4.7-1.8-7.2
				c-0.2-1.5-0.3-3.1-0.4-4.6l19.5-0.2c0.6,0,1.1-0.5,1.1-1.1c0-0.6-0.5-1.1-1.1-1.1c0,0,0,0,0,0l-19.5,0.2
				c0.2-3.9,0.9-7.8,2.3-11.4l18.3,7.3c0.1,0.1,0.3,0.1,0.4,0.1c0.4,0,0.9-0.3,1.1-0.7c0.2-0.6-0.1-1.2-0.6-1.5L78,162.6
				c0.8-1.8,1.8-3.6,3-5.3c2.3-0.7,4.7-1.4,7-1.9l11.3,11.1c0.2,0.2,0.5,0.3,0.8,0.3c0.3,0,0.6-0.1,0.8-0.3c0.4-0.4,0.4-1.2,0-1.6
				l-10.2-10.1c2.8-0.6,5.6-1,8.4-1.4l4.7,9.2c0.2,0.4,0.6,0.6,1,0.6c0.2,0,0.4,0,0.5-0.1c0.6-0.3,0.8-1,0.5-1.5l-4.3-8.4
				c2-0.2,4-0.4,6.1-0.6c6.6-0.5,14.9,0.6,24,2.1l-9.9,9.5c-0.5,0.4-0.5,1.2,0,1.6c0.2,0.2,0.5,0.3,0.8,0.3c0.3,0,0.6-0.1,0.8-0.3
				l11.1-10.7c2.2,0.4,4.5,0.8,6.8,1.2c0.3,0,0.5,0.1,0.8,0.1c1.1,1.5,2,3.1,2.9,4.8l-18.2,7.8c-0.6,0.2-0.8,0.9-0.6,1.5
				c0.2,0.4,0.6,0.7,1,0.7c0.1,0,0.3,0,0.4-0.1l18.3-7.9C146.9,166.1,147.8,169.1,148.3,172.3z M141.7,152.3
				c-13-2.3-25.2-4.4-34.6-3.8c-27.9,2-47.9,10.5-82.8,35.7c9.4-14,44.7-40.9,63.8-47.2c22.3-7.3,74.9-7.3,90.1-8l-6.3,10.1l4.6-1
				c0,0,6-1.3,8.9-1.9l16.9-4c-2.9,2.6-15.1,9.7-15.1,9.7l9.9-0.4c5.8-0.2,14.9-2.7,21-4.7C206.1,163.6,172,157.6,141.7,152.3z"/>
			<path class="st0" d="M254.4,55.5c-1.3-0.6-2.8-0.6-4.2,0c-1.4,0.5-2.4,1.6-3,2.9c-0.6,1.3-0.6,2.8-0.1,4.1c0.5,1.3,1.6,2.4,2.9,3
				c0.7,0.3,1.4,0.4,2.1,0.4c0.7,0,1.4-0.1,2-0.4c2.8-1.1,4.2-4.3,3.1-7C256.7,57.1,255.7,56.1,254.4,55.5z M253.4,63.4
				c-0.8,0.3-1.7,0.3-2.4,0c-0.8-0.3-1.4-0.9-1.7-1.7c-0.3-0.8-0.3-1.6,0-2.4c0.3-0.8,1-1.4,1.8-1.7c0.4-0.2,0.8-0.2,1.2-0.2
				c0.4,0,0.9,0.1,1.3,0.3c0.8,0.3,1.4,0.9,1.7,1.7C255.8,60.9,255,62.7,253.4,63.4z"/>
			<path class="st0" d="M265.7,55.1c-1.1-2.8-3.3-5-6.1-6.2c-2.8-1.2-5.9-1.2-8.8-0.1l-70.5,31.7c-1.5-0.9-3.1-1.9-4.6-2.7
				c-6.1-3.3-12-5.7-17.9-7.5c-7.9-2.3-15.2-3.4-22.7-3.2l-1.5,0.1c-1.7,0.1-3.5,0.1-4.7,0.4l-6,1c-3.9,0.8-7.8,2-11.9,3.6
				c-7.2,2.7-13.3,5.9-19.8,9.3L89.8,82c-6.3,3.4-12.9,7.4-19.5,11.7c-0.4,0.3-48.4,34.2-56.8,42.6c-0.8,0.8-1.6,1.6-2.4,2.4
				c-3,2.9-6,5.8-8.2,9.5c-2.7,4.5-4.4,11.3-1.1,16.5l1.7,3.5l1.8-1.2c0,0,3.1-2.2,8.3-6.1l10.5-7.7c3.3-2.4,7-5.1,11-7.9
				c4.4-3.2,9.2-6.5,14.3-9.9c5.2-3.5,10.7-7.1,16.2-10.6c4.9-3.1,10-6.2,15.2-9.4l6.9-4c4.5-2.6,9.1-5.3,13.9-7.7
				c6.1-3.3,12.5-6.7,18.4-9.4c3.2-1.4,6-2.4,8.5-3.2l4.4-1c1.1-0.3,1.9-0.4,2.6-0.5c0.5-0.1,1-0.1,1.4-0.2
				c5.1-0.7,10.9-0.7,16.8,0.1c0.9,0.1,1.9,0.3,2.8,0.4l-7.6,2.5c-0.3,0.1-1.8,0.7-2.3,0.9l-7.8,1.7c0,0-10.4,2-15.8,4.2
				c-11.8,4.7-19.1,13.3-16.6,19.6c1.3,3.2,4.8,5.2,10,5.6c0.6,0,1.2,0.1,1.8,0.1c4.2,0,9.1-1,13.8-2.9c5.4-2.2,14.3-7.8,14.3-7.8
				l6.6-4.1c0.6-0.2,2.3-0.9,2.6-1l12.5-5.7c0.7-0.3,1.4-0.6,1.7-1.4c0,0,0,0,0,0l13.6-4.8c0.2,0.1,0.4,0.1,0.6,0.2l11,3.7
				c1.9,0.7,3.6,1.2,5,1.7c0.9,0.3,1.6,0.5,2.3,0.8l10.4,3.3l-5.9-5.8c-0.1-0.1-2.8-2.7-7.9-6.9l-0.1-0.1c-0.6-0.5-1.2-1-1.9-1.5
				l62.7-22c2.8-1.1,5.1-3.3,6.3-6.1C266.7,61,266.8,57.9,265.7,55.1z M154.1,85.4c-6.2-0.8-12.4-0.8-17.9-0.1
				c-0.5,0.1-0.9,0.2-1.4,0.2c-0.8,0.1-1.7,0.2-3,0.5c0,0-9.2,2.3-13.5,4.5c-5.9,3-12.5,6.2-18.6,9.5c-4.8,2.5-9.4,5.2-14,7.8
				l-6.9,4.1c-5.2,3.1-10.4,6.3-15.3,9.4c-5.5,3.5-11,7.1-16.2,10.7c-5.1,3.5-10,6.8-14.4,10c-4,2.8-7.7,5.5-11,7.9l-10.5,7.7
				c-2.8,2-4.9,3.6-6.3,4.6c-2-3.9-0.6-8.9,1.3-12.1c1.9-3.2,4.7-5.9,7.6-8.7c0.8-0.8,1.7-1.6,2.5-2.4c7.7-7.8,53.8-40.5,56.1-42.1
				c6.5-4.3,12.9-8.2,19.1-11.5l1.2-0.6c6.4-3.3,12.4-6.5,19.4-9.1c4-1.5,7.7-2.7,11.3-3.4l5.9-0.9c1-0.2,2.7-0.3,4.2-0.3l1.5-0.1
				c0.5,0,0.9,0,1.4,0c6.5,0,13.1,1,20,3.1c5.6,1.7,11.2,4.1,17.1,7.2c0.7,0.4,1.4,0.8,2.1,1.2L165,87.4
				C161.1,86.5,157.5,85.8,154.1,85.4z M163.3,92.3l-4-0.5l2.9-1c0.2,0,0.3,0.1,0.5,0.1c0,0.1,0.1,0.2,0.1,0.3L163.3,92.3z
				 M155.2,93.2c0.1,0,8.7,1,8.9,1l0.8,1.9l-13.5-1.6L155.2,93.2z M130.4,117.8c-4.9,1.9-9.8,2.9-13.8,2.6c-3.5-0.3-5.9-1.4-6.6-3.1
				c-1.4-3.5,4.1-10.4,14.4-14.4c5.8-2.3,10.9-2.9,14.7-2.4l3.6,9C140.3,112.3,136.2,115.5,130.4,117.8z M151.6,107l-5.4,3.3
				l-5.2-13l6.4-1.4c0.2-0.1,0.3,0,0.5,0c0.2,1.3,0.8,3,1.8,5.5c0.7,1.8,1.5,3.5,2.2,4.7c0.1,0.1,0.2,0.3,0.3,0.5
				C152,106.8,151.8,106.9,151.6,107z M154.9,105.6c-0.2-0.3-0.5-0.7-0.7-1.2l2.8,0.2L154.9,105.6z M160.4,103.1
				c-0.1,0-6.9-0.5-7.1-0.5c-0.3-0.8-0.7-1.5-1-2.4l11.6,1.2L160.4,103.1z M151.6,98.5c-0.3-0.8-0.5-1.5-0.7-2.1
				c0,0,14.5,1.6,14.6,1.6l0.7,1.7c0,0.1,0.1,0.1,0.1,0.2C166.3,99.8,151.8,98.4,151.6,98.5z M195.9,96.7l-6.7-2.3l2.9-1
				c1.4,1.1,2.7,2.1,3.9,3l0.1,0.1c0.2,0.1,0.3,0.3,0.5,0.4C196.3,96.8,196.1,96.8,195.9,96.7z M261.9,62.2c-0.8,1.8-2.3,3.2-4,4
				l-89.4,31.4l-2.5-6.2l86.4-38.8c0.9-0.4,1.9-0.5,2.8-0.5c1,0,2,0.2,2.9,0.6c1.8,0.8,3.2,2.2,4,4v0
				C262.7,58.4,262.7,60.4,261.9,62.2z"/>
		</g>
	</g>
</g>
</svg>
