<?xml version="1.0" encoding="iso-8859-1"?>
<!-- Generator: Adobe Illustrator 16.0.0, SVG Export Plug-In . SVG Version: 6.00 Build 0)  -->
<!DOCTYPE svg PUBLIC "-//W3C//DTD SVG 1.1//EN" "http://www.w3.org/Graphics/SVG/1.1/DTD/svg11.dtd">
<svg version="1.1" id="Capa_1" xmlns="http://www.w3.org/2000/svg" xmlns:xlink="http://www.w3.org/1999/xlink" x="0px" y="0px"
	 width="381.319px" height="381.319px" viewBox="0 0 381.319 381.319" style="enable-background:new 0 0 381.319 381.319;"
	 xml:space="preserve">
<g>
	<path d="M149.837,65.266c-3.935-10.685-9.517,47.946-3.743,90.369c1.016,7.497-9.891-81.997-8.635-74.056
		c4.391,27.885-11.981,117.892-3.369,158.038c17.574,82.021,42.592,123.626,53.423,128.798
		c-3.095,14.071-41.611-50.059-41.611-50.059s21.474,45.832,12.938,58.502c-3.48-29.041-43.62-86.609-43.62-86.609
		s-4.484,28.002,19.442,44.992c-19.956-8.303-65.24-23.062-78.599-86.329c-8.893-24.148-14.766-95.344-14.766-95.344
		s-2.102,61.585,19.682,127.678C30.742,253.944-13.117,40.942,104.84,25.891c35.994-42.738,191.645-43.147,234.522,80.992
		c4.367,14.62,0,33.735,0,33.735l14.62,91.666l-12.938-47.223c0,0,21.789,173.463-18.555,196.258
		c20.389-32.475-3.375-89.424-3.375-89.424s18.578,83.013-8.991,88.338c18.006-11.842,0.561-87.777,0.561-87.777l-3.924,42.75
		l-23.634-21.918c0,0,43.859-97.866,32.625-115.3c-75.924-14.631-111.913-70.869-127.099-99.547
		c24.177,59.611,25.859,74.243,51.736,106.869C245.443,217.115,180.77,148.5,149.837,65.266z"/>
</g>
<g>
</g>
<g>
</g>
<g>
</g>
<g>
</g>
<g>
</g>
<g>
</g>
<g>
</g>
<g>
</g>
<g>
</g>
<g>
</g>
<g>
</g>
<g>
</g>
<g>
</g>
<g>
</g>
<g>
</g>
</svg>
