<?xml version="1.0" encoding="utf-8"?>
<!-- Generator: Adobe Illustrator 23.0.1, SVG Export Plug-In . SVG Version: 6.00 Build 0)  -->
<svg version="1.1" id="Capa_1" xmlns="http://www.w3.org/2000/svg" xmlns:xlink="http://www.w3.org/1999/xlink" x="0px" y="0px"
	 viewBox="0 0 381.3 381.3" style="enable-background:new 0 0 381.3 381.3;" xml:space="preserve">
<style type="text/css">
	.st0{fill:#CFBDA8;}
</style>
<g>
	<path class="st0" d="M149.8,65.3c-3.9-10.7-9.5,47.9-3.7,90.4c1,7.5-9.9-82-8.6-74.1c4.4,27.9-12,117.9-3.4,158
		c17.6,82,42.6,123.6,53.4,128.8c-3.1,14.1-41.6-50.1-41.6-50.1s21.5,45.8,12.9,58.5c-3.5-29-43.6-86.6-43.6-86.6s-4.5,28,19.4,45
		c-20-8.3-65.2-23.1-78.6-86.3c-8.9-24.1-14.8-95.3-14.8-95.3S39.2,215.2,61,281.2C30.7,253.9-13.1,40.9,104.8,25.9
		c36-42.7,191.6-43.1,234.5,81c4.4,14.6,0,33.7,0,33.7l14.6,91.7L341,185.1c0,0,21.8,173.5-18.6,196.3c20.4-32.5-3.4-89.4-3.4-89.4
		s18.6,83-9,88.3c18-11.8,0.6-87.8,0.6-87.8l-3.9,42.8l-23.6-21.9c0,0,43.9-97.9,32.6-115.3c-75.9-14.6-111.9-70.9-127.1-99.5
		c24.2,59.6,25.9,74.2,51.7,106.9C245.4,217.1,180.8,148.5,149.8,65.3z"/>
</g>
</svg>
