<?xml version="1.0" encoding="utf-8"?>
<!-- Generator: Adobe Illustrator 23.0.1, SVG Export Plug-In . SVG Version: 6.00 Build 0)  -->
<svg version="1.1" id="Capa_1" xmlns="http://www.w3.org/2000/svg" xmlns:xlink="http://www.w3.org/1999/xlink" x="0px" y="0px"
	 viewBox="0 0 566.2 566.2" style="enable-background:new 0 0 566.2 566.2;" xml:space="preserve">
<style type="text/css">
	.st0{fill:#CFBDA8;}
</style>
<g>
	<g>
		<path class="st0" d="M118,290.8c-0.3-24.3-17.1-55.4-17.1-55.4s38.3-69,50.5-100.1c42.4,15.8,79.3-64,79.3-64
			s32.4,54.1,30.6,111.8c-4.7,9-28.6,57.4-34,87.9l50,27c3.8-15.4,26.2-40.8,24.6-70.7c-1.8-33.3-31.1-80.2-31.1-80.2
			s0.4-150.5-102.3-147C65.7,3.7,34.2,170.4,33.3,190.3c-0.9,19.8,2.7,49.6,2.7,49.6s-9,1.8-8.1,9.9c0.9,8.1,8.6,16.2,9,22.5
			c0.4,6.3-18.9,5-18,13.5c0.9,8.6,13.5,11.7,11.7,18c-1.8,6.3-26.1,13.1-25.2,34.3c0.9,21.2,37.4,41,39.6,64.9
			c2.3,23.9-32,38.8-35.1,64c-3.1,25.2,41.9,40.6,42.4,63.6c0.5,23-29.7,35.6-29.7,35.6s78.9-1.3,50.5-91c-5-9,45.1-58.1,27.9-104.6
			c17.1-12.6,0-41.5,0-41.5S118.4,315.1,118,290.8z"/>
		<path class="st0" d="M533.8,465.2c1.4-4.9,1.7-10.4-2.7-13.4c-9.2-6.1-332.3-191.7-351.5-198.5c-19.2-6.7-30,6.1-30,6.1l7.8,4
			l-4.5,10.1l206.5,114.5l3.6-7l136.8,77.8l-145.5-61.4l3.3-7.1l-46.3-20.1c0-1.4,0.1-2.8-0.1-4.3l-69.7-36.4
			c2.2,4.6,4.5,9,6.7,13.2l-107.2-46.6l-5.3,9.7l-8-3.8c0,0-3.5,16.4,13.4,27.5c6.1,4,53.9,24.9,113.3,50.2
			c-5.4,8.2-11.6,20-12.4,32.2c-1.3,22.1,17.1,80.7,61.3,91.9c-14.9,24.8,6.3,34.3,6.3,34.3s39.7,4.9,23.4-40.6
			c-5.9-4.1,10.8-1.8,10.8-29.8c0-27.9-44.2-52.3-44.2-52.3s2.9-5.7,5.9-14c96.8,40.9,201.2,84.3,206.9,86.2
			c4.5,1.5,8.4-1.2,11.3-4.8l27.4,14.1l9.3-18L533.8,465.2z"/>
	</g>
</g>
</svg>
