<?xml version="1.0" encoding="iso-8859-1"?>
<!-- Generator: Adobe Illustrator 16.0.0, SVG Export Plug-In . SVG Version: 6.00 Build 0)  -->
<!DOCTYPE svg PUBLIC "-//W3C//DTD SVG 1.1//??" "http://www.w3.org/Graphics/SVG/1.1/DTD/svg11.dtd">
<svg version="1.1" id="Capa_1" xmlns="http://www.w3.org/2000/svg" xmlns:xlink="http://www.w3.org/1999/xlink" x="0px" y="0px"
	 width="354.564px" height="354.564px" viewBox="0 0 354.564 354.564" style="enable-background:new 0 0 354.564 354.564;"
	 xml:space="preserve">
<g>
	<path d="M81.819,354.561c53.819,0.479,37.793-46.148,33.636-56.717c34.915-30.745,24.668-50.947,14.421-61.981
		c-2.621-6.072,12.804-15.228,4.327-29.321c14.252-33.63-5.284-57.662-5.284-57.662s23.074-22.104,35.084-62.473
		c24.188,4.484,51.408-37.495,51.408-37.495s6.726,55.431,12.004,55.256c1.46-9.75,0.992-13.896,9.144-8.641
		c8.127,5.231,0,26.904,0,26.904l-13.942,19.699l-10.101,26.904c0,0-4.157,42.948,18.742,67.295
		c-38.593,29.146,26.426,83.118,26.426,83.118s-17.948,17.771,3.362,22.116c21.312,4.332,17.306-27.862,17.306-27.862
		s19.068-16.195-25.479-50.468c38.78-31.073-14.888-73.998-14.888-73.998s35.089-25.62,2.872-97.562
		c3.048-48.53-43.416-104.907-81.688-88.898c-38.283,16.021-83.45,93.873-67.271,150.892c-12.004,2.242-2.878,22.595-2.878,22.595
		s-21.299,2.079-3.363,20.657c-36.193,22.759,12.185,33.642,9.289,55.104c-2.879,21.475-19.548,29.473-17.469,46.778
		C79.583,316.131,111.613,320.439,81.819,354.561z"/>
</g>
<g>
</g>
<g>
</g>
<g>
</g>
<g>
</g>
<g>
</g>
<g>
</g>
<g>
</g>
<g>
</g>
<g>
</g>
<g>
</g>
<g>
</g>
<g>
</g>
<g>
</g>
<g>
</g>
<g>
</g>
</svg>
