<?xml version="1.0" encoding="utf-8"?>
<!-- Generator: Adobe Illustrator 23.0.1, SVG Export Plug-In . SVG Version: 6.00 Build 0)  -->
<svg version="1.1" id="Capa_1" xmlns="http://www.w3.org/2000/svg" xmlns:xlink="http://www.w3.org/1999/xlink" x="0px" y="0px"
	 viewBox="0 0 354.6 354.6" style="enable-background:new 0 0 354.6 354.6;" xml:space="preserve">
<style type="text/css">
	.st0{fill:#CFBDA8;}
</style>
<g>
	<path class="st0" d="M81.8,354.6c53.8,0.5,37.8-46.1,33.6-56.7c34.9-30.7,24.7-50.9,14.4-62c-2.6-6.1,12.8-15.2,4.3-29.3
		c14.3-33.6-5.3-57.7-5.3-57.7S152,126.8,164,86.4c24.2,4.5,51.4-37.5,51.4-37.5s6.7,55.4,12,55.3c1.5-9.8,1-13.9,9.1-8.6
		c8.1,5.2,0,26.9,0,26.9l-13.9,19.7L212.5,169c0,0-4.2,42.9,18.7,67.3c-38.6,29.1,26.4,83.1,26.4,83.1s-17.9,17.8,3.4,22.1
		c21.3,4.3,17.3-27.9,17.3-27.9s19.1-16.2-25.5-50.5c38.8-31.1-14.9-74-14.9-74s35.1-25.6,2.9-97.6c3-48.5-43.4-104.9-81.7-88.9
		c-38.3,16-83.4,93.9-67.3,150.9c-12,2.2-2.9,22.6-2.9,22.6s-21.3,2.1-3.4,20.7c-36.2,22.8,12.2,33.6,9.3,55.1
		c-2.9,21.5-19.5,29.5-17.5,46.8C79.6,316.1,111.6,320.4,81.8,354.6z"/>
</g>
</svg>
