<?xml version="1.0" encoding="utf-8"?>
<!-- Generator: Adobe Illustrator 23.0.1, SVG Export Plug-In . SVG Version: 6.00 Build 0)  -->
<svg version="1.1" id="Capa_1" xmlns="http://www.w3.org/2000/svg" xmlns:xlink="http://www.w3.org/1999/xlink" x="0px" y="0px"
	 viewBox="0 0 96 96" style="enable-background:new 0 0 96 96;" xml:space="preserve">
<style type="text/css">
	.st0{fill:#CFBDA8;}
</style>
<g>
	<path class="st0" d="M53.2,52.9C51.6,52,49.5,52,47.8,52h-5.7v11.8h5.2c1.9,0,4.4,0.1,6.1-1c1.5-1,2.4-3.1,2.4-5
		C55.8,56,54.7,53.8,53.2,52.9z M51,42.9c1.3-1,1.9-2.7,1.9-4.3c0-1.7-0.8-3.4-2.3-4.3c-1.5-0.9-4.3-0.7-6.2-0.7h-2.5V44h3.3
		C47.2,44,49.4,44.1,51,42.9z M79.1,0H16.9C7.6,0,0,7.6,0,16.9v62.2C0,88.4,7.6,96,16.9,96h62.3C88.4,96,96,88.4,96,79.1V16.9
		C96,7.6,88.4,0,79.1,0z M50.6,72.5H31V25.2h21.4c6.2,0,11.9,4,11.9,10.9c0,5.4-3,9.1-6.8,10.2v0.1c5.7,1.2,9.7,4.3,9.7,11.7
		C67.3,65.1,62.6,72.5,50.6,72.5z"/>
</g>
</svg>
