<?xml version="1.0" encoding="utf-8"?>
<!-- Generator: Adobe Illustrator 23.0.1, SVG Export Plug-In . SVG Version: 6.00 Build 0)  -->
<svg version="1.1" id="Layer_1" xmlns="http://www.w3.org/2000/svg" xmlns:xlink="http://www.w3.org/1999/xlink" x="0px" y="0px"
	 viewBox="0 0 310 310" style="enable-background:new 0 0 310 310;" xml:space="preserve">
<style type="text/css">
	.st0{fill:#CFBDA8;}
</style>
<g id="XMLID_822_">
	<path id="XMLID_823_" class="st0" d="M297.9,64.6c-11.2-13.3-31.9-18.7-71.3-18.7H83.4C43,45.9,22,51.7,10.9,65.9
		C0,79.7,0,100,0,128.2v53.7c0,54.6,12.9,82.2,83.4,82.2h143.2c34.2,0,53.2-4.8,65.4-16.5c12.6-12,17.9-31.7,17.9-65.7v-53.7
		C310,98.5,309.2,78,297.9,64.6z M199,162.4l-65,34c-1.5,0.8-3,1.1-4.6,1.1c-1.8,0-3.6-0.5-5.2-1.4c-3-1.8-4.8-5.1-4.8-8.6v-67.8
		c0-3.5,1.8-6.7,4.8-8.5c3-1.8,6.7-1.9,9.8-0.3l65,33.8c3.3,1.7,5.4,5.1,5.4,8.9C204.4,157.3,202.3,160.7,199,162.4z"/>
</g>
</svg>
